<svg width="256" height="256" viewBox="0 0 256 256" fill="none" xmlns="http://www.w3.org/2000/svg">
<path d="M194.14 67.22L171.42 89.6" stroke="white" stroke-width="2" stroke-miterlimit="10"/>
<path d="M171.42 71.2V89.6H190.5" stroke="white" stroke-width="2" stroke-miterlimit="10"/>
<path d="M90.4902 65.64L112.86 88.36" stroke="white" stroke-width="2" stroke-miterlimit="10"/>
<path d="M94.46 88.36H112.86V69.27" stroke="white" stroke-width="2" stroke-miterlimit="10"/>
<path d="M90.1396 170.87L112.86 148.5" stroke="white" stroke-width="2" stroke-miterlimit="10"/>
<path d="M112.86 166.9V148.5H93.7803" stroke="white" stroke-width="2" stroke-miterlimit="10"/>
<path d="M194.66 170.62L172.29 147.9" stroke="white" stroke-width="2" stroke-miterlimit="10"/>
<path d="M190.69 147.9H172.29V166.98" stroke="white" stroke-width="2" stroke-miterlimit="10"/>
<path d="M142.74 122.05C147.495 122.05 151.35 118.195 151.35 113.44C151.35 108.685 147.495 104.83 142.74 104.83C137.985 104.83 134.13 108.685 134.13 113.44C134.13 118.195 137.985 122.05 142.74 122.05Z" stroke="white" stroke-width="2" stroke-miterlimit="10"/>
<path d="M125.33 117.07C130.085 117.07 133.94 113.215 133.94 108.46C133.94 103.705 130.085 99.85 125.33 99.85C120.575 99.85 116.72 103.705 116.72 108.46C116.72 113.215 120.575 117.07 125.33 117.07Z" stroke="white" stroke-width="2" stroke-miterlimit="10"/>
<path d="M160.15 116.24C164.905 116.24 168.76 112.385 168.76 107.63C168.76 102.875 164.905 99.02 160.15 99.02C155.395 99.02 151.54 102.875 151.54 107.63C151.54 112.385 155.395 116.24 160.15 116.24Z" stroke="white" stroke-width="2" stroke-miterlimit="10"/>
<path d="M130.82 140.27C129.35 128.51 135.82 123.08 142.74 123.08C149.66 123.08 155.94 127.78 154.47 140.27H130.82Z" stroke="white" stroke-width="2" stroke-miterlimit="10"/>
<path d="M136.38 124.86C133.9 119.77 129.67 117.41 125.38 117.41C118.5 117.41 111.99 122.84 113.46 134.6H130.71" stroke="white" stroke-width="2" stroke-miterlimit="10"/>
<path d="M148.75 124C151.23 118.92 155.45 116.55 159.7 116.55C166.58 116.55 173.09 121.99 171.62 133.74H154.37" stroke="white" stroke-width="2" stroke-miterlimit="10"/>
</svg>
