<svg width="256" height="256" viewBox="0 0 256 256" fill="none" xmlns="http://www.w3.org/2000/svg">
<g clip-path="url(#clip0)">
<path d="M254.009 3.84375L198.736 58.2891" stroke="white" stroke-width="2" stroke-miterlimit="10"/>
<path d="M198.736 13.5262V58.2891H245.154" stroke="white" stroke-width="2" stroke-miterlimit="10"/>
<path d="M1.85254 0L56.2735 55.2725" stroke="white" stroke-width="2" stroke-miterlimit="10"/>
<path d="M11.5107 55.2724H56.2737V8.83087" stroke="white" stroke-width="2" stroke-miterlimit="10"/>
<path d="M1 256L56.2725 201.579" stroke="white" stroke-width="2" stroke-miterlimit="10"/>
<path d="M56.2736 246.342V201.579H9.85645" stroke="white" stroke-width="2" stroke-miterlimit="10"/>
<path d="M255.274 255.392L200.853 200.119" stroke="white" stroke-width="2" stroke-miterlimit="10"/>
<path d="M245.615 200.119H200.853V246.537" stroke="white" stroke-width="2" stroke-miterlimit="10"/>
<path d="M128.964 137.232C140.532 137.232 149.91 127.854 149.91 116.286C149.91 104.718 140.532 95.3401 128.964 95.3401C117.395 95.3401 108.018 104.718 108.018 116.286C108.018 127.854 117.395 137.232 128.964 137.232Z" stroke="white" stroke-width="2" stroke-miterlimit="10"/>
<path d="M86.6092 125.117C98.1774 125.117 107.555 115.739 107.555 104.171C107.555 92.6028 98.1774 83.2249 86.6092 83.2249C75.041 83.2249 65.6631 92.6028 65.6631 104.171C65.6631 115.739 75.041 125.117 86.6092 125.117Z" stroke="white" stroke-width="2" stroke-miterlimit="10"/>
<path d="M171.319 123.098C182.887 123.098 192.265 113.72 192.265 102.152C192.265 90.5836 182.887 81.2057 171.319 81.2057C159.751 81.2057 150.373 90.5836 150.373 102.152C150.373 113.72 159.751 123.098 171.319 123.098Z" stroke="white" stroke-width="2" stroke-miterlimit="10"/>
<path d="M99.9652 181.557C96.389 152.948 112.129 139.738 128.964 139.738C145.799 139.738 161.076 151.172 157.5 181.557H99.9652Z" stroke="white" stroke-width="2" stroke-miterlimit="10"/>
<path d="M113.493 144.068C107.46 131.686 97.1693 125.944 86.7328 125.944C69.9953 125.944 54.158 139.154 57.7342 167.764H99.6994" stroke="white" stroke-width="2" stroke-miterlimit="10"/>
<path d="M143.585 141.976C149.618 129.618 159.884 123.852 170.224 123.852C186.961 123.852 202.798 137.086 199.222 165.671H157.257" stroke="white" stroke-width="2" stroke-miterlimit="10"/>
</g>
<defs>
<clipPath id="clip0">
<rect width="256" height="256" fill="white"/>
</clipPath>
</defs>
</svg>
