<svg id="Layer_1" data-name="Layer 1" xmlns="http://www.w3.org/2000/svg" viewBox="0 0 256 256"><defs><style>.cls-1{fill:none;stroke:#fff;stroke-miterlimit:10;stroke-width:2px;}</style></defs><path class="cls-1" d="M115.83,72.57h32.68a12,12,0,0,1,12,12V161.8c0,1.79-1.44,1.85-2.06,2l-52.51.13c-.45,0-1.89-.06-1.83-2.17l-.28-77.23A12,12,0,0,1,115.83,72.57Z"/><line class="cls-1" x1="103.95" y1="118.27" x2="160.51" y2="118.28"/><line class="cls-1" x1="111.6" y1="128" x2="129.49" y2="128"/><rect class="cls-1" x="112" y="80.74" width="40.43" height="29.36" rx="4"/><rect class="cls-1" x="137.58" y="127.76" width="1" height="1"/><rect class="cls-1" x="144.48" y="127.76" width="1" height="1"/><rect class="cls-1" x="151.53" y="127.76" width="1" height="1"/><rect class="cls-1" x="137.42" y="134.81" width="1" height="1"/><rect class="cls-1" x="144.48" y="134.81" width="1" height="1"/><rect class="cls-1" x="151.53" y="134.81" width="1" height="1"/><rect class="cls-1" x="137.36" y="141.87" width="1" height="1"/><rect class="cls-1" x="144.48" y="141.87" width="1" height="1"/><rect class="cls-1" x="151.53" y="141.87" width="1" height="1"/></svg>