<svg width="257" height="256" viewBox="0 0 257 256" fill="none" xmlns="http://www.w3.org/2000/svg">
<g clip-path="url(#clip0)">
<path d="M243.942 162.176H140.552C135.492 162.176 131.391 166.278 131.391 171.338V171.359C131.391 176.419 135.492 180.521 140.552 180.521H243.942C249.002 180.521 253.104 176.419 253.104 171.359V171.338C253.104 166.278 249.002 162.176 243.942 162.176Z" stroke="white" stroke-width="2" stroke-miterlimit="10"/>
<path d="M238.866 148.381C248.881 148.381 257 140.262 257 130.247C257 120.232 248.881 112.114 238.866 112.114C228.851 112.114 220.732 120.232 220.732 130.247C220.732 140.262 228.851 148.381 238.866 148.381Z" stroke="white" stroke-width="2" stroke-miterlimit="10"/>
<path d="M181.094 150.192H204.157C206.872 150.328 209.54 149.442 211.633 147.707C213.509 145.753 214.857 143.354 215.551 140.736V108.786C215.551 108.786 214.35 100.74 206.831 100.804C204.7 100.802 202.622 101.473 200.894 102.721C199.166 103.969 197.875 105.73 197.206 107.754C197.206 108.196 197.649 121.949 197.059 121.802C196.469 121.654 184.422 121.949 184.422 121.949L178.799 110.408L174.376 105.669L168.753 103.563L145.985 103.857C143.884 104.127 141.939 105.111 140.478 106.645C139.016 108.179 138.128 110.17 137.961 112.282C137.245 119.611 145.522 122.265 145.522 122.265L161.36 122.139L169.49 142.063C170.207 144.361 171.566 146.407 173.407 147.96C175.613 149.614 178.346 150.408 181.094 150.192V150.192Z" stroke="white" stroke-width="2" stroke-miterlimit="10"/>
<path d="M113.551 64.7046C127.276 64.7046 138.403 53.5779 138.403 39.8523C138.403 26.1268 127.276 15 113.551 15C99.825 15 88.6982 26.1268 88.6982 39.8523C88.6982 53.5779 99.825 64.7046 113.551 64.7046Z" stroke="white" stroke-width="2" stroke-miterlimit="10"/>
<path d="M97.1658 86.6083C97.1658 86.6083 100.241 82.712 97.1658 72.7079C95.9192 69.5725 93.8887 66.8096 91.2686 64.6835C86.4401 61.0805 80.3878 59.5221 74.4196 60.3449C71.5974 60.6397 64.8789 64.6835 64.8789 64.6835C64.8789 64.6835 35.8143 94.1693 28.2744 108.554C21.3031 121.886 1 162.176 1 162.176H22.8616L37.9415 236.775C38.7175 238.229 39.8524 239.461 41.2384 240.353C42.6244 241.245 44.2155 241.768 45.8605 241.872C47.5607 241.826 49.2263 241.381 50.7226 240.572C52.219 239.763 53.5042 238.614 54.4746 237.217L68.6278 162.176H89.689L68.8384 117.21L83.5813 103.689L116.626 136.292C118.778 137.814 121.415 138.49 124.034 138.191C126.652 137.891 129.069 136.638 130.822 134.67C136.213 129.3 131.559 122.033 131.559 122.033L97.1658 86.6083Z" stroke="white" stroke-width="2" stroke-miterlimit="10"/>
</g>
<defs>
<clipPath id="clip0">
<rect width="257" height="256" fill="white"/>
</clipPath>
</defs>
</svg>
