<svg id="Layer_1" data-name="Layer 1" xmlns="http://www.w3.org/2000/svg" viewBox="0 0 257 256"><defs><style>.cls-1{fill:none;stroke:#fff;stroke-miterlimit:10;stroke-width:2px;}</style></defs><rect class="cls-1" x="137.61" y="117.52" width="57.79" height="8.71" rx="4.35"/><circle class="cls-1" cx="188.64" cy="102.36" r="8.61"/><path class="cls-1" d="M161.21,111.83h10.95a5.16,5.16,0,0,0,3.55-1.18,7.58,7.58,0,0,0,1.86-3.31V92.17s-.57-3.82-4.14-3.79a4.81,4.81,0,0,0-4.57,3.3c0,.21.21,6.74-.07,6.67s-6,.07-6,.07l-2.67-5.48-2.1-2.25-2.67-1-10.81.14a4.38,4.38,0,0,0-3.81,4c-.34,3.48,3.59,4.74,3.59,4.74l7.52-.06,3.86,9.46a6,6,0,0,0,1.86,2.8A5.38,5.38,0,0,0,161.21,111.83Z"/><circle class="cls-1" cx="129.14" cy="59.44" r="11.8"/><path class="cls-1" d="M121.36,81.64s1.46-1.85,0-6.6a9.36,9.36,0,0,0-2.8-3.81,10.89,10.89,0,0,0-8-2.06c-1.34.14-4.53,2.06-4.53,2.06s-13.8,14-17.38,20.83c-3.31,6.33-12.95,25.46-12.95,25.46H86.08l7.16,35.42A4.59,4.59,0,0,0,97,155.36a5.15,5.15,0,0,0,4.09-2.21l6.72-35.63h10l-9.9-21.35,7-6.42,15.69,15.48a5.09,5.09,0,0,0,6.74-.77c2.56-2.55.35-6,.35-6Z"/></svg>