<svg width="256" height="256" viewBox="0 0 256 256" fill="none" xmlns="http://www.w3.org/2000/svg">
<g clip-path="url(#clip0)">
<path d="M237.965 27H17.8383C13.0207 27 9.11523 30.9054 9.11523 35.7231V52.4931C9.11523 57.3107 13.0207 61.2162 17.8383 61.2162H237.965C242.782 61.2162 246.688 57.3107 246.688 52.4931V35.7231C246.688 30.9054 242.782 27 237.965 27Z" stroke="white" stroke-width="2" stroke-miterlimit="10"/>
<path d="M242.152 114.056H13.5207C12.364 114.056 11.2546 113.597 10.4366 112.779C9.61869 111.961 9.15918 110.851 9.15918 109.695V84.3105C9.15918 83.1538 9.61869 82.0444 10.4366 81.2265C11.2546 80.4085 12.364 79.949 13.5207 79.949H242.152C242.734 79.9344 243.313 80.0365 243.855 80.2492C244.397 80.4618 244.89 80.7808 245.307 81.1873C245.724 81.5937 246.055 82.0795 246.281 82.6159C246.507 83.1523 246.623 83.7285 246.623 84.3105V109.607C246.635 110.197 246.527 110.782 246.306 111.329C246.086 111.876 245.756 112.372 245.339 112.788C244.921 113.203 244.423 113.53 243.875 113.748C243.328 113.966 242.741 114.071 242.152 114.056Z" stroke="white" stroke-width="2" stroke-miterlimit="10"/>
<path d="M247.059 141.032H8.94115C4.0031 141.032 0 145.03 0 149.962C0 154.894 4.0031 158.893 8.94115 158.893H247.059C251.997 158.893 256 154.894 256 149.962C256 145.03 251.997 141.032 247.059 141.032Z" stroke="white" stroke-width="2" stroke-miterlimit="10"/>
<path d="M9.0508 158.914V226.344C9.03294 226.641 9.07612 226.939 9.17769 227.218C9.27925 227.498 9.43706 227.754 9.64137 227.971C9.84568 228.188 10.0922 228.36 10.3657 228.478C10.6392 228.595 10.9338 228.656 11.2316 228.655H33.0392C33.337 228.656 33.6316 228.595 33.9051 228.478C34.1786 228.36 34.4251 228.188 34.6294 227.971C34.8337 227.754 34.9915 227.498 35.0931 227.218C35.1947 226.939 35.2378 226.641 35.22 226.344V158.914" stroke="white" stroke-width="2" stroke-miterlimit="10"/>
<path d="M220.323 158.936V226.366C220.305 226.663 220.349 226.96 220.45 227.24C220.552 227.52 220.71 227.776 220.914 227.993C221.118 228.209 221.365 228.382 221.638 228.5C221.912 228.617 222.206 228.678 222.504 228.677H244.312C244.609 228.678 244.904 228.617 245.178 228.5C245.451 228.382 245.698 228.209 245.902 227.993C246.106 227.776 246.264 227.52 246.366 227.24C246.467 226.96 246.51 226.663 246.492 226.366V158.936" stroke="white" stroke-width="2" stroke-miterlimit="10"/>
<path d="M211.359 141.032V114.056" stroke="white" stroke-width="2" stroke-miterlimit="10"/>
<path d="M228.631 114.056V141.032" stroke="white" stroke-width="2" stroke-miterlimit="10"/>
<path d="M26.7588 141.272V114.296" stroke="white" stroke-width="2" stroke-miterlimit="10"/>
<path d="M44.0303 114.296V141.272" stroke="white" stroke-width="2" stroke-miterlimit="10"/>
<path d="M211.643 79.8617V61.4561" stroke="white" stroke-width="2" stroke-miterlimit="10"/>
<path d="M228.914 61.4561V79.8617" stroke="white" stroke-width="2" stroke-miterlimit="10"/>
<path d="M26.7588 79.8617V61.4561" stroke="white" stroke-width="2" stroke-miterlimit="10"/>
<path d="M44.0303 61.4561V79.8617" stroke="white" stroke-width="2" stroke-miterlimit="10"/>
</g>
<defs>
<clipPath id="clip0">
<rect width="256" height="256" fill="white"/>
</clipPath>
</defs>
</svg>
