<svg id="Layer_1" data-name="Layer 1" xmlns="http://www.w3.org/2000/svg" viewBox="0 0 256 256"><defs><style>.cls-1{fill:none;stroke:#fff;stroke-miterlimit:10;stroke-width:2px;}</style></defs><rect class="cls-1" x="73.56" y="64.41" width="108.94" height="15.69" rx="4"/><path class="cls-1" d="M180.42,104.33H75.58a2,2,0,0,1-2-2V90.69a2,2,0,0,1,2-2H180.42a2,2,0,0,1,2.05,2v11.6A2,2,0,0,1,180.42,104.33Z"/><rect class="cls-1" x="69.38" y="116.7" width="117.39" height="8.19" rx="4.1"/><path class="cls-1" d="M73.53,124.9v30.92a1,1,0,0,0,1,1.06h10a1,1,0,0,0,1-1.06V124.9"/><path class="cls-1" d="M170.41,124.91v30.92a1,1,0,0,0,1,1.06h10a1,1,0,0,0,1-1.06V124.91"/><line class="cls-1" x1="166.3" y1="116.7" x2="166.3" y2="104.33"/><line class="cls-1" x1="174.22" y1="104.33" x2="174.22" y2="116.7"/><line class="cls-1" x1="81.65" y1="116.81" x2="81.65" y2="104.44"/><line class="cls-1" x1="89.57" y1="104.44" x2="89.57" y2="116.81"/><line class="cls-1" x1="166.43" y1="88.65" x2="166.43" y2="80.21"/><line class="cls-1" x1="174.35" y1="80.21" x2="174.35" y2="88.65"/><line class="cls-1" x1="81.65" y1="88.65" x2="81.65" y2="80.21"/><line class="cls-1" x1="89.57" y1="80.21" x2="89.57" y2="88.65"/></svg>