<svg width="256" height="256" viewBox="0 0 256 256" fill="none" xmlns="http://www.w3.org/2000/svg">
<g clip-path="url(#clip0)">
<path d="M17.6507 114.073C24.6699 114.073 30.36 108.383 30.36 101.363C30.36 94.3443 24.6699 88.6541 17.6507 88.6541C10.6316 88.6541 4.94141 94.3443 4.94141 101.363C4.94141 108.383 10.6316 114.073 17.6507 114.073Z" stroke="white" stroke-width="2" stroke-miterlimit="10"/>
<path d="M35.2791 61.2434C39.9109 61.2434 43.6657 57.4886 43.6657 52.8569C43.6657 48.2251 39.9109 44.4703 35.2791 44.4703C30.6474 44.4703 26.8926 48.2251 26.8926 52.8569C26.8926 57.4886 30.6474 61.2434 35.2791 61.2434Z" stroke="white" stroke-width="2" stroke-miterlimit="10"/>
<path d="M97.0134 52.2593C103.989 52.2593 109.643 46.6048 109.643 39.6296C109.643 32.6545 103.989 27 97.0134 27C90.0383 27 84.3838 32.6545 84.3838 39.6296C84.3838 46.6048 90.0383 52.2593 97.0134 52.2593Z" stroke="white" stroke-width="2" stroke-miterlimit="10"/>
<path d="M194.008 69.9089C200.983 69.9089 206.637 64.2544 206.637 57.2793C206.637 50.3041 200.983 44.6496 194.008 44.6496C187.032 44.6496 181.378 50.3041 181.378 57.2793C181.378 64.2544 187.032 69.9089 194.008 69.9089Z" stroke="white" stroke-width="2" stroke-miterlimit="10"/>
<path d="M216.058 100.925C220.69 100.925 224.445 97.1703 224.445 92.5386C224.445 87.9068 220.69 84.152 216.058 84.152C211.427 84.152 207.672 87.9068 207.672 92.5386C207.672 97.1703 211.427 100.925 216.058 100.925Z" stroke="white" stroke-width="2" stroke-miterlimit="10"/>
<path d="M66.1378 228.217C82.8936 228.217 96.4768 214.634 96.4768 197.878C96.4768 181.123 82.8936 167.539 66.1378 167.539C49.382 167.539 35.7988 181.123 35.7988 197.878C35.7988 214.634 49.382 228.217 66.1378 228.217Z" stroke="white" stroke-width="2" stroke-miterlimit="10"/>
<path d="M65.8576 212.381C73.8669 212.381 80.3598 205.888 80.3598 197.878C80.3598 189.869 73.8669 183.376 65.8576 183.376C57.8483 183.376 51.3555 189.869 51.3555 197.878C51.3555 205.888 57.8483 212.381 65.8576 212.381Z" stroke="white" stroke-width="2" stroke-miterlimit="10"/>
<path d="M198.788 228.217C215.544 228.217 229.127 214.634 229.127 197.878C229.127 181.123 215.544 167.539 198.788 167.539C182.032 167.539 168.449 181.123 168.449 197.878C168.449 214.634 182.032 228.217 198.788 228.217Z" stroke="white" stroke-width="2" stroke-miterlimit="10"/>
<path d="M198.508 212.381C206.517 212.381 213.01 205.888 213.01 197.878C213.01 189.869 206.517 183.376 198.508 183.376C190.499 183.376 184.006 189.869 184.006 197.878C184.006 205.888 190.499 212.381 198.508 212.381Z" stroke="white" stroke-width="2" stroke-miterlimit="10"/>
<path d="M36.853 190.01H0V207.082H37.2315" stroke="white" stroke-width="2" stroke-miterlimit="10"/>
<path d="M95.4395 190.01H169.883" stroke="white" stroke-width="2" stroke-miterlimit="10"/>
<path d="M95.0625 207.082H169.884" stroke="white" stroke-width="2" stroke-miterlimit="10"/>
<path d="M228.091 190.01H256V207.082H227.713" stroke="white" stroke-width="2" stroke-miterlimit="10"/>
<path d="M92.8701 163.097H110.081" stroke="white" stroke-width="2" stroke-miterlimit="10"/>
<path d="M118.786 163.097H135.997" stroke="white" stroke-width="2" stroke-miterlimit="10"/>
<path d="M8.82617 190.01V143.336C8.98939 142.761 9.24505 142.216 9.58315 141.722C10.1895 141.353 10.8696 141.122 11.5752 141.045H26.5355L56.6554 92.5386H164.625L207.673 131.762L243.669 136.005C244.399 136.246 245.075 136.624 245.662 137.121C246.255 137.774 246.631 138.595 246.737 139.471V190.03" stroke="white" stroke-width="2" stroke-miterlimit="10"/>
<path d="M26.5359 141.045V156.185C26.5359 156.185 26.5359 157.34 26.277 157.659C26.018 157.978 24.4443 157.958 24.4443 157.958H8.90625" stroke="white" stroke-width="2" stroke-miterlimit="10"/>
<path d="M220.461 133.276V150.667C220.453 151.368 220.639 152.057 220.999 152.659C221.703 153.168 222.514 153.508 223.37 153.655H246.856" stroke="white" stroke-width="2" stroke-miterlimit="10"/>
<path d="M154.285 110.188H65.8579L44.543 145.467H192.672L154.285 110.188Z" stroke="white" stroke-width="2" stroke-miterlimit="10"/>
<path d="M114.484 110.188V145.448" stroke="white" stroke-width="2" stroke-miterlimit="10"/>
<path d="M55.7777 92.5386C55.7777 92.5386 49.8015 90.7457 49.0047 86.5624C48.4868 84.0723 47.7298 80.0683 52.0326 76.8213C52.9637 76.0083 54.0712 75.4231 55.2674 75.1119C56.4637 74.8008 57.7159 74.7722 58.9251 75.0284C58.9251 75.0284 61.4949 76.7017 62.212 76.2236C65.0208 74.3511 64.8017 71.3033 66.0766 69.9885C67.2228 68.6456 68.6649 67.5868 70.2894 66.8955C71.914 66.2042 73.6768 65.8992 75.4393 66.0044C77.5356 66.0623 79.5798 66.6708 81.3666 67.7688C83.1534 68.8667 84.6198 70.4154 85.6187 72.2594C85.6187 72.2594 87.7302 77.0205 88.1884 76.5025C90.1006 75.6295 92.1639 75.1357 94.2642 75.0483C95.5407 75.1918 96.7595 75.6586 97.8052 76.4046C98.851 77.1506 99.6891 78.151 100.24 79.3113C100.894 80.6904 101.233 82.1975 101.233 83.7237C101.233 85.2499 100.894 86.7571 100.24 88.1361C99.3523 89.7634 98.2241 91.2476 96.8937 92.5386" stroke="white" stroke-width="2" stroke-miterlimit="10"/>
<path d="M126.298 92.5386C126.298 92.5386 120.321 90.7457 119.505 86.5624C119.007 84.0724 118.23 80.0683 122.553 76.8213C123.481 76.0113 124.586 75.4279 125.778 75.1168C126.971 74.8057 128.219 74.7754 129.425 75.0284C129.425 75.0284 131.995 76.7018 132.732 76.2237C135.521 74.3511 135.302 71.3033 136.577 69.9885C137.726 68.644 139.171 67.5844 140.799 66.8931C142.427 66.2018 144.194 65.8976 145.959 66.0044C148.052 66.0658 150.092 66.6759 151.875 67.7737C153.658 68.8715 155.122 70.4183 156.119 72.2595C156.119 72.2595 158.25 77.0006 158.708 76.5026C160.638 75.5865 162.73 75.065 164.864 74.9687C166.139 75.1158 167.356 75.584 168.402 76.3296C169.447 77.0751 170.286 78.0736 170.84 79.2317C171.494 80.6107 171.833 82.1178 171.833 83.6441C171.833 85.1703 171.494 86.6774 170.84 88.0565C169.948 89.6863 168.812 91.1708 167.473 92.4589" stroke="white" stroke-width="2" stroke-miterlimit="10"/>
</g>
<defs>
<clipPath id="clip0">
<rect width="256" height="256" fill="white"/>
</clipPath>
</defs>
</svg>
