<svg id="Layer_1" data-name="Layer 1" xmlns="http://www.w3.org/2000/svg" viewBox="0 0 256 256"><defs><style>.cls-1{fill:none;stroke:#fff;stroke-miterlimit:10;stroke-width:2px;}</style></defs><circle class="cls-1" cx="74.54" cy="93.61" r="6.38"/><circle class="cls-1" cx="83.39" cy="69.26" r="4.21"/><circle class="cls-1" cx="114.38" cy="62.62" r="6.34"/><circle class="cls-1" cx="163.07" cy="71.48" r="6.34"/><circle class="cls-1" cx="174.14" cy="89.18" r="4.21"/><circle class="cls-1" cx="98.88" cy="142.06" r="15.23"/><circle class="cls-1" cx="98.74" cy="142.06" r="7.28"/><circle class="cls-1" cx="165.47" cy="142.06" r="15.23"/><circle class="cls-1" cx="165.33" cy="142.06" r="7.28"/><polyline class="cls-1" points="84.18 138.11 65.68 138.11 65.68 146.68 84.37 146.68"/><line class="cls-1" x1="113.59" y1="138.11" x2="150.96" y2="138.11"/><line class="cls-1" x1="113.4" y1="146.68" x2="150.96" y2="146.68"/><polyline class="cls-1" points="180.18 138.11 194.19 138.11 194.19 146.68 179.99 146.68"/><line class="cls-1" x1="112.3" y1="124.6" x2="120.94" y2="124.6"/><line class="cls-1" x1="125.31" y1="124.6" x2="133.95" y2="124.6"/><path class="cls-1" d="M70.11,138.11V114.68a2.77,2.77,0,0,1,.38-.81,2.43,2.43,0,0,1,1-.34H79L94.12,89.18h54.2l21.61,19.69L188,111a3,3,0,0,1,1,.56,2.14,2.14,0,0,1,.54,1.18v25.38"/><path class="cls-1" d="M79,113.53v7.6s0,.58-.13.74-.92.15-.92.15h-7.8"/><path class="cls-1" d="M176.35,109.63v8.73a1.9,1.9,0,0,0,.27,1,2.85,2.85,0,0,0,1.19.5H189.6"/><polygon class="cls-1" points="143.13 98.04 98.74 98.04 88.04 115.75 162.4 115.75 143.13 98.04"/><line class="cls-1" x1="123.15" y1="98.04" x2="123.15" y2="115.74"/><path class="cls-1" d="M93.68,89.18s-3-.9-3.4-3c-.26-1.25-.64-3.26,1.52-4.89a4,4,0,0,1,3.46-.9s1.29.84,1.65.6c1.41-.94,1.3-2.47,1.94-3.13a5.73,5.73,0,0,1,4.7-2A6,6,0,0,1,108.66,79s1.06,2.39,1.29,2.13A8.16,8.16,0,0,1,113,80.4a3.79,3.79,0,0,1,3,2.14,5.17,5.17,0,0,1,0,4.43,9.26,9.26,0,0,1-1.68,2.21"/><path class="cls-1" d="M129.08,89.18s-3-.9-3.41-3c-.25-1.25-.64-3.26,1.53-4.89a4,4,0,0,1,3.45-.9s1.29.84,1.66.6c1.4-.94,1.29-2.47,1.93-3.13a5.74,5.74,0,0,1,4.71-2,6,6,0,0,1,5.1,3.14s1.07,2.38,1.3,2.13a8.05,8.05,0,0,1,3.09-.77,3.81,3.81,0,0,1,3,2.14,5.17,5.17,0,0,1,0,4.43,9.19,9.19,0,0,1-1.69,2.21"/></svg>