<svg width="256" height="256" viewBox="0 0 256 256" fill="none" xmlns="http://www.w3.org/2000/svg">
<g clip-path="url(#clip0)">
<path d="M0 227.866H256" stroke="white" stroke-width="2" stroke-miterlimit="10"/>
<path d="M17.2168 123.821V227.866" stroke="white" stroke-width="2" stroke-miterlimit="10"/>
<path d="M32.9385 123.821V227.866" stroke="white" stroke-width="2" stroke-miterlimit="10"/>
<path d="M222.689 123.821V227.866" stroke="white" stroke-width="2" stroke-miterlimit="10"/>
<path d="M237.288 123.821V227.866" stroke="white" stroke-width="2" stroke-miterlimit="10"/>
<path d="M164.665 109.683H201.538C201.538 109.683 201.538 101.284 208.134 98.4259C211.458 97.0298 215.172 96.8737 218.6 97.9861C225.394 100.185 225.746 109.442 225.746 109.442H252.131C254.946 109.442 255.979 110.673 255.979 111.882V121.623C255.979 122.206 255.747 122.765 255.335 123.177C254.923 123.59 254.363 123.821 253.78 123.821H168.227" stroke="white" stroke-width="2" stroke-miterlimit="10"/>
<path d="M87.2023 123.821H2.19875C1.6156 123.821 1.05636 123.59 0.644013 123.177C0.231668 122.765 0 122.206 0 121.623V111.882C0 111.299 0.231668 110.74 0.644013 110.327C1.05636 109.915 1.6156 109.683 2.19875 109.683H90.9401" stroke="white" stroke-width="2" stroke-miterlimit="10"/>
<path d="M95.7986 90.3344H82.3863C80.6368 90.3344 78.9591 89.6395 77.722 88.4024C76.485 87.1654 75.79 85.4876 75.79 83.7382V34.5962C75.79 32.8468 76.485 31.169 77.722 29.932C78.9591 28.695 80.6368 28 82.3863 28H173.986C175.735 28 177.413 28.695 178.65 29.932C179.887 31.169 180.582 32.8468 180.582 34.5962V83.7382C180.582 85.4876 179.887 87.1654 178.65 88.4024C177.413 89.6395 175.735 90.3344 173.986 90.3344H158.595" stroke="white" stroke-width="2" stroke-miterlimit="10"/>
<path d="M85.005 148.249C85.005 148.249 127.441 168.522 170.756 148.249C175.264 146.051 174.208 143.038 174.208 143.038C174.208 143.038 157.102 82.8367 153.144 68.281C152.441 65.6865 139.402 62.8501 126.759 62.9601C114.116 63.07 102.199 66.0163 101.21 69.3364C96.3945 85.5632 82.4105 142.665 82.4105 142.665C82.4105 142.665 82.3225 147.15 85.005 148.249Z" stroke="white" stroke-width="2" stroke-miterlimit="10"/>
<path d="M85.4658 227.866L118.447 173.227H139.929L170.579 227.866" stroke="white" stroke-width="2" stroke-miterlimit="10"/>
<path d="M170.58 226.415L152.704 157.242L139.226 173.821" stroke="white" stroke-width="2" stroke-miterlimit="10"/>
<path d="M85.8838 227.184C85.8838 227.184 101.803 157.088 102.594 155.725L118.359 173.315" stroke="white" stroke-width="2" stroke-miterlimit="10"/>
<path d="M52.1981 62.7402C58.1119 62.7402 62.906 57.9461 62.906 52.0323C62.906 46.1185 58.1119 41.3244 52.1981 41.3244C46.2843 41.3244 41.4902 46.1185 41.4902 52.0323C41.4902 57.9461 46.2843 62.7402 52.1981 62.7402Z" stroke="white" stroke-width="2" stroke-miterlimit="10"/>
<path d="M28.4287 94.9958V38.3121C28.4287 38.3121 29.9458 28 39.6643 28C49.3828 28 50.4821 32.5954 52.1972 41.3904" stroke="white" stroke-width="2" stroke-miterlimit="10"/>
<path d="M8.70703 109.683C8.70703 109.683 8.70702 94.9958 17.2162 94.9958H38.632C38.632 94.9958 49.12 94.9958 47.5809 109.683" stroke="white" stroke-width="2" stroke-miterlimit="10"/>
</g>
<defs>
<clipPath id="clip0">
<rect width="256" height="256" fill="white"/>
</clipPath>
</defs>
</svg>
