<svg id="Layer_1" data-name="Layer 1" xmlns="http://www.w3.org/2000/svg" viewBox="0 0 256 256"><defs><style>.cls-1{fill:none;stroke:#fff;stroke-miterlimit:10;stroke-width:2px;}</style></defs><line class="cls-1" x1="65.34" y1="167.81" x2="181.77" y2="167.81"/><line class="cls-1" x1="73.17" y1="120.49" x2="73.17" y2="167.81"/><line class="cls-1" x1="80.32" y1="120.49" x2="80.32" y2="167.81"/><line class="cls-1" x1="166.62" y1="120.49" x2="166.62" y2="167.81"/><line class="cls-1" x1="173.26" y1="120.49" x2="173.26" y2="167.81"/><path class="cls-1" d="M140.23,114.06H157s0-3.82,3-5.12a6.84,6.84,0,0,1,4.76-.2c3.09,1,3.25,5.21,3.25,5.21h12c1.28,0,1.75.56,1.75,1.11v4.43a1,1,0,0,1-1,1H141.85"/><path class="cls-1" d="M105,120.49H66.34a1,1,0,0,1-1-1v-4.43a1,1,0,0,1,1-1H106.7"/><path class="cls-1" d="M108.91,105.26h-6.1a3,3,0,0,1-3-3V79.91a3,3,0,0,1,3-3h41.66a3,3,0,0,1,3,3v22.35a3,3,0,0,1-3,3h-7"/><path class="cls-1" d="M104,131.6s19.3,9.22,39,0c2.05-1,1.57-2.37,1.57-2.37s-7.78-27.38-9.58-34c-.32-1.18-6.25-2.47-12-2.42s-11.17,1.39-11.62,2.9c-2.19,7.38-8.55,33.35-8.55,33.35S102.78,131.1,104,131.6Z"/><polyline class="cls-1" points="104.21 167.81 119.21 142.96 128.98 142.96 142.92 167.81"/><polyline class="cls-1" points="142.92 167.15 134.79 135.69 128.66 143.23"/><path class="cls-1" d="M104.4,167.5S111.64,135.62,112,135l7.17,8"/><circle class="cls-1" cx="89.08" cy="87.84" r="4.87"/><path class="cls-1" d="M78.27,107.38V81.6s.69-4.69,5.11-4.69S88.3,79,89.08,83"/><path class="cls-1" d="M69.3,114.06s0-6.68,3.87-6.68h9.74s4.77,0,4.07,6.68"/></svg>