<svg width="256" height="256" viewBox="0 0 256 256" fill="none" xmlns="http://www.w3.org/2000/svg">
<g clip-path="url(#clip0)">
<path d="M31.609 0H15.5798C14.3651 0 13.2003 0.482507 12.3414 1.34138C11.4825 2.20025 11 3.36514 11 4.57977V236.293C11 237.508 11.4825 238.673 12.3414 239.532C13.2003 240.391 14.3651 240.873 15.5798 240.873H115.945C117.16 240.873 118.325 240.391 119.184 239.532C120.043 238.673 120.525 237.508 120.525 236.293V4.57977C120.525 3.36514 120.043 2.20025 119.184 1.34138C118.325 0.482507 117.16 0 115.945 0H51.1188" stroke="white" stroke-width="2" stroke-miterlimit="10" stroke-linecap="round"/>
<path d="M158.011 23.1737H222.952" stroke="white" stroke-width="2" stroke-miterlimit="10" stroke-linecap="round"/>
<path d="M158.011 36.5008H222.952" stroke="white" stroke-width="2" stroke-miterlimit="10" stroke-linecap="round"/>
<path d="M158.011 49.8509H222.952" stroke="white" stroke-width="2" stroke-miterlimit="10" stroke-linecap="round"/>
<path d="M33.6016 23.1737H98.5427" stroke="white" stroke-width="2" stroke-miterlimit="10" stroke-linecap="round"/>
<path d="M33.6016 36.5008H98.5427" stroke="white" stroke-width="2" stroke-miterlimit="10" stroke-linecap="round"/>
<path d="M33.6016 49.8509H98.5427" stroke="white" stroke-width="2" stroke-miterlimit="10" stroke-linecap="round"/>
<path d="M36.5772 124.318C41.8256 124.318 46.0803 120.063 46.0803 114.815C46.0803 109.567 41.8256 105.312 36.5772 105.312C31.3289 105.312 27.0742 109.567 27.0742 114.815C27.0742 120.063 31.3289 124.318 36.5772 124.318Z" stroke="white" stroke-width="2" stroke-miterlimit="10" stroke-linecap="round"/>
<path d="M21.6709 240.873V251.979C21.6709 251.979 21.8999 254.269 22.6326 254.864C24.144 256.055 36.6696 256.078 38.2726 255.07C38.9824 254.635 39.303 251.429 39.303 251.429V240.873" stroke="white" stroke-width="2" stroke-miterlimit="10" stroke-linecap="round"/>
<path d="M93.1143 240.873V251.979C93.1143 251.979 93.3432 254.269 94.076 254.864C95.6102 256.055 108.113 256.078 109.716 255.07C110.426 254.635 110.746 251.429 110.746 251.429V240.873" stroke="white" stroke-width="2" stroke-miterlimit="10" stroke-linecap="round"/>
<path d="M135.707 60.224V236.545C135.707 237.76 136.19 238.925 137.048 239.784C137.907 240.642 139.072 241.125 140.287 241.125H240.652C241.867 241.125 243.032 240.642 243.891 239.784C244.75 238.925 245.232 237.76 245.232 236.545V4.78592C245.232 3.57129 244.75 2.4064 243.891 1.54753C243.032 0.688653 241.867 0.206146 240.652 0.206146H175.894" stroke="white" stroke-width="2" stroke-miterlimit="10" stroke-linecap="round"/>
<path d="M175.894 0.206146H140.287C139.072 0.206146 137.907 0.688653 137.048 1.54753C136.19 2.4064 135.707 3.57129 135.707 4.78592V37.0275" stroke="white" stroke-width="2" stroke-miterlimit="10" stroke-linecap="round"/>
<path d="M217.891 241.102V252.208C217.891 252.208 218.12 254.498 218.852 255.07C220.364 256.261 232.889 256.284 234.492 255.276C235.202 254.841 235.523 251.636 235.523 251.636V241.102" stroke="white" stroke-width="2" stroke-miterlimit="10" stroke-linecap="round"/>
<path d="M145.897 241.102V252.208C145.897 252.208 146.126 254.498 146.859 255.07C148.393 256.261 160.896 256.284 162.499 255.276C163.209 254.841 163.53 251.636 163.53 251.636V241.102" stroke="white" stroke-width="2" stroke-miterlimit="10" stroke-linecap="round"/>
<path d="M161.033 124.318C166.282 124.318 170.536 120.063 170.536 114.815C170.536 109.567 166.282 105.312 161.033 105.312C155.785 105.312 151.53 109.567 151.53 114.815C151.53 120.063 155.785 124.318 161.033 124.318Z" stroke="white" stroke-width="2" stroke-miterlimit="10" stroke-linecap="round"/>
</g>
<defs>
<clipPath id="clip0">
<rect width="256" height="256" fill="white"/>
</clipPath>
</defs>
</svg>
