<svg id="Layer_1" data-name="Layer 1" xmlns="http://www.w3.org/2000/svg" viewBox="0 0 256 256"><defs><style>.cls-1{fill:none;stroke:#fff;stroke-linecap:round;stroke-miterlimit:10;stroke-width:2px;}</style></defs><path class="cls-1" d="M87.28,54.36h-7a2,2,0,0,0-2,2V157.55a2,2,0,0,0,2,2h43.83a2,2,0,0,0,2-2V56.36a2,2,0,0,0-2-2H95.8"/><line class="cls-1" x1="142.48" y1="64.48" x2="170.84" y2="64.48"/><line class="cls-1" x1="142.48" y1="70.3" x2="170.84" y2="70.3"/><line class="cls-1" x1="142.48" y1="76.13" x2="170.84" y2="76.13"/><line class="cls-1" x1="88.15" y1="64.48" x2="116.51" y2="64.48"/><line class="cls-1" x1="88.15" y1="70.3" x2="116.51" y2="70.3"/><line class="cls-1" x1="88.15" y1="76.13" x2="116.51" y2="76.13"/><circle class="cls-1" cx="89.45" cy="104.5" r="4.15"/><path class="cls-1" d="M82.94,159.55v4.85s.1,1,.42,1.26c.66.52,6.13.53,6.83.09.31-.19.45-1.59.45-1.59v-4.61"/><path class="cls-1" d="M114.14,159.55v4.85s.1,1,.42,1.26c.67.52,6.13.53,6.83.09.31-.19.45-1.59.45-1.59v-4.61"/><path class="cls-1" d="M132.74,80.66v77a2,2,0,0,0,2,2h43.83a2,2,0,0,0,2-2V56.45a2,2,0,0,0-2-2H150.29"/><path class="cls-1" d="M150.29,54.45H134.74a2,2,0,0,0-2,2V70.53"/><path class="cls-1" d="M168.63,159.65v4.85s.1,1,.42,1.25c.66.52,6.13.53,6.83.09.31-.19.45-1.59.45-1.59v-4.6"/><path class="cls-1" d="M137.19,159.65v4.85s.1,1,.42,1.25c.67.52,6.13.53,6.83.09.31-.19.45-1.59.45-1.59v-4.6"/><circle class="cls-1" cx="143.8" cy="104.5" r="4.15"/></svg>