<svg id="Layer_1" data-name="Layer 1" xmlns="http://www.w3.org/2000/svg" viewBox="0 0 256 256"><defs><style>.cls-1{fill:none;stroke:#fff;stroke-miterlimit:10;stroke-width:2px;}</style></defs><circle class="cls-1" cx="95.83" cy="141.96" r="13.76" transform="translate(-37.02 33.86) rotate(-16.85)"/><circle class="cls-1" cx="166.81" cy="141.96" r="13.76" transform="translate(-30.85 47.57) rotate(-14.87)"/><line class="cls-1" x1="109.59" y1="141.96" x2="153.05" y2="141.96"/><path class="cls-1" d="M82.07,142H72.91s-6.63-1-6.8-7.09,0-63.32,0-63.32,1.25-6.64,7.94-6.12,63.21,0,63.21,0,6.29-.31,6.63,6c.07,1.24.11,4.69.13,9.45.09,19.55-.13,61.13-.13,61.13"/><path class="cls-1" d="M144,80.83l29.41.08a6,6,0,0,1,5.49,3.58c1.91,3.83,10.76,33.19,10.76,33.19v18.55s1.11,4.15-4.94,5.73-4.17,0-4.17,0"/><polygon class="cls-1" points="154.19 91.04 170.28 91.04 176.91 110.28 154.19 110.28 154.19 91.04"/></svg>