<svg width="256" height="256" viewBox="0 0 256 256" fill="none" xmlns="http://www.w3.org/2000/svg">
<g clip-path="url(#clip0)">
<path d="M69.9464 216.577C84.9977 212.018 93.5037 196.121 88.9451 181.07C84.3865 166.019 68.4896 157.513 53.4383 162.071C38.387 166.63 29.881 182.527 34.4396 197.578C38.9982 212.629 54.8951 221.135 69.9464 216.577Z" stroke="white" stroke-width="2" stroke-miterlimit="10"/>
<path d="M215.843 216.889C231.043 212.853 240.093 197.259 236.057 182.059C232.021 166.86 216.428 157.809 201.228 161.845C186.028 165.881 176.978 181.475 181.014 196.674C185.049 211.874 200.643 220.924 215.843 216.889Z" stroke="white" stroke-width="2" stroke-miterlimit="10"/>
<path d="M90.1348 189.35H180.072" stroke="white" stroke-width="2" stroke-miterlimit="10"/>
<path d="M33.1844 189.433H14.2285C14.2285 189.433 0.508159 187.364 0.156357 174.761C-0.195446 162.158 0.156357 43.7249 0.156357 43.7249C0.156357 43.7249 2.74314 29.984 16.5876 31.0601C30.4321 32.1362 147.396 31.0601 147.396 31.0601C147.396 31.0601 160.413 30.4185 161.116 43.4766C161.261 46.0427 161.344 53.1822 161.385 63.0327C161.572 103.49 161.116 189.537 161.116 189.537" stroke="white" stroke-width="2" stroke-miterlimit="10"/>
<path d="M161.345 62.8465L222.207 63.012C224.615 63.0122 226.971 63.7126 228.988 65.028C231.005 66.3434 232.596 68.217 233.568 70.4206C237.52 78.3465 255.835 139.105 255.835 139.105V177.493C255.835 177.493 258.132 186.081 245.612 189.35C233.092 192.62 236.982 189.35 236.982 189.35" stroke="white" stroke-width="2" stroke-miterlimit="10"/>
<path d="M182.433 83.9753H215.73L229.45 123.791H182.433V83.9753Z" stroke="white" stroke-width="2" stroke-miterlimit="10"/>
</g>
<defs>
<clipPath id="clip0">
<rect width="256" height="256" fill="white"/>
</clipPath>
</defs>
</svg>
