<svg id="Layer_1" data-name="Layer 1" xmlns="http://www.w3.org/2000/svg" viewBox="0 0 256 256"><defs><style>.cls-1{fill:none;stroke:#fff;stroke-miterlimit:10;stroke-width:2px;}</style></defs><path class="cls-1" d="M120.25,81.55s.65,5.63,1,9.62c.32,3.28,2.75,2.93,2.75,2.93l21.8-.38c2.08.25,5.1,1.45,5.48,4.85.48,4.21-4.08,5.15-4.08,5.15s-16,.38-23.45.43c-.69,0-.86,1-.82,1.35.21,1.86.81,5.78,1,7.53.13,1,1.75.85,1.75.85s22-.16,26.05.05a5,5,0,0,1,4.84,3.66l12.3,36.51,9.1-4c7.88,1.53,4.12,8.14,3.73,8.49,0,0-7.07,4-13.27,6.76-5.3,2.37-7.35-2.9-7.35-2.9s-12.89-38.17-12.89-38.28-22.25-.42-27.62-.42-5.83-4.65-5.83-4.65l-4.34-36.69"/><path class="cls-1" d="M158.68,155.14A39.75,39.75,0,1,1,112,95.59"/><path class="cls-1" d="M113.81,106a29.71,29.71,0,1,0,40.47,36.06"/><path class="cls-1" d="M111.1,83a10,10,0,0,1-6.17-9,9.75,9.75,0,1,1,19.49,0c0,2.8-2.38,6.72-4.51,8.25"/></svg>