<svg width="256" height="256" viewBox="0 0 256 256" fill="none" xmlns="http://www.w3.org/2000/svg">
<g clip-path="url(#clip0)">
<path d="M94.6828 41.4779C94.6828 41.4779 96.2136 54.737 97.0379 64.1337C97.7915 71.8583 103.514 71.0341 103.514 71.0341L154.855 70.1391C159.753 70.7279 166.866 73.554 167.761 81.5612C168.891 91.4761 158.152 93.6899 158.152 93.6899C158.152 93.6899 120.471 94.5848 102.926 94.7025C101.301 94.7025 100.9 97.0576 100.994 97.8819C101.489 102.262 102.902 111.494 103.349 115.616C103.656 117.971 107.471 117.617 107.471 117.617C107.471 117.617 159.282 117.241 168.82 117.735C171.403 117.723 173.917 118.561 175.977 120.118C178.036 121.676 179.527 123.867 180.219 126.355L209.186 212.338L230.618 202.918C249.175 206.521 240.32 222.088 239.402 222.913C239.402 222.913 222.752 232.333 208.15 238.833C195.668 244.414 190.84 232.003 190.84 232.003C190.84 232.003 160.483 142.11 160.483 141.851C160.483 141.592 108.083 140.862 95.4364 140.862C82.7897 140.862 81.7064 129.911 81.7064 129.911L71.4854 43.5033" stroke="white" stroke-width="2" stroke-miterlimit="10"/>
<path d="M185.188 214.788C176.928 227.014 165.896 237.116 152.99 244.268C140.084 251.42 125.67 255.42 110.924 255.941C96.1783 256.463 81.5179 253.492 68.1388 247.27C54.7597 241.048 43.0408 231.752 33.938 220.139C24.8351 208.526 18.6062 194.927 15.7592 180.449C12.9121 165.971 13.5277 151.025 17.5557 136.831C21.5836 122.636 28.9098 109.594 38.9368 98.7697C48.9637 87.945 61.4074 79.6438 75.2529 74.5432" stroke="white" stroke-width="2" stroke-miterlimit="10"/>
<path d="M79.5138 99.0594C68.8524 103.831 59.5554 111.197 52.4705 120.483C45.3856 129.77 40.7383 140.682 38.9525 152.226C37.1667 163.769 38.2991 175.576 42.2465 186.569C46.1939 197.562 52.8307 207.393 61.5516 215.163C70.2725 222.934 80.8 228.397 92.1741 231.056C103.548 233.714 115.407 233.483 126.668 230.383C137.93 227.283 148.237 221.413 156.648 213.308C165.059 205.204 171.308 195.122 174.824 183.983" stroke="white" stroke-width="2" stroke-miterlimit="10"/>
<path d="M73.1324 44.8929C68.9177 43.1469 65.3008 40.2144 62.7212 36.4516C60.1417 32.6889 58.7105 28.258 58.6016 23.6972C58.5031 20.6215 59.0238 17.5573 60.1328 14.6868C61.2418 11.8163 62.9165 9.19801 65.0573 6.98747C67.1982 4.77693 69.7615 3.01927 72.5951 1.81891C75.4286 0.618557 78.4745 0 81.5518 0C84.6291 0 87.675 0.618557 90.5085 1.81891C93.342 3.01927 95.9054 4.77693 98.0462 6.98747C100.187 9.19801 101.862 11.8163 102.971 14.6868C104.08 17.5573 104.6 20.6215 104.502 23.6972C104.502 30.2914 98.8969 39.5233 93.8806 43.1266" stroke="white" stroke-width="2" stroke-miterlimit="10"/>
</g>
<defs>
<clipPath id="clip0">
<rect width="256" height="256" fill="white"/>
</clipPath>
</defs>
</svg>
