<svg width="256" height="256" viewBox="0 0 256 256" fill="none" xmlns="http://www.w3.org/2000/svg">
<g clip-path="url(#clip0)">
<path d="M256 0H0V256H256V0Z" stroke="white" stroke-width="2" stroke-miterlimit="10"/>
<path d="M156.773 70.6151L183.588 44.9716L209.612 70.6151" stroke="white" stroke-width="2" stroke-miterlimit="10"/>
<path d="M183.586 106.059V44.9716" stroke="white" stroke-width="2" stroke-miterlimit="10"/>
<path d="M210.86 185.439L184.046 211.083L158.049 185.439" stroke="white" stroke-width="2" stroke-miterlimit="10"/>
<path d="M184.049 149.996V211.083" stroke="white" stroke-width="2" stroke-miterlimit="10"/>
<path d="M82.8365 86.3769C95.6008 86.3769 105.948 76.0294 105.948 63.265C105.948 50.5007 95.6008 40.1531 82.8365 40.1531C70.0721 40.1531 59.7246 50.5007 59.7246 63.265C59.7246 76.0294 70.0721 86.3769 82.8365 86.3769Z" stroke="white" stroke-width="2" stroke-miterlimit="10"/>
<path d="M50.7954 99.607H115.068L121.165 159.905H106.901L100.476 215.684H64.5155L59.2615 160.068L44.5342 159.905L50.7954 99.607Z" stroke="white" stroke-width="2" stroke-miterlimit="10"/>
</g>
<defs>
<clipPath id="clip0">
<rect width="256" height="256" fill="white"/>
</clipPath>
</defs>
</svg>
