<svg width="256" height="256" viewBox="0 0 256 256" fill="none" xmlns="http://www.w3.org/2000/svg">
<g clip-path="url(#clip0)">
<path fill-rule="evenodd" clip-rule="evenodd" d="M161.566 45L68.2139 137.7C65.6716 139.224 63.0335 140.582 60.316 141.766C56.5041 142.514 52.6473 143.011 48.7703 143.255H32.506C32.506 143.255 1.11525 146.602 0.0443491 174.228C-1.44487 212.445 35.0662 210.12 35.0662 210.12H92.3259L185.243 116.416C188.047 114.651 190.971 113.085 193.995 111.731C196.816 111.173 199.673 110.815 202.545 110.66H227.326C227.326 110.66 254.902 107.296 255.973 77.6792C257.094 46.506 223.076 45 223.076 45H161.566Z" stroke="white" stroke-width="2" stroke-miterlimit="10"/>
</g>
<defs>
<clipPath id="clip0">
<rect width="256" height="256" fill="white"/>
</clipPath>
</defs>
</svg>
