<svg id="Layer_1" data-name="Layer 1" xmlns="http://www.w3.org/2000/svg" viewBox="0 0 256 256"><defs><style>.cls-1{fill:none;stroke:#fff;stroke-miterlimit:10;stroke-width:2px;}</style></defs><polyline class="cls-1" points="131.88 87.47 131.88 62.94 174.04 62.94 174.04 157.53 79.32 157.53"/><line class="cls-1" x1="162.72" y1="112.32" x2="155.83" y2="104.68"/><line class="cls-1" x1="140" y1="111.81" x2="162.17" y2="111.81"/><line class="cls-1" x1="155.91" y1="118.68" x2="162.91" y2="111.11"/><line class="cls-1" x1="131.89" y1="99.13" x2="131.89" y2="103.4"/><line class="cls-1" x1="131.89" y1="121.55" x2="131.89" y2="135.64"/><path class="cls-1" d="M109.53,100.26l-15.4,6.46-2,2.3-2.56,11.83s-.51,3.34,2.56,4.26a4.17,4.17,0,0,0,5.1-2.3l2.34-9.53,7.45-3-2.47,14.88-10,11-8.26-7.3a3.7,3.7,0,0,0-5.08.35c-2.66,2.62-.19,5.94-.19,5.94L92,144.68a4.09,4.09,0,0,0,2.87,1.15,5.16,5.16,0,0,0,2.92-1.15l11-11.4,10,6.38,6.47,12.72a4.2,4.2,0,0,0,5.07,1.24c3.47-1.4,2.25-4.94,2.25-4.94l-6.89-13.87-1.53-2-11.24-6.55,2.21-10,1.88,3.06a3.88,3.88,0,0,0,2.08,1.77,3.57,3.57,0,0,0,2.68-.07l12.17-6.13s2.5-2.27,1-5.1a3.91,3.91,0,0,0-4.63-2.05l-8.47,4.07L118,104.68s7.8,0,9-6.89c1.49-8.77-5.57-11.32-5.57-11.32s-6.54-3.38-11.66,3.66C106.66,94.43,109.53,100.26,109.53,100.26Z"/></svg>