<svg width="256" height="256" viewBox="0 0 256 256" fill="none" xmlns="http://www.w3.org/2000/svg">
<g clip-path="url(#clip0)">
<path d="M142.054 66.2973V0H256V255.649H0" stroke="white" stroke-width="2" stroke-miterlimit="10"/>
<path d="M225.405 133.459L206.783 112.811" stroke="white" stroke-width="2" stroke-miterlimit="10"/>
<path d="M163.999 132.081H223.918" stroke="white" stroke-width="2" stroke-miterlimit="10"/>
<path d="M207 150.649L225.919 130.189" stroke="white" stroke-width="2" stroke-miterlimit="10"/>
<path d="M142.079 97.8108V109.351" stroke="white" stroke-width="2" stroke-miterlimit="10"/>
<path d="M142.079 158.405V196.486" stroke="white" stroke-width="2" stroke-miterlimit="10"/>
<path d="M81.648 100.865L40.0263 118.324L34.6209 124.541L27.702 156.513C27.702 156.513 26.3236 165.541 34.6209 168.027C37.2803 168.884 40.1631 168.722 42.71 167.573C45.2569 166.425 47.2864 164.371 48.4047 161.811L54.7291 136.054L74.8642 127.946L68.1885 168.162L41.1615 197.892L18.8372 178.162C16.8626 176.532 14.338 175.722 11.7837 175.898C9.22932 176.074 6.83978 177.223 5.10743 179.108C-2.08176 186.189 4.59391 195.162 4.59391 195.162L34.2696 220.919C36.3489 222.93 39.1337 224.046 42.0264 224.027C44.9159 223.835 47.6741 222.749 49.9182 220.919L79.648 190.108L106.675 207.351L124.161 241.73C125.733 243.752 127.941 245.184 130.429 245.792C132.917 246.401 135.537 246.15 137.864 245.081C147.243 241.297 143.945 231.73 143.945 231.73L125.324 194.243L121.189 188.838L90.8101 171.135L96.7831 144.108L101.864 152.378C103.096 154.602 105.094 156.302 107.486 157.162C109.833 158.042 112.431 157.975 114.729 156.973L147.621 140.405C147.621 140.405 154.378 134.27 150.324 126.622C149.234 124.364 147.377 122.567 145.085 121.552C142.793 120.537 140.214 120.37 137.81 121.081L114.918 132.081L104.54 112.811C104.54 112.811 125.621 112.811 128.864 94.1892C132.891 70.4865 113.81 63.5946 113.81 63.5946C113.81 63.5946 96.1344 54.4594 82.2966 73.4865C73.8912 85.1081 81.648 100.865 81.648 100.865Z" stroke="white" stroke-width="2" stroke-miterlimit="10"/>
</g>
<defs>
<clipPath id="clip0">
<rect width="256" height="256" fill="white"/>
</clipPath>
</defs>
</svg>
