<svg id="Layer_1" data-name="Layer 1" xmlns="http://www.w3.org/2000/svg" viewBox="0 0 256 256"><defs><style>.cls-1{fill:none;stroke:#fff;stroke-miterlimit:10;stroke-width:2px;}</style></defs><path class="cls-1" d="M126.16,178.39a15,15,0,0,1-2.94-.78,9.09,9.09,0,0,1-6.17-8.49V120.63a10.56,10.56,0,0,1,7.16-10.5,11.39,11.39,0,0,1,13.18,3.76,9.56,9.56,0,0,1,2,6V144h0c0,7.81-.16,15.62,0,23.43a11.08,11.08,0,0,1-10.93,11.21A10.74,10.74,0,0,1,126.16,178.39Z"/><path class="cls-1" d="M127.88,104.89a12.06,12.06,0,1,1,.1,0Z"/></svg>