<svg width="256" height="256" viewBox="0 0 256 256" fill="none" xmlns="http://www.w3.org/2000/svg">
<g clip-path="url(#clip0)">
<path d="M122.915 255.346C120.289 254.928 117.712 254.245 115.224 253.306C110.569 251.727 106.516 248.744 103.626 244.767C100.736 240.79 99.1496 236.014 99.0855 231.098V104.262C98.8025 98.2717 100.477 92.3518 103.856 87.397C107.234 82.4421 112.134 78.7215 117.814 76.7972C123.849 74.4725 130.477 74.1748 136.696 75.949C142.916 77.7233 148.389 81.4732 152.289 86.6323C155.763 91.1187 157.608 96.6532 157.521 102.327V165.392C157.521 185.82 157.102 206.249 157.521 226.678C157.611 234.356 154.652 241.756 149.291 247.253C143.931 252.751 136.608 255.897 128.931 256C126.908 255.999 124.891 255.78 122.915 255.346Z" stroke="white" stroke-width="2" stroke-miterlimit="10"/>
<path d="M127.415 63.0908C119.06 63.0562 111.06 59.7084 105.17 53.7822C99.2807 47.8559 95.9827 39.8352 96.0001 31.4802C96.0174 23.1251 99.3486 15.1182 105.263 9.21638C111.177 3.31458 119.19 0 127.546 0C135.901 0 143.914 3.31458 149.829 9.21638C155.743 15.1182 159.074 23.1251 159.091 31.4802C159.108 39.8352 155.81 47.8559 149.921 53.7822C144.031 59.7084 136.031 63.0562 127.676 63.0908H127.415Z" stroke="white" stroke-width="2" stroke-miterlimit="10"/>
</g>
<defs>
<clipPath id="clip0">
<rect width="256" height="256" fill="white"/>
</clipPath>
</defs>
</svg>
