<svg width="256" height="256" viewBox="0 0 256 256" fill="none" xmlns="http://www.w3.org/2000/svg">
<g clip-path="url(#clip0)">
<path d="M53.8486 0L35.9863 62.2988V75.238" stroke="white" stroke-width="2" stroke-miterlimit="10"/>
<path d="M71.4011 0L61.8643 62.2988V75.2123" stroke="white" stroke-width="2" stroke-miterlimit="10"/>
<path d="M88.6191 0V62.0927V75.238" stroke="white" stroke-width="2" stroke-miterlimit="10"/>
<path d="M114.782 0V75.238" stroke="white" stroke-width="2" stroke-miterlimit="10"/>
<path d="M141.279 0V75.2123" stroke="white" stroke-width="2" stroke-miterlimit="10"/>
<path d="M167.774 0V75.2123" stroke="white" stroke-width="2" stroke-miterlimit="10"/>
<path d="M184.763 0L194.145 62.2988V75.238" stroke="white" stroke-width="2" stroke-miterlimit="10"/>
<path d="M203.087 0L220.459 62.2988V75.238" stroke="white" stroke-width="2" stroke-miterlimit="10"/>
<path d="M9.10352 75.2122C9.10352 78.7943 10.5265 82.2297 13.0594 84.7626C15.5923 87.2955 19.0277 88.7185 22.6098 88.7185C26.1918 88.7185 29.6272 87.2955 32.1601 84.7626C34.693 82.2297 36.116 78.7943 36.116 75.2122" stroke="white" stroke-width="2" stroke-miterlimit="10"/>
<path d="M154.605 141.223C154.76 138.001 154.373 123.593 154.605 122.974C155.095 121.737 155.353 114.262 163.395 114.236C170.38 114.236 172.184 122.226 172.184 122.226V141.223" stroke="white" stroke-width="2" stroke-miterlimit="10"/>
<path d="M169.142 99.6472L163.395 114.184" stroke="white" stroke-width="2" stroke-miterlimit="10"/>
<path d="M172.183 121.324C173.265 119.107 176.255 114.751 180.431 114.751C187.442 114.751 189.22 122.484 189.22 122.484V141.223" stroke="white" stroke-width="2" stroke-miterlimit="10"/>
<path d="M186.179 100.214L180.431 114.751" stroke="white" stroke-width="2" stroke-miterlimit="10"/>
<path d="M189.221 122.561C189.839 120.513 191.08 118.708 192.77 117.397C194.46 116.085 196.517 115.332 198.654 115.241C205.665 115.241 207.444 122.974 207.444 122.974V141.583" stroke="white" stroke-width="2" stroke-miterlimit="10"/>
<path d="M204.402 100.214L198.654 114.751" stroke="white" stroke-width="2" stroke-miterlimit="10"/>
<path d="M35.9863 74.4647C35.9863 77.8827 37.3441 81.1607 39.761 83.5776C42.1779 85.9945 45.456 87.3523 48.874 87.3523C52.292 87.3523 55.57 85.9945 57.9869 83.5776C60.4038 81.1607 61.7616 77.8827 61.7616 74.4647" stroke="white" stroke-width="2" stroke-miterlimit="10"/>
<path d="M61.8898 75.2122C61.8106 77.0166 62.0975 78.8184 62.7334 80.509C63.3693 82.1995 64.3409 83.7437 65.5897 85.0486C66.8386 86.3535 68.3387 87.392 69.9997 88.1014C71.6607 88.8109 73.4482 89.1767 75.2543 89.1767C77.0605 89.1767 78.8479 88.8109 80.5089 88.1014C82.1699 87.392 83.6701 86.3535 84.9189 85.0486C86.1677 83.7437 87.1393 82.1995 87.7752 80.509C88.4111 78.8184 88.6981 77.0166 88.6188 75.2122" stroke="white" stroke-width="2" stroke-miterlimit="10"/>
<path d="M88.6193 75.2122C88.5409 76.9789 88.8211 78.7431 89.4431 80.3985C90.0651 82.0539 91.016 83.5662 92.2384 84.8441C93.4608 86.122 94.9294 87.139 96.5556 87.8338C98.1818 88.5287 99.9319 88.8869 101.7 88.8869C103.469 88.8869 105.219 88.5287 106.845 87.8338C108.471 87.139 109.94 86.122 111.162 84.8441C112.385 83.5662 113.335 82.0539 113.957 80.3985C114.579 78.7431 114.86 76.9789 114.781 75.2122" stroke="white" stroke-width="2" stroke-miterlimit="10"/>
<path d="M114.782 75.2122C114.782 78.7259 116.178 82.0957 118.663 84.5803C121.147 87.0649 124.517 88.4607 128.031 88.4607C131.544 88.4607 134.914 87.0649 137.399 84.5803C139.883 82.0957 141.279 78.7259 141.279 75.2122" stroke="white" stroke-width="2" stroke-miterlimit="10"/>
<path d="M141.279 75.2122C141.279 78.7259 142.675 82.0957 145.16 84.5803C147.644 87.0649 151.014 88.4607 154.528 88.4607C158.042 88.4607 161.411 87.0649 163.896 84.5803C166.38 82.0957 167.776 78.7259 167.776 75.2122" stroke="white" stroke-width="2" stroke-miterlimit="10"/>
<path d="M167.775 74.4647C167.696 76.2451 167.979 78.023 168.606 79.6911C169.233 81.3593 170.191 82.8832 171.423 84.1709C172.655 85.4586 174.135 86.4834 175.774 87.1836C177.413 87.8837 179.177 88.2447 180.959 88.2447C182.741 88.2447 184.504 87.8837 186.143 87.1836C187.782 86.4834 189.262 85.4586 190.494 84.1709C191.726 82.8832 192.685 81.3593 193.312 79.6911C193.939 78.023 194.221 76.2451 194.143 74.4647" stroke="white" stroke-width="2" stroke-miterlimit="10"/>
<path d="M194.145 74.4647C194.066 76.2416 194.348 78.0161 194.974 79.6811C195.6 81.3461 196.556 82.8671 197.786 84.1523C199.015 85.4376 200.493 86.4605 202.128 87.1593C203.764 87.8581 205.524 88.2183 207.303 88.2183C209.082 88.2183 210.842 87.8581 212.478 87.1593C214.113 86.4605 215.591 85.4376 216.82 84.1523C218.05 82.8671 219.006 81.3461 219.632 79.6811C220.258 78.0161 220.54 76.2416 220.461 74.4647" stroke="white" stroke-width="2" stroke-miterlimit="10"/>
<path d="M220.461 74.4647C220.461 76.2214 220.807 77.9609 221.479 79.584C222.152 81.207 223.137 82.6817 224.379 83.9239C225.621 85.1661 227.096 86.1515 228.719 86.8237C230.342 87.496 232.082 87.842 233.838 87.842C235.595 87.842 237.335 87.496 238.958 86.8237C240.581 86.1515 242.055 85.1661 243.298 83.9239C244.54 82.6817 245.525 81.207 246.197 79.584C246.87 77.9609 247.216 76.2214 247.216 74.4647" stroke="white" stroke-width="2" stroke-miterlimit="10"/>
<path d="M204.197 155.992H158.368V163.621H204.197V155.992Z" fill="white"/>
<path d="M245.9 177.308H9.4375V256H245.9V177.308Z" stroke="white" stroke-width="2" stroke-miterlimit="10"/>
<path d="M141.279 177.231V141.171H219.92L220.461 177.231" stroke="white" stroke-width="2" stroke-miterlimit="10"/>
<path d="M18.4346 87.9709V177.308" stroke="white" stroke-width="2" stroke-miterlimit="10"/>
<path d="M237.781 87.9709V178.133" stroke="white" stroke-width="2" stroke-miterlimit="10"/>
<path d="M66.8721 148.45C70.9347 145.054 69.6904 136.873 64.0929 130.179C58.4955 123.484 50.6645 120.811 46.602 124.208C42.5394 127.604 43.7837 135.785 49.3812 142.48C54.9786 149.174 62.8096 151.847 66.8721 148.45Z" stroke="white" stroke-width="2" stroke-miterlimit="10"/>
<path d="M91.8995 148.454C95.962 145.058 94.7177 136.877 89.1203 130.183C83.5228 123.488 75.6919 120.815 71.6293 124.212C67.5668 127.608 68.8111 135.789 74.4085 142.484C80.0059 149.178 87.8369 151.851 91.8995 148.454Z" stroke="white" stroke-width="2" stroke-miterlimit="10"/>
<path d="M110.911 175.253C114.974 171.856 113.729 163.675 108.132 156.981C102.535 150.286 94.7036 147.613 90.641 151.01C86.5785 154.407 87.8228 162.587 93.4202 169.282C99.0177 175.976 106.849 178.65 110.911 175.253Z" stroke="white" stroke-width="2" stroke-miterlimit="10"/>
<path d="M85.6748 175.226C89.7374 171.83 88.4931 163.649 82.8957 156.955C77.2982 150.26 69.4673 147.587 65.4047 150.984C61.3422 154.38 62.5865 162.561 68.1839 169.256C73.7813 175.95 81.6123 178.623 85.6748 175.226Z" stroke="white" stroke-width="2" stroke-miterlimit="10"/>
<path d="M61.118 174.086C65.1647 170.684 66.505 162.513 60.9118 155.811C55.3186 149.11 44.9054 146.455 40.8329 149.857C36.7604 153.26 38.0234 161.43 43.6166 168.132C49.2098 174.834 57.0455 177.488 61.118 174.086Z" stroke="white" stroke-width="2" stroke-miterlimit="10"/>
<path d="M9 75.238V62.2988V53.0971L36.6311 0H220.46L247.215 53.5353V62.0927V75.2123" stroke="white" stroke-width="2" stroke-miterlimit="10"/>
<path d="M9.10352 62.2987L247.241 62.0925" stroke="white" stroke-width="2" stroke-miterlimit="10"/>
</g>
<defs>
<clipPath id="clip0">
<rect width="256" height="256" fill="white"/>
</clipPath>
</defs>
</svg>
