<svg id="Layer_1" data-name="Layer 1" xmlns="http://www.w3.org/2000/svg" viewBox="0 0 256 256"><defs><style>.cls-1{fill:none;stroke:#fff;stroke-miterlimit:10;stroke-width:2px;}.cls-2{fill:#fff;}</style></defs><polyline class="cls-1" points="104.36 59.21 97.43 83.38 97.43 88.4"/><polyline class="cls-1" points="111.17 59.21 107.47 83.38 107.47 88.39"/><polyline class="cls-1" points="117.85 59.21 117.85 83.3 117.85 88.4"/><line class="cls-1" x1="128" y1="59.21" x2="128" y2="88.4"/><line class="cls-1" x1="138.28" y1="59.21" x2="138.28" y2="88.39"/><line class="cls-1" x1="148.56" y1="59.21" x2="148.56" y2="88.39"/><polyline class="cls-1" points="155.15 59.21 158.79 83.38 158.79 88.4"/><polyline class="cls-1" points="162.26 59.21 169 83.38 169 88.4"/><path class="cls-1" d="M87,88.39a5.24,5.24,0,0,0,10.48,0"/><path class="cls-1" d="M143.45,114c.06-1.25-.09-6.84,0-7.08.19-.48.29-3.38,3.41-3.39,2.71,0,3.41,3.1,3.41,3.1V114"/><line class="cls-1" x1="149.09" y1="97.87" x2="146.86" y2="103.51"/><path class="cls-1" d="M150.27,106.28c.42-.86,1.58-2.55,3.2-2.55,2.72,0,3.41,3,3.41,3V114"/><line class="cls-1" x1="155.7" y1="98.09" x2="153.47" y2="103.73"/><path class="cls-1" d="M156.88,106.76a4,4,0,0,1,3.66-2.84c2.72,0,3.41,3,3.41,3v7.22"/><line class="cls-1" x1="162.77" y1="98.09" x2="160.54" y2="103.73"/><path class="cls-1" d="M97.43,88.1a5,5,0,1,0,10,0"/><path class="cls-1" d="M107.48,88.39a5.19,5.19,0,1,0,10.37,0"/><path class="cls-1" d="M117.85,88.39a5.08,5.08,0,1,0,10.15,0"/><path class="cls-1" d="M128,88.39a5.14,5.14,0,1,0,10.28,0"/><path class="cls-1" d="M138.28,88.39a5.14,5.14,0,1,0,10.28,0"/><path class="cls-1" d="M148.56,88.1a5.12,5.12,0,1,0,10.23,0"/><path class="cls-1" d="M158.79,88.1a5.11,5.11,0,1,0,10.21,0"/><path class="cls-1" d="M169,88.1a5.19,5.19,0,1,0,10.38,0"/><rect class="cls-2" x="144.91" y="119.73" width="17.78" height="2.96"/><rect class="cls-1" x="87.13" y="128" width="91.74" height="30.53"/><polyline class="cls-1" points="138.28 127.97 138.28 113.98 168.79 113.98 169 127.97"/><line class="cls-1" x1="90.62" y1="93.34" x2="90.62" y2="128"/><line class="cls-1" x1="175.72" y1="93.34" x2="175.72" y2="128.32"/><ellipse class="cls-1" cx="105.48" cy="112.09" rx="3.72" ry="6.13" transform="translate(-47.34 93.77) rotate(-39.9)"/><ellipse class="cls-1" cx="115.19" cy="112.09" rx="3.72" ry="6.13" transform="translate(-45.08 100) rotate(-39.9)"/><ellipse class="cls-1" cx="122.57" cy="122.48" rx="3.72" ry="6.13" transform="translate(-50.03 107.16) rotate(-39.9)"/><ellipse class="cls-1" cx="112.78" cy="122.48" rx="3.72" ry="6.13" transform="translate(-52.31 100.87) rotate(-39.9)"/><path class="cls-1" d="M107.18,126.75c1.57-1.32,2.09-4.49-.08-7.09s-6.21-3.63-7.79-2.31-1.09,4.49,1.08,7.09S105.6,128.07,107.18,126.75Z"/><polyline class="cls-1" points="86.96 88.4 86.96 83.38 86.96 79.81 97.68 59.21 169 59.21 179.38 79.98 179.38 83.3 179.38 88.39"/><path class="cls-1" d="M87,83.38l92.39-.08"/></svg>