<svg id="Layer_1" data-name="Layer 1" xmlns="http://www.w3.org/2000/svg" viewBox="0 0 256 256"><defs><style>.cls-1{fill:none;stroke:#fff;stroke-miterlimit:10;stroke-width:2px;}</style></defs><path class="cls-1" d="M130.7,95H117.22c-3.81,0-5.94,2.36-5.94,6v43.31c0,3.81,2.44,5.94,5.71,5.94s5.71-2.13,5.71-5.94v-13h8.46c10.43,0,19-6.93,19-18C150.2,102.32,141.9,95,130.7,95Zm-.23,26.21h-7.76V105.06h7.76c4.8,0,7.85,3.5,7.85,8.07S135.27,121.21,130.47,121.21Z"/><path class="cls-1" d="M163.58,171.05H93.79A13.56,13.56,0,0,1,80.24,157.5V87.71A13.55,13.55,0,0,1,93.79,74.16h69.79a13.57,13.57,0,0,1,13.55,13.55V157.5A13.57,13.57,0,0,1,163.58,171.05Z"/></svg>