<svg width="256" height="256" viewBox="0 0 256 256" fill="none" xmlns="http://www.w3.org/2000/svg">
<g clip-path="url(#clip0)">
<path d="M133.324 55.0627H97.7072C87.6405 55.0627 82.0127 61.2983 82.0127 70.9158V185.348C82.0127 195.415 88.4596 201.043 97.0995 201.043C105.739 201.043 112.186 195.415 112.186 185.348V151H134.539C162.097 151 184.74 132.69 184.74 103.441C184.846 74.4034 162.916 55.0627 133.324 55.0627ZM132.716 124.314H112.213V81.643H132.716C145.398 81.643 153.457 90.8906 153.457 102.965C153.457 115.04 145.398 124.314 132.716 124.314V124.314Z" stroke="white" stroke-width="2" stroke-miterlimit="10"/>
<path d="M220.199 256H35.8014C26.3085 255.993 17.2063 252.219 10.4937 245.506C3.78118 238.794 0.00699815 229.692 0 220.199V35.8014C0 31.0999 0.926033 26.4444 2.72522 22.1008C4.52441 17.7572 7.16153 13.8104 10.486 10.486C13.8105 7.16151 17.7572 4.52439 22.1008 2.7252C26.4444 0.926013 31.0999 0 35.8014 0H220.199C229.689 0.0139777 238.788 3.79038 245.499 10.5014C252.21 17.2125 255.986 26.3106 256 35.8014V220.199C255.986 229.689 252.21 238.788 245.499 245.499C238.788 252.21 229.689 255.986 220.199 256V256Z" stroke="white" stroke-width="2" stroke-miterlimit="10"/>
</g>
<defs>
<clipPath id="clip0">
<rect width="256" height="256" fill="white"/>
</clipPath>
</defs>
</svg>
