<svg id="Layer_1" data-name="Layer 1" xmlns="http://www.w3.org/2000/svg" viewBox="0 0 256 256"><defs><style>.cls-1,.cls-2{fill:none;stroke:#fff;stroke-miterlimit:10;stroke-width:2px;}.cls-2{fill-rule:evenodd;}</style></defs><rect class="cls-1" x="121.53" y="68.17" width="30.64" height="31.83" rx="3"/><line class="cls-1" x1="148.75" y1="110.81" x2="124.83" y2="110.81"/><path class="cls-2" d="M163.64,143.62H110a3,3,0,0,0-3,3v6.12a3,3,0,0,0,3,3h53.62a3,3,0,0,0,3-3v-6.12A3,3,0,0,0,163.64,143.62Z"/><path class="cls-2" d="M112.64,143.62l-.21-83.53a2.65,2.65,0,0,1,1.09-1.61,2.62,2.62,0,0,1,1.56-.44h43.39a3,3,0,0,1,1.67.73,3.06,3.06,0,0,1,.88,1.32v83.53"/><path class="cls-2" d="M112.52,95.45a15.78,15.78,0,0,0-8.78,4.29c-3.37,3.57-5,10.22-4.38,13,1.91,7.92,3.61,20.31-2,25-6,5-15.78-.21-16.85-3.44-.93-2.84-4.31-9,1.36-21.53,5-10.89,5.88-11,7.88-14.88,1.89-3.63,3.44-8.83,2.68-16.15-.59-5.59-5.62-11-5.62-11l-14-10.63A13.21,13.21,0,0,0,68,57.62a20.78,20.78,0,0,0-6.24-.07"/><path class="cls-2" d="M73.65,60.73l-4.42,5.59a7.54,7.54,0,0,0-.16,1.79,7.13,7.13,0,0,0,1,1.46l9.8,7.79a5.54,5.54,0,0,0,1.6.45,5.87,5.87,0,0,0,1.5-.9l4.38-5.67"/></svg>