<svg width="256" height="256" viewBox="0 0 256 256" fill="none" xmlns="http://www.w3.org/2000/svg">
<g clip-path="url(#clip0)">
<path d="M213.4 34.4199H153.245C149.2 34.4199 145.921 37.6989 145.921 41.7439V104.804C145.921 108.849 149.2 112.128 153.245 112.128H213.4C217.445 112.128 220.724 108.849 220.724 104.804V41.7439C220.724 37.6989 217.445 34.4199 213.4 34.4199Z" stroke="white" stroke-width="2" stroke-miterlimit="10"/>
<path d="M212.374 138.519H153.977" stroke="white" stroke-width="2" stroke-miterlimit="10"/>
<path fill-rule="evenodd" clip-rule="evenodd" d="M248.725 218.619H117.771C115.829 218.619 113.966 219.391 112.592 220.765C111.219 222.138 110.447 224.001 110.447 225.943V240.884C110.447 242.827 111.219 244.69 112.592 246.063C113.966 247.437 115.829 248.209 117.771 248.209H248.676C250.619 248.209 252.482 247.437 253.855 246.063C255.229 244.69 256 242.827 256 240.884V225.943C256 224.009 255.235 222.154 253.872 220.782C252.509 219.41 250.659 218.632 248.725 218.619Z" stroke="white" stroke-width="2" stroke-miterlimit="10"/>
<path d="M124.216 218.619L123.703 14.6938C124.06 13.0938 125.011 11.689 126.364 10.7633C127.488 10.0117 128.822 9.6356 130.173 9.68909H236.103C237.614 9.84597 239.038 10.4688 240.18 11.4713C241.167 12.3379 241.908 13.4495 242.328 14.6938V218.619" stroke="white" stroke-width="2" stroke-miterlimit="10"/>
<path d="M123.923 101.02C115.849 102.155 108.344 105.822 102.488 111.493C94.2603 120.209 90.2809 136.444 91.7946 143.231C96.4575 162.566 100.608 192.814 86.9119 204.264C72.2638 216.471 48.3875 203.752 45.7752 195.866C43.5048 188.933 35.253 173.894 49.0955 143.304C61.3022 116.718 63.4506 116.449 68.3332 106.977C72.9474 98.1146 76.7315 85.4196 74.8761 67.549C73.4357 53.9019 61.1557 40.6942 61.1557 40.6942L26.9769 14.7427C23.5245 11.9271 19.5261 9.85725 15.234 8.66376C10.1936 7.84029 5.05765 7.78268 0 8.49287" stroke="white" stroke-width="2" stroke-miterlimit="10"/>
<path d="M29.0277 16.2562L18.237 29.9033C17.933 31.3392 17.8019 32.8063 17.8463 34.2734C18.509 35.5582 19.3291 36.7556 20.2877 37.8377L44.2129 56.8558C45.4523 57.4163 46.7691 57.7867 48.119 57.9544C49.4426 57.409 50.677 56.6684 51.781 55.7572L62.4741 41.9148" stroke="white" stroke-width="2" stroke-miterlimit="10"/>
</g>
<defs>
<clipPath id="clip0">
<rect width="256" height="256" fill="white"/>
</clipPath>
</defs>
</svg>
