<svg width="256" height="256" viewBox="0 0 256 256" fill="none" xmlns="http://www.w3.org/2000/svg">
<g clip-path="url(#clip0)">
<path d="M77.2629 3.02649H169.968C173.889 5.50465 177.617 8.27605 181.119 11.317C184.947 14.8743 188.556 18.6601 191.926 22.6535C195.713 26.8649 205.169 41.1945 205.169 41.1945L219.578 33.9635L194.548 88.9244L127.88 84.1302L148.407 69.9861C147.012 65.5603 145.24 61.2624 143.11 57.1398C139.338 50.2108 134.778 43.7404 129.522 37.8571C126.083 34.0809 122.393 30.5413 118.477 27.2623C118.477 27.2623 108.889 38.0425 106.134 41.9891C103.119 46.3449 100.779 51.1313 99.1943 56.1862C98.0237 60.5056 97.4008 64.9551 97.3401 69.4298C97.3401 71.8667 97.3401 79.2301 97.3401 79.2301L39.0684 48.6374C39.0684 48.6374 46.4848 34.8376 49.1865 30.3613C52.6779 24.4049 56.8174 18.853 61.5295 13.8068C66.1032 9.32093 71.4283 5.6722 77.2629 3.02649Z" stroke="white" stroke-width="2" stroke-miterlimit="10" stroke-linecap="round"/>
<path d="M119.061 26.7325C119.061 26.7325 128.861 19.3691 132.543 17.0647C137.579 14.0603 142.839 11.4481 148.276 9.25097C155.377 6.79587 162.6 4.70943 169.916 3" stroke="white" stroke-width="2" stroke-miterlimit="10"/>
<path d="M255.444 151.169L204.854 228.803C200.638 230.736 196.281 232.348 191.822 233.624C186.753 234.885 181.615 235.849 176.433 236.511C170.844 237.385 153.786 237.491 153.786 237.491L151.8 253.542L119.433 202.607L159.826 149.342L160.488 174.266C164.944 175.528 169.498 176.414 174.102 176.915C181.978 177.533 189.899 177.222 197.702 175.988C202.714 175.163 207.662 173.986 212.509 172.465C212.509 172.465 208.747 158.559 206.92 154.109C203.382 144.937 197.031 137.12 188.776 131.781L180.565 126.483L237.963 94.4601C237.963 94.4601 245.459 108.207 247.71 113.001C250.83 119.168 253.23 125.674 254.862 132.39C256.149 138.568 256.346 144.923 255.444 151.169V151.169Z" stroke="white" stroke-width="2" stroke-miterlimit="10" stroke-linecap="round"/>
<path d="M212.747 173.259C212.747 173.259 213.568 185.47 213.488 189.84C213.251 195.686 212.56 201.504 211.422 207.243C209.608 214.538 207.415 221.735 204.854 228.803" stroke="white" stroke-width="2" stroke-miterlimit="10"/>
<path d="M37.082 224.221L0 139.462C0.645087 134.838 1.63674 130.27 2.96657 125.794C4.68589 120.856 6.7026 116.027 9.00564 111.332C11.3365 106.035 20.5805 91.8644 20.5805 91.8644L8.23751 81.2695L68.6018 82.1171L91.0099 145.077L69.8202 131.992C66.3177 135.028 63.0831 138.361 60.1524 141.952C55.3216 148.203 51.2329 154.994 47.9683 162.188C45.9207 166.831 44.1949 171.61 42.8033 176.491C42.8033 176.491 56.5236 180.967 61.3443 181.788C66.5779 182.813 71.9379 183.027 77.2366 182.424C81.6441 181.78 85.9518 180.578 90.0564 178.848L99.0355 174.902L94.3738 240.457C94.3738 240.457 78.7729 239.186 73.5814 238.497C66.7196 237.707 59.9676 236.152 53.4511 233.862C47.477 231.622 41.938 228.359 37.082 224.221V224.221Z" stroke="white" stroke-width="2" stroke-miterlimit="10" stroke-linecap="round"/>
<path d="M42.1146 176.412C42.1146 176.412 31.5197 170.399 27.8645 167.962C23.1048 164.552 18.6152 160.779 14.4355 156.679C9.3257 151.169 4.50728 145.395 0 139.382" stroke="white" stroke-width="2" stroke-miterlimit="10"/>
</g>
<defs>
<clipPath id="clip0">
<rect width="256" height="256" fill="white"/>
</clipPath>
</defs>
</svg>
