<svg id="Layer_1" data-name="Layer 1" xmlns="http://www.w3.org/2000/svg" viewBox="0 0 256 256"><defs><style>.cls-1,.cls-2{fill:none;stroke:#fff;stroke-miterlimit:10;stroke-width:2px;}.cls-1{stroke-linecap:round;}</style></defs><path class="cls-1" d="M114.27,71.65h35a34.7,34.7,0,0,1,4.21,3.13,48.9,48.9,0,0,1,4.08,4.28c1.43,1.59,5,7,5,7L168,83.33l-9.45,20.75-25.17-1.81,7.75-5.34a30.62,30.62,0,0,0-2-4.85A38.7,38.7,0,0,0,134,84.8a42.84,42.84,0,0,0-4.17-4s-3.62,4.07-4.66,5.56a19.85,19.85,0,0,0-2.62,5.36,20.16,20.16,0,0,0-.7,5c0,.92,0,3.7,0,3.7l-22-11.55s2.8-5.21,3.82-6.9a35.35,35.35,0,0,1,4.66-6.25A20.68,20.68,0,0,1,114.27,71.65Z"/><path class="cls-2" d="M130.05,80.6s3.7-2.78,5.09-3.65A43.15,43.15,0,0,1,141.08,74a82.32,82.32,0,0,1,8.17-2.36"/><path class="cls-1" d="M181.54,127.58l-19.1,29.31a34.75,34.75,0,0,1-4.92,1.82,50.56,50.56,0,0,1-5.81,1.09c-2.11.33-8.55.37-8.55.37l-.75,6.06L130.19,147l15.25-20.11.25,9.41a31.25,31.25,0,0,0,5.14,1,38,38,0,0,0,8.91-.35,40.78,40.78,0,0,0,5.59-1.33s-1.42-5.25-2.11-6.93a17.57,17.57,0,0,0-6.85-8.43l-3.1-2,21.67-12.09s2.83,5.19,3.68,7a34,34,0,0,1,2.7,7.32A20.44,20.44,0,0,1,181.54,127.58Z"/><path class="cls-2" d="M165.42,135.92s.31,4.61.28,6.26a42.69,42.69,0,0,1-.78,6.57,81.9,81.9,0,0,1-2.48,8.14"/><path class="cls-1" d="M99.1,155.16l-14-32A35.18,35.18,0,0,1,86.22,118a48.91,48.91,0,0,1,2.28-5.46c.88-2,4.37-7.35,4.37-7.35l-4.66-4,22.79.32,8.46,23.77-8-4.94a30.48,30.48,0,0,0-3.65,3.76,38.54,38.54,0,0,0-4.6,7.64,41.78,41.78,0,0,0-1.95,5.4s5.18,1.69,7,2a19.66,19.66,0,0,0,6,.24,19.85,19.85,0,0,0,4.84-1.35l3.39-1.49-1.76,24.75s-5.89-.48-7.85-.74a35,35,0,0,1-7.6-1.75A20.77,20.77,0,0,1,99.1,155.16Z"/><path class="cls-2" d="M101,137.11s-4-2.27-5.38-3.19a43,43,0,0,1-5.07-4.26,81.44,81.44,0,0,1-5.45-6.53"/></svg>