<svg width="256" height="256" viewBox="0 0 256 256" fill="none" xmlns="http://www.w3.org/2000/svg">
<g clip-path="url(#clip0)">
<path d="M164.454 147.762L252.224 227.82C252.224 227.82 261.553 240.854 250.07 251.519C239.169 261.601 227.018 251.519 227.018 251.519L149.459 166.118" stroke="white" stroke-width="2" stroke-miterlimit="10" stroke-linecap="round"/>
<path d="M22.9941 14.5338L72.5671 63.6112" stroke="white" stroke-width="2" stroke-miterlimit="10" stroke-linecap="round"/>
<path d="M14.4189 22.9574C15.927 25.2411 63.9704 72.6597 63.9704 72.6597" stroke="white" stroke-width="2" stroke-miterlimit="10" stroke-linecap="round"/>
<path d="M123.67 110.793L113.565 101.163C111.215 98.218 109.125 95.0751 107.318 91.7694C106.551 88.4778 106.16 85.1096 106.154 81.7298C105.96 78.0673 106.391 70.7208 106.154 67.0798C105.859 63.6661 105.202 60.2935 104.194 57.0187C102.531 53.5065 100.661 50.0965 98.5923 46.8068L43.2671 0.551639C42.2882 0.0764149 41.1903 -0.0974215 40.1125 0.0521645C39.0347 0.201751 38.0256 0.668028 37.2132 1.39187C33.5938 4.12797 36.1791 8.7815 36.1791 8.7815L77.8454 50.2754C78.4925 50.7971 79.0198 51.4519 79.3915 52.1954C79.7632 52.9388 79.9707 53.7536 79.9998 54.5843C79.995 55.4064 79.8114 56.2176 79.4617 56.9617C79.112 57.7058 78.6046 58.3648 77.9746 58.8931L58.4126 78.6059C57.7843 79.0208 57.0799 79.3068 56.3403 79.4473C55.6006 79.5878 54.8404 79.5801 54.1038 79.4246C53.4323 79.3912 52.7761 79.212 52.1809 78.8995C51.5856 78.587 51.0655 78.1486 50.6567 77.6149L8.83959 35.7763C7.8817 35.1887 6.75907 34.9278 5.64027 35.0327C4.52146 35.1376 3.46688 35.6026 2.63489 36.3579C-0.445917 39.0725 1.77312 43.6829 1.77312 43.6829L47.7913 98.685C51.2405 101.197 54.9026 103.403 58.7357 105.278C63.2762 106.263 67.9265 106.647 72.5671 106.419C77.2677 105.922 81.9976 105.756 86.7215 105.924C89.8782 106.528 92.9324 107.58 95.7916 109.048C98.3705 110.944 100.845 112.98 103.203 115.145L110.743 123.353" stroke="white" stroke-width="2" stroke-miterlimit="10" stroke-linecap="round"/>
<path d="M163.871 95.1517L33.0117 230.492C33.0117 230.492 26.5485 240.467 34.6922 248.287C37.3059 250.794 40.6206 252.445 44.1957 253.023C47.7708 253.6 51.4369 253.075 54.7066 251.519L174.535 103.532C177.629 100.923 181.065 98.7488 184.747 97.0692C188.73 95.8847 192.851 95.2256 197.005 95.1087C201.797 95.076 206.582 94.7451 211.332 94.1176C215.039 93.103 218.601 91.6188 221.932 89.7011C224.286 88.1272 226.455 86.2914 228.395 84.2289C235.474 75.2126 241.821 65.6453 247.376 55.6183C249.383 51.766 251.118 47.7778 252.568 43.6829C253.658 39.9538 254.443 36.1423 254.916 32.286C254.916 29.8731 255.175 22.4619 254.916 19.1872C254.686 17.0986 254.327 15.0263 253.839 12.9825C253.112 10.7658 251.863 8.75606 250.198 7.12253C248.004 5.68804 245.501 4.79462 242.894 4.51569C239.604 4.52343 236.316 4.72486 233.049 5.11893C229.042 5.75515 225.083 6.66207 221.2 7.83348C217.614 8.95052 214.108 10.311 210.707 11.9053C207.791 13.4406 204.983 15.1755 202.305 17.0974C196.962 21.0831 187.009 30.0239 182.054 34.3327C180.169 36.0672 178.379 37.9011 176.689 39.8265C174.941 42.0127 173.411 44.3651 172.122 46.8499C170.92 49.9246 170.193 53.1647 169.968 56.4585C169.644 61.6937 170.765 72.2073 170.571 77.4425C170.434 80.2763 170.023 83.0902 169.343 85.8447C168.635 88.0077 167.68 90.0824 166.499 92.0279C165.917 92.8034 163.871 95.1517 163.871 95.1517Z" stroke="white" stroke-width="2" stroke-miterlimit="10"/>
</g>
<defs>
<clipPath id="clip0">
<rect width="256" height="256" fill="white"/>
</clipPath>
</defs>
</svg>
