<svg id="Layer_1" data-name="Layer 1" xmlns="http://www.w3.org/2000/svg" viewBox="0 0 256 256"><defs><style>.cls-1,.cls-2{fill:none;stroke:#fff;stroke-miterlimit:10;stroke-width:2px;}.cls-1{stroke-linecap:round;}</style></defs><path class="cls-1" d="M148.32,117.84,189.06,155s4.33,6.05-1,11c-5.06,4.68-10.7,0-10.7,0l-36-39.64"/><line class="cls-1" x1="82.66" y1="56" x2="105.67" y2="78.78"/><path class="cls-1" d="M78.68,59.91c.7,1.06,23,23.07,23,23.07"/><path class="cls-1" d="M129.39,100.68l-4.69-4.47a30.26,30.26,0,0,1-2.9-4.36,20.69,20.69,0,0,1-.54-4.66c-.09-1.7.11-5.11,0-6.8a22.43,22.43,0,0,0-.91-4.67,45.39,45.39,0,0,0-2.6-4.74L92.07,49.51a2.55,2.55,0,0,0-2.81.39c-1.68,1.27-.48,3.43-.48,3.43l19.34,19.26a2.69,2.69,0,0,1,1,2,2.63,2.63,0,0,1-.94,2L99.1,85.74a2.64,2.64,0,0,1-2,.38,2.15,2.15,0,0,1-1.6-.84L76.09,65.86a2.41,2.41,0,0,0-2.88.27c-1.43,1.26-.4,3.4-.4,3.4L94.17,95.06a34,34,0,0,0,5.08,3.06,24.6,24.6,0,0,0,6.42.53,46.66,46.66,0,0,1,6.57-.23,15.67,15.67,0,0,1,4.21,1.45,41.06,41.06,0,0,1,3.44,2.83l3.5,3.81"/><path class="cls-2" d="M148.05,93.42,87.31,156.24s-3,4.63.78,8.26A8.28,8.28,0,0,0,97.38,166L153,97.31a20.64,20.64,0,0,1,4.74-3,22.15,22.15,0,0,1,5.69-.91,53.57,53.57,0,0,0,6.65-.46A20.94,20.94,0,0,0,175,90.89a17.39,17.39,0,0,0,3-2.54,99.91,99.91,0,0,0,8.81-13.28,43.15,43.15,0,0,0,2.41-5.54,33.27,33.27,0,0,0,1.09-5.29c0-1.12.12-4.56,0-6.08a23.43,23.43,0,0,0-.5-2.88,6.76,6.76,0,0,0-1.69-2.72,7.69,7.69,0,0,0-3.39-1.21,38.93,38.93,0,0,0-4.57.28,41.69,41.69,0,0,0-5.5,1.26,38.32,38.32,0,0,0-4.87,1.89,33.25,33.25,0,0,0-3.9,2.41c-2.48,1.85-7.1,6-9.4,8A33.41,33.41,0,0,0,154,67.74,19.88,19.88,0,0,0,151.88,71a15.07,15.07,0,0,0-1,4.46c-.15,2.43.37,7.31.28,9.74a20.39,20.39,0,0,1-.57,3.9,13.81,13.81,0,0,1-1.32,2.87C149,92.33,148.05,93.42,148.05,93.42Z"/></svg>