<svg id="Layer_1" data-name="Layer 1" xmlns="http://www.w3.org/2000/svg" viewBox="0 0 256 256"><defs><style>.cls-1{fill:none;stroke:#fff;stroke-linecap:round;stroke-linejoin:round;stroke-width:2px;}</style></defs><path class="cls-1" d="M150.49,175.45V97.23a4.58,4.58,0,0,0-4.57-4.57H110.08a4.58,4.58,0,0,0-4.57,4.57v78.22H93.9V85.12a4.57,4.57,0,0,1,4.57-4.57h59.06a4.57,4.57,0,0,1,4.57,4.57v90.33Z"/><path class="cls-1" d="M138.36,128.13V170.7a3.51,3.51,0,0,1-3.37,3.64h0a3.51,3.51,0,0,1-3.37-3.64V150.83a3.77,3.77,0,0,0-3.62-3.91h0a3.77,3.77,0,0,0-3.62,3.91V170.7a3.51,3.51,0,0,1-3.37,3.64h0a3.51,3.51,0,0,1-3.37-3.64V128.13a4.85,4.85,0,0,1,4.65-5h1.85l3.86,9.12,3.86-9.12h1.85A4.85,4.85,0,0,1,138.36,128.13Z"/><circle class="cls-1" cx="128" cy="110.78" r="6.79"/></svg>