<svg width="256" height="256" viewBox="0 0 256 256" fill="none" xmlns="http://www.w3.org/2000/svg">
<g clip-path="url(#clip0)">
<path d="M188.656 256V44.9956C188.649 41.7282 187.348 38.5967 185.037 36.2863C182.727 33.9759 179.595 32.6748 176.328 32.6677H79.6468C76.3794 32.6748 73.2479 33.9759 70.9375 36.2863C68.6271 38.5967 67.326 41.7282 67.3189 44.9956V256H36V12.3279C36 9.05835 37.2988 5.92268 39.6108 3.61075C41.9227 1.29882 45.0584 0 48.3279 0H207.647C210.916 0 214.052 1.29882 216.364 3.61075C218.676 5.92268 219.975 9.05835 219.975 12.3279V256H188.656Z" stroke="white" stroke-width="2" stroke-linecap="round" stroke-linejoin="round"/>
<path d="M155.934 128.351V243.187C156.029 245.694 155.125 248.136 153.42 249.977C151.716 251.818 149.35 252.907 146.843 253.006V253.006C144.336 252.907 141.97 251.818 140.266 249.977C138.561 248.136 137.657 245.694 137.752 243.187V189.586C137.854 186.893 136.883 184.269 135.052 182.291C133.221 180.314 130.68 179.144 127.987 179.038V179.038C125.294 179.144 122.753 180.314 120.922 182.291C119.091 184.269 118.119 186.893 118.222 189.586V243.187C118.316 245.694 117.412 248.136 115.708 249.977C114.003 251.818 111.638 252.907 109.131 253.006V253.006C106.624 252.907 104.258 251.818 102.554 249.977C100.849 248.136 99.9451 245.694 100.04 243.187V128.351C99.9304 124.903 101.187 121.551 103.536 119.025C105.885 116.499 109.137 115.003 112.584 114.863H117.574L127.987 139.465L138.4 114.863H143.39C146.837 115.003 150.088 116.499 152.438 119.025C154.787 121.551 156.043 124.903 155.934 128.351V128.351Z" stroke="white" stroke-width="2" stroke-linecap="round" stroke-linejoin="round"/>
<path d="M127.986 99.8643C138.102 99.8643 146.303 91.6637 146.303 81.5477C146.303 71.4318 138.102 63.2312 127.986 63.2312C117.871 63.2312 109.67 71.4318 109.67 81.5477C109.67 91.6637 117.871 99.8643 127.986 99.8643Z" stroke="white" stroke-width="2" stroke-linecap="round" stroke-linejoin="round"/>
</g>
<defs>
<clipPath id="clip0">
<rect width="256" height="256" fill="white"/>
</clipPath>
</defs>
</svg>
