<svg width="256" height="256" viewBox="0 0 256 256" fill="none" xmlns="http://www.w3.org/2000/svg">
<g clip-path="url(#clip0)">
<path d="M19.519 225.309H18.9512V225.877H19.519V225.309Z" stroke="white" stroke-miterlimit="10"/>
<path d="M232.497 206.326H22.2227C20.7292 206.326 19.5186 207.536 19.5186 209.03V222.605C19.5186 224.098 20.7292 225.309 22.2227 225.309H232.497C233.99 225.309 235.201 224.098 235.201 222.605V209.03C235.201 207.536 233.99 206.326 232.497 206.326Z" stroke="white" stroke-width="2" stroke-miterlimit="10"/>
<path d="M35.9336 225.309L36.1229 244.941C36.1229 244.941 38.827 256.623 49.1569 255.974C60.1897 255.271 61.1092 243.94 61.1092 243.94V225.309" stroke="white" stroke-width="2" stroke-miterlimit="10"/>
<path d="M193.207 225.309L193.423 244.941C193.423 244.941 196.128 256.623 206.43 255.974C217.463 255.271 218.41 243.94 218.41 243.94V225.309" stroke="white" stroke-width="2" stroke-miterlimit="10"/>
<path d="M120.005 154.704V191.291" stroke="white" stroke-width="2" stroke-miterlimit="10" stroke-linecap="round"/>
<path d="M103.918 154.596V191.21" stroke="white" stroke-width="2" stroke-miterlimit="10" stroke-linecap="round"/>
<path d="M136.122 154.704V191.291" stroke="white" stroke-width="2" stroke-miterlimit="10" stroke-linecap="round"/>
<path d="M152.212 154.704V191.291" stroke="white" stroke-width="2" stroke-miterlimit="10" stroke-linecap="round"/>
<path d="M59.7306 186.45C67.1531 186.45 73.1702 180.433 73.1702 173.011C73.1702 165.588 67.1531 159.571 59.7306 159.571C52.3081 159.571 46.291 165.588 46.291 173.011C46.291 180.433 52.3081 186.45 59.7306 186.45Z" stroke="white" stroke-width="2" stroke-miterlimit="10" stroke-linecap="round"/>
<path d="M194.776 186.342C202.199 186.342 208.216 180.325 208.216 172.903C208.216 165.48 202.199 159.463 194.776 159.463C187.354 159.463 181.337 165.48 181.337 172.903C181.337 180.325 187.354 186.342 194.776 186.342Z" stroke="white" stroke-width="2" stroke-miterlimit="10" stroke-linecap="round"/>
<path d="M66.4656 45.7811H188.855C190.288 46.0116 191.628 46.6392 192.722 47.5929C193.679 48.6666 194.381 49.9421 194.777 51.3246L200.645 93.0224L201.213 99.296V111.546C201.276 112.976 200.857 114.385 200.023 115.548C199.024 116.324 197.822 116.793 196.562 116.9H58.7048C57.3909 116.937 56.0976 116.568 55.0001 115.845C53.9696 114.888 53.2691 113.629 52.999 112.249V98.2685L54.3781 89.453L60.5977 49.0531C61.0292 48.0282 61.7535 47.1535 62.6798 46.5383C63.8742 46.0216 65.1644 45.7635 66.4656 45.7811V45.7811Z" stroke="white" stroke-width="2" stroke-miterlimit="10" stroke-linecap="round"/>
<path d="M28.3369 137.262H225.198" stroke="white" stroke-width="2" stroke-miterlimit="10"/>
<path d="M228.713 206.326V159.463L211.001 31.1787C210.261 28.2745 208.658 25.6628 206.404 23.6883C203.914 21.4495 200.762 20.0826 197.426 19.7943L56.6486 20.0106C54.9189 20.0103 53.2067 20.3572 51.6135 21.0308C50.0202 21.7043 48.5784 22.6907 47.3734 23.9316C45.1427 26.1428 43.6181 28.9661 42.9927 32.0441L26.0918 157.814V206.488" stroke="white" stroke-width="2" stroke-miterlimit="10"/>
<path d="M219.031 89.3718H239.853C241.779 89.7196 243.568 90.6002 245.018 91.9137C245.755 92.61 246.343 93.448 246.747 94.3775C247.151 95.3069 247.363 96.3084 247.371 97.3219V124.931C247.149 127 246.189 128.921 244.666 130.339C243.201 131.418 241.454 132.048 239.637 132.151H224.98" stroke="white" stroke-width="2" stroke-miterlimit="10"/>
<path d="M35.2848 89.3989H15.5986C13.6351 89.7102 11.8291 90.6607 10.4608 92.103C9.28572 93.7223 8.44884 95.5616 8 97.5113V125.121C8.27219 126.912 9.06166 128.585 10.2715 129.934C11.6632 131.11 13.3434 131.894 15.1389 132.205H29.5249" stroke="white" stroke-width="2" stroke-miterlimit="10"/>
<path d="M85.123 19.9566V5.75982C85.5384 4.11056 86.4896 2.64584 87.8272 1.59544C89.1711 0.626536 90.7691 0.071944 92.4242 0L159.514 0.135205C161.334 0.212373 163.052 0.998506 164.3 2.32556C165.091 3.27026 165.613 4.40942 165.815 5.62462V19.8484" stroke="white" stroke-width="2" stroke-miterlimit="10"/>
</g>
<defs>
<clipPath id="clip0">
<rect width="256" height="256" fill="white"/>
</clipPath>
</defs>
</svg>
