<svg id="Layer_1" data-name="Layer 1" xmlns="http://www.w3.org/2000/svg" viewBox="0 0 256 256"><defs><style>.cls-1,.cls-2,.cls-3{fill:none;stroke:#fff;stroke-miterlimit:10;}.cls-2,.cls-3{stroke-width:2px;}.cls-3{stroke-linecap:round;}</style></defs><rect class="cls-1" x="87.81" y="144.62" width="0.21" height="0.21"/><rect class="cls-2" x="88.02" y="137.6" width="79.76" height="7.02" rx="1"/><path class="cls-2" d="M94.09,144.62l.07,7.26s1,4.32,4.82,4.08c4.08-.26,4.42-4.45,4.42-4.45v-6.89"/><path class="cls-2" d="M152.25,144.62l.08,7.26s1,4.32,4.81,4.08c4.08-.26,4.43-4.45,4.43-4.45v-6.89"/><line class="cls-3" x1="125.18" y1="118.51" x2="125.18" y2="132.04"/><line class="cls-3" x1="119.23" y1="118.47" x2="119.23" y2="132.01"/><line class="cls-3" x1="131.14" y1="118.51" x2="131.14" y2="132.04"/><line class="cls-3" x1="137.09" y1="118.51" x2="137.09" y2="132.04"/><circle class="cls-3" cx="102.89" cy="125.28" r="4.97"/><circle class="cls-3" cx="152.83" cy="125.24" r="4.97"/><path class="cls-3" d="M105.38,78.23h45.26a2.87,2.87,0,0,1,1.43.67,3.54,3.54,0,0,1,.76,1.38L155,95.7l.21,2.32v4.53a2.36,2.36,0,0,1-.44,1.48,2.42,2.42,0,0,1-1.28.5H102.51a2.37,2.37,0,0,1-1.37-.39,2.46,2.46,0,0,1-.74-1.33V97.64l.51-3.26,2.3-14.94a2.09,2.09,0,0,1,.77-.93A3.41,3.41,0,0,1,105.38,78.23Z"/><line class="cls-2" x1="91.28" y1="112.06" x2="164.08" y2="112.06"/><path class="cls-2" d="M165.38,137.6V120.27l-6.55-47.44a5.48,5.48,0,0,0-1.7-2.77,5.7,5.7,0,0,0-3.32-1.44l-52.06.08a4.78,4.78,0,0,0-3.43,1.45,5.87,5.87,0,0,0-1.62,3l-6.25,46.51v18"/><path class="cls-2" d="M161.8,94.35h7.7a3.87,3.87,0,0,1,1.91.94,2.78,2.78,0,0,1,.87,2v10.21a3.2,3.2,0,0,1-1,2,3.47,3.47,0,0,1-1.86.67H164"/><path class="cls-2" d="M93.85,94.36H86.57a3.34,3.34,0,0,0-1.9,1,5.51,5.51,0,0,0-.91,2v10.21a3.44,3.44,0,0,0,.84,1.78,3.79,3.79,0,0,0,1.8.84h5.32"/><path class="cls-2" d="M112.28,68.68V63.43a2.84,2.84,0,0,1,1-1.54,3.14,3.14,0,0,1,1.7-.59l24.81.05a2.58,2.58,0,0,1,1.77.81,2.55,2.55,0,0,1,.56,1.22v5.26"/></svg>