<svg width="256" height="256" viewBox="0 0 256 256" fill="none" xmlns="http://www.w3.org/2000/svg">
<g clip-path="url(#clip0)">
<path d="M131.743 4.55579V256" stroke="white" stroke-width="2" stroke-miterlimit="10"/>
<path d="M80.1104 251.391H37.83V188.357H13L26.6139 60.4766H91.0068L105.5 187.904L80.1104 188.357V251.391Z" stroke="white" stroke-width="2" stroke-miterlimit="10"/>
<path d="M164.909 60.4766H243.369V152.977H225.679V251.391H183.505L184.118 152.977H164.909V60.4766Z" stroke="white" stroke-width="2" stroke-miterlimit="10"/>
<path d="M58.8227 47.8485C72.0356 47.8485 82.7469 37.1372 82.7469 23.9242C82.7469 10.7112 72.0356 0 58.8227 0C45.6097 0 34.8984 10.7112 34.8984 23.9242C34.8984 37.1372 45.6097 47.8485 58.8227 47.8485Z" stroke="white" stroke-width="2" stroke-miterlimit="10"/>
<path d="M204.126 47.8485C217.339 47.8485 228.051 37.1372 228.051 23.9242C228.051 10.7112 217.339 0 204.126 0C190.913 0 180.202 10.7112 180.202 23.9242C180.202 37.1372 190.913 47.8485 204.126 47.8485Z" stroke="white" stroke-width="2" stroke-miterlimit="10"/>
</g>
<defs>
<clipPath id="clip0">
<rect width="256" height="256" fill="white"/>
</clipPath>
</defs>
</svg>
