<?xml version="1.0" encoding="UTF-8"?>
<!DOCTYPE svg PUBLIC "-//W3C//DTD SVG 1.1//EN" "http://www.w3.org/Graphics/SVG/1.1/DTD/svg11.dtd">
<!-- Creator: CorelDRAW X7 -->
<svg xmlns="http://www.w3.org/2000/svg" xml:space="preserve" width="17mm" height="17mm" version="1.1" style="shape-rendering:geometricPrecision; text-rendering:geometricPrecision; image-rendering:optimizeQuality; fill-rule:evenodd; clip-rule:evenodd"
viewBox="0 0 25 25"
 xmlns:xlink="http://www.w3.org/1999/xlink">
 <defs>
  <style type="text/css">
   <![CDATA[
    .fil1ap {fill:#FEFEFE}
    .filAP {fill:#0CB6B5}
   ]]>
  </style>
 </defs>
 <g id="LOGOS">
  <metadata id="CorelCorpID_0Corel-Layer"/>
  <circle class="filAP" cx="12" cy="12" r="12"/>
  <g id="_2438318865328">
   <path class="fil1ap" d="M6 17l2 0 -3 2 1 1c1,0 2,-2 3,-3l0 2c0,0 1,-1 1,-1l0 -3c-3,0 -3,0 -3,1 -1,0 -1,0 -1,1z"/>
   <path class="fil1ap" d="M5 6l3 2 -2 0c0,1 1,2 1,2l3 0 0 -3c0,0 -1,-1 -1,-1l0 2 -3 -3 -1 1z"/>
   <path class="fil1ap" d="M16 18c0,0 0,1 1,1l0 -2 2 3 1 -1 -2 -2 1 0c0,-1 0,-1 0,-1 -1,-1 -1,-1 -3,-1l0 3z"/>
   <path class="fil1ap" d="M17 8l0 -2c-1,0 -1,1 -1,1l0 3 2 0c0,0 1,-1 1,-2l-1 0 2 -2 -1 -1 -2 3z"/>
   <path class="fil1ap" d="M11 16l0 0 0 -1 1 0 0 1 2 0 0 -1 0 0 0 1 1 0c0,-1 0,-1 0,-2 -1,-1 0,-1 -4,-1 0,0 0,1 0,1 0,1 0,1 0,2z"/>
   <path class="fil1ap" d="M13 13c1,0 2,0 2,0 0,1 0,1 0,1l1 0 1 0c0,0 0,0 0,0l1 0c-1,0 -1,-2 -1,-2 -5,0 -2,0 -4,1z"/>
   <path class="fil1ap" d="M8 14l1 0c0,0 0,0 0,0l0 0 2 0c0,-1 0,-1 1,-1 0,0 0,0 -1,-1 0,0 -2,0 -2,0 0,0 -1,2 -1,2z"/>
   <path class="fil1ap" d="M14 11c0,1 2,1 2,0 0,-2 -2,-1 -2,0z"/>
   <path class="fil1ap" d="M12 9c0,1 0,1 0,1 1,1 2,0 2,-1 0,0 -1,-1 -2,0 0,0 0,0 0,0z"/>
   <path class="fil1ap" d="M9 11c0,1 2,1 2,0 0,-1 -2,-1 -2,0z"/>
   <path class="fil1ap" d="M12 12c0,1 2,1 2,0 0,-1 -2,-1 -2,0z"/>
  </g>
 </g>
</svg>
