<?xml version="1.0" encoding="UTF-8"?>
<!DOCTYPE svg PUBLIC "-//W3C//DTD SVG 1.1//EN" "http://www.w3.org/Graphics/SVG/1.1/DTD/svg11.dtd">
<!-- Creator: CorelDRAW X7 -->
<svg xmlns="http://www.w3.org/2000/svg" xml:space="preserve" width="17mm" height="17mm" version="1.1" style="shape-rendering:geometricPrecision; text-rendering:geometricPrecision; image-rendering:optimizeQuality; fill-rule:evenodd; clip-rule:evenodd"
viewBox="0 0 175 175"
 xmlns:xlink="http://www.w3.org/1999/xlink">
 <defs>
  <style type="text/css">
   <![CDATA[
    .fil0atm {fill:#FEFEFE}
    .filatm {fill:#0CB6B5}
   ]]>
  </style>
 </defs>
 <g id="Layer_x0020_1">
  <metadata id="CorelCorpID_0Corel-Layer"/>
  <circle class="fil0atm" cx="89" cy="87" r="82"/>
  <path class="filatm" d="M88 175c48,0 87,-39 87,-87 0,-49 -39,-88 -87,-88 -49,0 -88,39 -88,88 0,48 39,87 88,87zm-33 -137c3,-1 48,0 58,0 4,0 11,-1 13,6 1,5 0,47 0,58 0,4 1,12 -5,14 -3,1 -49,1 -59,1 -6,0 -11,-1 -12,-7 -1,-5 0,-47 0,-58 0,-6 -1,-11 5,-14zm54 70l6 0 0 -4 -6 0 0 4zm-20 0l6 0 0 -4 -6 0 0 4zm10 0l7 0 0 -4 -3 0 -1 0 -3 0 0 4zm-40 -26c0,1 -2,1 5,1l19 0c4,0 2,1 3,-1 -2,-1 -5,-1 -7,-1l-20 1zm50 20l6 0 1 -7 -7 0 0 7zm0 -9l7 0 0 -6 -7 0 0 6zm-10 0l7 0 0 -6 -3 0 -4 0 0 6zm-10 9l6 0 0 -7 -6 0 0 7zm10 0l7 0 0 -7 -7 0 0 7zm-10 -9l6 0 0 -6 -6 0 0 6zm-13 40l7 0 0 18 5 0 0 -18c1,0 3,1 4,0 4,0 2,1 3,-2 0,-2 -7,-1 -9,-1 -3,0 -7,0 -10,0l0 3zm-13 2l3 8 -6 0 3 -8zm-11 16l5 0c2,-5 0,-4 6,-4 5,0 4,-1 6,4l5 0c0,-3 -7,-19 -9,-21l-5 0 -8 21zm46 0l4 0 1 -16c2,4 2,11 4,16l5 0c1,-4 3,-11 3,-13 1,-2 1,-1 1,-2l1 15 4 0 0 -21 -7 0c-1,4 -2,13 -5,16l-4 -16 -7 0 0 21zm-38 -66c-2,4 -1,17 -1,23l6 0 0 -9 -3 -1c3,-3 6,-5 10,-9l8 9 -1 1 0 9 6 0c1,-27 3,-23 -16,-23 -3,0 -7,-1 -9,0zm18 -34c3,-2 33,-2 36,0 1,3 1,23 0,26 -3,1 -33,1 -36,0 -1,-3 -1,-22 0,-26zm-19 29l28 0 0 4 31 0 0 -38 -59 0 0 34zm-4 -50c-17,2 -13,21 -13,34 0,15 -1,33 0,47 1,17 20,14 33,14l46 0c6,-1 11,-6 12,-11 1,-5 1,-66 1,-71 -2,-17 -20,-13 -33,-13l-46 0z"/>
 </g>
</svg>
