<?xml version="1.0" encoding="utf-8"?>
<!-- Generator: Adobe Illustrator 24.3.0, SVG Export Plug-In . SVG Version: 6.00 Build 0)  -->
<svg version="1.1" id="Layer_1" xmlns="http://www.w3.org/2000/svg" xmlns:xlink="http://www.w3.org/1999/xlink" x="0px" y="0px"
	 viewBox="0 0 200 200" style="enable-background:new 0 0 200 200;" xml:space="preserve">
<style type="text/css">
	.st0{fill:#00B6B6;}
	.st1{fill:#FFFFFF;}
</style>
<rect class="st0" width="200" height="200"/>
<g>
	<path class="st1" d="M91.53,60.41c8.63,0,15.66-7.02,15.66-15.66c0-8.63-7.02-15.66-15.66-15.66s-15.66,7.02-15.66,15.66
		S82.89,60.41,91.53,60.41z M91.53,33.79c6.05,0,10.96,4.92,10.96,10.96c0,6.05-4.92,10.96-10.96,10.96S80.56,50.8,80.56,44.75
		S85.48,33.79,91.53,33.79z"/>
	<path class="st1" d="M105.88,98.48c0-2.36-0.92-4.58-2.59-6.24L83.98,72.92c1.19-4.91-0.24-10.19-3.86-13.81
		c-5.7-5.7-14.97-5.7-20.66,0l-3.84,3.84c-9.55,9.55-17.53,20.49-23.71,32.5c-0.59,1.15-0.14,2.57,1.01,3.16
		c1.15,0.59,2.57,0.14,3.16-1.01c5.95-11.58,13.64-22.12,22.85-31.33l3.84-3.84c3.87-3.87,10.16-3.87,14.03,0
		c2.7,2.7,3.61,6.77,2.32,10.37c-0.31,0.85-0.09,1.81,0.55,2.45l20.3,20.3c1.61,1.61,1.61,4.24,0,5.85c-1.61,1.61-4.24,1.61-5.85,0
		l-7.61-7.61c-0.92-0.92-2.4-0.92-3.32,0c-0.92,0.92-0.92,2.4,0,3.32l7.61,7.61c1.93,1.93,4.71,2.87,7.42,2.5
		c2.72-0.36,5.16-2.01,6.51-4.4C105.49,101.51,105.88,100,105.88,98.48L105.88,98.48z"/>
	<path class="st1" d="M76.56,90.48c0.92,0.92,12.48,13.97,13.81,8.42c0.92-0.92-9.58-10.83-10.49-11.74l-5.23-5.23
		c-0.92-0.92-2.4-0.92-3.32,0l-8.84,8.84c-0.71,0.71-0.89,1.78-0.45,2.68l11.89,24.66H63.74c-1.12,0-2.08,0.79-2.3,1.89l-8.72,44.01
		c-0.26,1.32-1.34,2.2-2.68,2.2c-1.34,0-2.42-0.89-2.68-2.2L38.63,120c-0.22-1.1-1.18-1.89-2.3-1.89H26.15L32,105.99
		c17.91-36.65,9.08-24.04,4.39-17.39c-1.17-0.56-8.05,14.19-8.61,15.36l-7.47,15.49c-0.74,1.53,0.42,3.37,2.11,3.37h11.99
		l8.35,42.12c0.71,3.58,3.64,5.98,7.29,5.98c3.65,0,6.58-2.4,7.29-5.98l8.35-42.12h11.99c1.7,0,2.85-1.83,2.11-3.37L66.98,92.91l6-6
		L76.56,90.48z"/>
	<path class="st1" d="M104.28,89.26c-0.16,4.4,3.47,8.17,7.88,8.17h7.19l4.62,11.49c1.47,3.66,4.97,6.02,8.92,6.02h14.19
		c5.04,0,9.14-4.1,9.14-9.14V87.93c0-4.35-3.54-7.88-7.88-7.88s-7.88,3.54-7.88,7.88v4.8h-4.07l-2.7-5.56
		c-1.63-3.35-5.09-5.51-8.81-5.51h-12.58C107.95,81.66,104.43,85,104.28,89.26L104.28,89.26z M112.28,86.36h12.58
		c1.94,0,3.74,1.13,4.59,2.87l3.35,6.88c0.39,0.81,1.21,1.32,2.11,1.32h7.89c1.3,0,2.35-1.05,2.35-2.35v-7.15
		c0-1.76,1.43-3.19,3.19-3.19s3.19,1.43,3.19,3.19v17.87c0,2.45-1.99,4.45-4.45,4.45h-14.19c-2.02,0-3.81-1.21-4.57-3.08
		l-5.22-12.96c-0.36-0.89-1.22-1.47-2.18-1.47h-8.78c-1.89,0-3.42-1.72-3.16-3.6C109.21,87.53,110.7,86.36,112.28,86.36
		L112.28,86.36z"/>
	<path class="st1" d="M172.22,117.39h-64.57c-4.25,0-7.71,3.46-7.71,7.71c0,4.25,3.46,7.71,7.71,7.71h51.11
		c1.3,0,4.66-2.35,4.66-3.64c0-1.3-17.53-1.05-18.82-1.05h-36.94c-1.66,0-3.01-1.35-3.01-3.01s1.35-3.01,3.01-3.01h64.57
		c1.66,0,3.01,1.35,3.01,3.01s-1.35,3.01-3.01,3.01h-18.25c-1.3,0-2.35,1.05-2.35,2.35c0,1.3,1.05,2.35,2.35,2.35h18.25
		c4.25,0,7.71-3.46,7.71-7.71C179.93,120.85,176.47,117.39,172.22,117.39L172.22,117.39z"/>
	<path class="st1" d="M168.59,111.73c6.25,0,11.33-5.08,11.33-11.33c0-6.25-5.08-11.33-11.33-11.33s-11.33,5.08-11.33,11.33
		C157.26,106.65,162.34,111.73,168.59,111.73z M168.59,93.76c3.66,0,6.64,2.98,6.64,6.64c0,3.66-2.98,6.64-6.64,6.64
		s-6.64-2.98-6.64-6.64C161.95,96.73,164.93,93.76,168.59,93.76L168.59,93.76z"/>
</g>
</svg>
