<?xml version="1.0" encoding="UTF-8"?>
<!DOCTYPE svg PUBLIC "-//W3C//DTD SVG 1.0//EN" "http://www.w3.org/TR/2001/REC-SVG-20010904/DTD/svg10.dtd">
<!-- Creator: CorelDRAW X7 -->
<svg xmlns="http://www.w3.org/2000/svg" xml:space="preserve" width="8mm" height="8mm" version="1.0" style="shape-rendering:geometricPrecision; text-rendering:geometricPrecision; image-rendering:optimizeQuality; fill-rule:evenodd; clip-rule:evenodd"
viewBox="0 0 112 112"
 xmlns:xlink="http://www.w3.org/1999/xlink">
 <defs>
  <style type="text/css">
   <![CDATA[
    .fil0 {fill:#0CB6B5}
    .fil1 {fill:white}
   ]]>
  </style>
 </defs>
 <g id="icons">
  <metadata id="CorelCorpID_0Corel-Layer"/>
  <path id="PBBB1F5003" class="fil0" d="M112 56c0,-31 -25,-56 -56,-56 -31,0 -56,25 -56,56 0,31 25,56 56,56 31,0 56,-25 56,-56z"/>
  <path class="fil1" d="M92 50c2,0 4,1 4,3 0,2 -2,4 -4,4 -2,0 -3,-2 -3,-4 0,-2 1,-3 3,-3l0 0zm0 10c4,0 7,-3 7,-7 0,-3 -3,-6 -7,-6 -3,0 -6,3 -6,6 0,4 3,7 6,7zm2 3l-35 0c-3,0 -5,2 -5,4 0,2 2,4 5,4l25 0 0 -2 -25 0c-1,0 -2,-1 -2,-2 0,-1 1,-2 2,-2l35 0c1,0 2,1 2,2 0,1 -1,2 -2,2l-10 0 0 2 0 0 10 0c3,0 5,-2 5,-4 0,-2 -2,-4 -5,-4zm-33 -17l7 0c1,0 2,0 3,1l2 4c0,0 0,1 1,1l4 0c1,0 1,-1 1,-2l0 -4c0,-1 1,-1 2,-1 1,0 2,0 2,1l0 10c0,2 -1,3 -3,3l-7 0c-1,0 -2,-1 -3,-2l-3 -7c0,-1 0,-1 -1,-1l-5 0c-1,0 -2,-1 -2,-2 0,-1 1,-1 2,-1l0 0zm-4 1c0,3 2,5 4,5l4 0 3 6c0,2 2,3 5,3l7 0c3,0 6,-2 6,-5l0 -10c0,-2 -2,-4 -5,-4 -2,0 -4,2 -4,4l0 3 -2 0 -2 -3c-1,-2 -3,-3 -5,-3l-7 0c-2,0 -4,2 -4,4zm-16 1l4 3 2 -1 -4 -4 -3 -3c0,0 -1,0 -2,0l-4 5c-1,0 -1,1 -1,1l7 14 -6 0c0,0 -1,1 -1,1l-5 25c0,0 -1,1 -1,1 -1,0 -2,-1 -2,-1l-5 -25c0,0 0,-1 -1,-1l-6 0 4 -7 2 -4 -2 -1 -3 4 -4 9c0,1 0,2 1,2l7 0 5 23c0,2 2,3 4,3 2,0 3,-1 4,-3l4 -23 7 0c1,0 2,-1 1,-2l-7 -15 3 -3 2 2zm17 4c0,-1 -1,-2 -2,-3l-11 -11c1,-3 0,-6 -2,-8 -3,-3 -8,-3 -11,0l-2 3c-6,5 -10,11 -13,18l2 1c3,-7 7,-13 13,-18l2 -2c2,-2 5,-2 7,0 2,2 2,4 2,6 0,0 0,1 0,1l11 12c1,1 1,2 0,3 -1,1 -2,1 -3,0l-4 -4 -2 1 4 5c1,1 3,1 4,1 2,0 3,-1 4,-2 0,-1 1,-2 1,-3l0 0zm-8 -36c3,0 6,3 6,6 0,4 -3,7 -6,7 -4,0 -6,-3 -6,-7 0,-3 2,-6 6,-6zm0 15c4,0 8,-4 8,-9 0,-4 -4,-8 -8,-8 -5,0 -9,4 -9,8 0,5 4,9 9,9z"/>
 </g>
</svg>
