<?xml version="1.0" encoding="UTF-8"?>
<!DOCTYPE svg PUBLIC "-//W3C//DTD SVG 1.1//EN" "http://www.w3.org/Graphics/SVG/1.1/DTD/svg11.dtd">
<!-- Creator: CorelDRAW X7 -->
<svg xmlns="http://www.w3.org/2000/svg" xml:space="preserve" width="17mm" height="17mm" version="1.1" style="shape-rendering:geometricPrecision; text-rendering:geometricPrecision; image-rendering:optimizeQuality; fill-rule:evenodd; clip-rule:evenodd"
viewBox="0 0 25 25"
 xmlns:xlink="http://www.w3.org/1999/xlink">
 <defs>
  <style type="text/css">
   <![CDATA[
    .fil1bench {fill:#FEFEFE}
    .filbench {fill:#0CB6B5}
   ]]>
  </style>
 </defs>
 <g id="LOGOS">
  <metadata id="CorelCorpID_0Corel-Layer"/>
  <circle class="filbench" cx="12" cy="12" r="12"/>
  <g id="_2438318841488">
   <polygon class="fil1bench" points="3,14 22,14 22,11 3,11 "/>
   <path class="fil1bench" d="M6 10l1 0c0,0 1,-1 1,-2l0 2 3 0 0 -2c1,1 1,2 1,2l2 0c0,0 -1,-2 -2,-3 0,0 0,0 0,-1 -1,0 -1,0 -2,0 -1,0 -2,0 -3,1 0,0 0,1 -1,1 0,1 0,2 0,2z"/>
   <polygon class="fil1bench" points="3,15 22,15 22,15 3,15 "/>
   <path class="fil1bench" d="M9 2c0,0 -1,1 -1,2 0,1 1,1 2,1 1,0 1,-1 1,-2 0,0 -1,-1 -2,-1z"/>
   <path class="fil1bench" d="M14 10l1 0c0,0 0,0 0,-1l0 1 2 0c0,0 0,0 0,-1l1 1 0 0c0,0 0,-1 0,-1 -1,-1 -1,-1 -2,-1 0,0 -1,0 -1,0 0,0 -1,2 -1,2z"/>
   <path class="fil1bench" d="M16 5c-1,1 -1,3 1,2 1,0 1,-2 -1,-2z"/>
   <path class="fil1bench" d="M11 19l0 -3 -1 0 0 3c1,0 1,0 1,0z"/>
   <path class="fil1bench" d="M9 16l-1 0c0,0 0,0 0,0l0 3 1 0 0 -3z"/>
   <polygon class="fil1bench" points="5,20 6,20 6,16 5,16 "/>
   <polygon class="fil1bench" points="19,20 20,20 20,16 19,16 "/>
   <path class="fil1bench" d="M18 16c0,0 -1,0 -1,0l0 1 1 0 0 -1z"/>
   <path class="fil1bench" d="M15 16c0,0 0,0 -1,0l0 1 1 0 0 -1z"/>
  </g>
 </g>
</svg>
