<svg id="Layer_1" data-name="Layer 1" xmlns="http://www.w3.org/2000/svg" viewBox="0 0 200 200"><defs><style>.cls-1{fill:#00b6b6;}.cls-2{fill:#fff;stroke:#00b6b6;stroke-miterlimit:10;stroke-width:2px;}</style></defs><rect class="cls-1" width="200" height="200"/><path class="cls-2" d="M67.41,128a9.31,9.31,0,1,0,9.31,9.31A9.31,9.31,0,0,0,67.41,128Zm0,14a4.66,4.66,0,1,1,4.66-4.66A4.66,4.66,0,0,1,67.41,142Z"/><path class="cls-2" d="M137.24,128a9.31,9.31,0,1,0,9.31,9.31A9.31,9.31,0,0,0,137.24,128Zm0,14a4.66,4.66,0,1,1,4.66-4.66A4.66,4.66,0,0,1,137.24,142Z"/><path class="cls-2" d="M165.17,104.72a2.33,2.33,0,0,0-2.07-2.31l-20.2-2.24-20-18a7.08,7.08,0,0,0,2.53-3.92A7,7,0,0,0,120.1,70a7.06,7.06,0,0,0-2.67-.06,9.32,9.32,0,0,0-16.24,0,7,7,0,0,0-8.07,5.68,6.86,6.86,0,0,0,0,2.67,5.31,5.31,0,0,0,.26.86H88a6.54,6.54,0,0,0,.26-.86,7,7,0,0,0-8-8.35,9.32,9.32,0,0,0-16.23,0,7,7,0,0,0-8,8.35,7.3,7.3,0,0,0,3.25,4.46l-14,22h-8a2.32,2.32,0,0,0-2.32,2.33v23.28H30.17v14h20a18.6,18.6,0,0,0,34.5,0H120a18.6,18.6,0,0,0,34.5,0h15.34v-14h-4.66Zm-4.65,7h-9.31v-5.94l9.31,1ZM97.73,77.32a2.33,2.33,0,0,1,3.53-2.48,2.33,2.33,0,0,0,3.22-.69,2.53,2.53,0,0,0,.31-.74,4.64,4.64,0,0,1,9,0,2.33,2.33,0,0,0,2.79,1.74,2.12,2.12,0,0,0,.74-.31,2.33,2.33,0,0,1,3.54,2.48,2.59,2.59,0,0,1-2.28,1.8H100a2.57,2.57,0,0,1-2.27-1.8ZM61,75.32A2.31,2.31,0,0,1,64,74.84a2.33,2.33,0,0,0,3.22-.69,2.55,2.55,0,0,0,.32-.74,4.64,4.64,0,0,1,9,0,2.33,2.33,0,0,0,2.79,1.74,2.29,2.29,0,0,0,.74-.31,2.33,2.33,0,0,1,3.53,2.48,2.6,2.6,0,0,1-2.27,1.8H62.76a2.59,2.59,0,0,1-2.28-1.8,2.37,2.37,0,0,1,.47-2ZM39.48,109.38h4.66V114H39.48Zm0,9.31h7a2.33,2.33,0,0,0,2.33-2.33v-8.63L64,83.77h53.69l22.61,20.35a2.35,2.35,0,0,0,1.3.59l4.91.55V114a2.33,2.33,0,0,0,2.33,2.33h11.64v14h-6a18.6,18.6,0,0,0-34.5,0H84.66a18.6,18.6,0,0,0-34.5,0H39.48Zm-4.65,20.95V135H49a17.31,17.31,0,0,0,0,4.66Zm32.58,11.64a14,14,0,1,1,14-14A14,14,0,0,1,67.41,151.28Zm18.46-11.64a16.53,16.53,0,0,0,0-4.66h32.91a17.31,17.31,0,0,0,0,4.66Zm51.37,11.64a14,14,0,1,1,14-14A14,14,0,0,1,137.24,151.28Zm27.93-11.64H155.7a16.53,16.53,0,0,0,0-4.66h9.47Z"/><path class="cls-2" d="M55.77,111.71h79.14a2.33,2.33,0,0,0,2.33-2.33,2.31,2.31,0,0,0-.78-1.74L115.51,89a2.3,2.3,0,0,0-1.54-.59H67.41a2.32,2.32,0,0,0-2,1.09L53.8,108.14a2.34,2.34,0,0,0,2,3.57Zm73-4.66H95.34v-14h17.74Zm-60.09-14h22v14H60Z"/><path class="cls-2" d="M81.38,116.36h9.31V121H81.38Z"/><path class="cls-2" d="M95.34,116.36h9.32V121H95.34Z"/><path class="cls-2" d="M146.55,88.43a7,7,0,1,0-7-7A7,7,0,0,0,146.55,88.43Zm0-9.31a2.33,2.33,0,1,1-2.32,2.33A2.33,2.33,0,0,1,146.55,79.12Z"/><path class="cls-2" d="M93,53.51a9.31,9.31,0,1,0-9.31,9.31A9.31,9.31,0,0,0,93,53.51Zm-14,0a4.66,4.66,0,1,1,4.66,4.66A4.66,4.66,0,0,1,79.05,53.51Z"/><path class="cls-2" d="M32.5,86.1a9.31,9.31,0,1,0,9.31-9.31A9.31,9.31,0,0,0,32.5,86.1Zm14,0a4.66,4.66,0,1,1-4.65-4.65A4.66,4.66,0,0,1,46.46,86.1Z"/><path class="cls-2" d="M58.1,60.5a7,7,0,1,0-7,7A7,7,0,0,0,58.1,60.5Zm-9.31,0a2.33,2.33,0,1,1,2.33,2.32A2.33,2.33,0,0,1,48.79,60.5Z"/><path class="cls-2" d="M134.91,53.51a9.32,9.32,0,1,0,9.32,9.31A9.31,9.31,0,0,0,134.91,53.51Zm0,14a4.66,4.66,0,1,1,4.66-4.66A4.65,4.65,0,0,1,134.91,67.48Z"/></svg>