<?xml version="1.0" encoding="UTF-8"?>
<!DOCTYPE svg PUBLIC "-//W3C//DTD SVG 1.0//EN" "http://www.w3.org/TR/2001/REC-SVG-20010904/DTD/svg10.dtd">
<!-- Creator: CorelDRAW X7 -->
<svg xmlns="http://www.w3.org/2000/svg" xml:space="preserve" width="70.3097mm" height="70.3096mm" version="1.0" style="shape-rendering:geometricPrecision; text-rendering:geometricPrecision; image-rendering:optimizeQuality; fill-rule:evenodd; clip-rule:evenodd"
viewBox="0 0 758 758"
 xmlns:xlink="http://www.w3.org/1999/xlink">
 <defs>
  <style type="text/css">
   <![CDATA[
    .fil0 {fill:#00B6B6;fill-rule:nonzero}
    .fil1 {fill:white;fill-rule:nonzero}
   ]]>
  </style>
 </defs>
 <g id="__x0023_Layer_x0020_1">
  <metadata id="CorelCorpID_0Corel-Layer"/>
  <path class="fil0" d="M758 379c0,210 -169,379 -379,379 -209,0 -379,-169 -379,-379 0,-209 170,-379 379,-379 210,0 379,170 379,379z"/>
  <path class="fil1" d="M272 471c-20,0 -35,16 -35,35 0,20 15,36 35,36 20,0 35,-16 35,-36 0,-19 -15,-35 -35,-35zm0 53l0 0c-10,0 -18,-8 -18,-18 0,-10 8,-18 18,-18 10,0 18,8 18,18 0,10 -8,18 -18,18z"/>
  <path class="fil1" d="M527 471c-20,0 -36,16 -36,36 0,19 16,35 36,35 19,0 35,-16 35,-35 0,-20 -16,-36 -35,-36zm0 54l0 0c-10,0 -18,-8 -18,-18 0,-10 8,-18 18,-18 10,0 18,8 18,18 0,10 -8,18 -18,18z"/>
  <path class="fil1" d="M628 387c0,-4 -3,-8 -8,-8l-73 -8 -73 -66c4,-4 8,-9 9,-14 3,-14 -6,-28 -19,-30 -4,-1 -7,-1 -10,-1 -9,-16 -30,-22 -46,-13 -6,3 -10,8 -13,13 -14,-2 -27,7 -30,21 0,3 0,7 0,10 1,1 1,2 1,3l-20 0c1,-1 1,-2 1,-3 3,-14 -6,-28 -19,-30 -3,-1 -7,-1 -10,-1 -9,-16 -30,-22 -46,-13 -6,3 -10,8 -13,13 -14,-2 -27,7 -30,21 0,3 0,7 1,10 1,7 5,12 11,16l-51 80 -29 0c-5,0 -8,4 -8,9l0 85 -17 0 0 51 73 0c14,34 53,51 88,37 17,-7 30,-20 37,-37l129 0c14,34 54,51 88,37 18,-7 31,-20 38,-37l56 0 0 -51 -17 0 0 -94zm-17 26l0 0 -34 0 0 -22 34 4 0 18zm-229 -126l0 0c-1,-4 2,-9 6,-10 3,0 5,0 7,1 4,3 9,2 12,-2 0,-1 0,-2 1,-3 2,-9 11,-15 20,-13 6,2 11,7 13,13 1,5 5,8 10,6 1,0 2,0 3,-1 3,-2 9,-1 11,3 2,2 2,4 1,6 -1,4 -4,7 -8,7l-68 0c-4,0 -7,-3 -8,-7zm-134 -7l0 0c3,-3 7,-4 11,-2 4,3 9,2 12,-2 0,-1 1,-2 1,-3 2,-9 11,-15 20,-13 6,2 11,7 13,13 1,5 5,8 10,6 1,0 2,0 3,-1 4,-2 9,-1 11,3 2,2 2,4 2,6 -2,4 -5,7 -9,7l-68 0c-3,0 -7,-3 -8,-7 0,-2 0,-5 2,-7l0 0zm-78 124l0 0 17 0 0 17 -17 0 0 -17zm0 34l0 0 25 0c5,0 9,-4 9,-8l0 -32 55 -87 196 0 82 74c2,1 3,2 5,2l18 2 0 32c0,5 4,9 8,9l43 0 0 51 -22 0c-14,-35 -54,-52 -88,-38 -17,7 -31,21 -38,38l-129 0c-14,-35 -53,-52 -88,-38 -17,7 -31,21 -37,38l-39 0 0 -43zm-17 77l0 0 0 -17 51 0c-1,5 -1,11 0,17l-51 0zm118 42l0 0c-28,0 -50,-23 -50,-51 0,-28 22,-51 50,-51 29,0 51,23 51,51 0,28 -22,51 -51,51zm68 -42l0 0c1,-6 1,-12 0,-17l120 0c-1,5 -1,11 0,17l-120 0zm187 42l0 0c-28,0 -51,-23 -51,-51 0,-28 23,-51 51,-51 28,0 51,23 51,51 0,28 -23,51 -51,51zm102 -42l0 0 -35 0c1,-6 1,-12 0,-17l35 0 0 17z"/>
  <path class="fil1" d="M229 413l289 0c4,0 8,-4 8,-9 0,-2 -1,-4 -3,-6l-76 -68c-2,-1 -4,-2 -6,-2l-170 0c-2,0 -5,1 -7,4l-42 68c-3,4 -1,9 2,11 2,1 3,2 5,2zm266 -17l0 0 -122 0 0 -51 65 0 57 51zm-219 -51l0 0 80 0 0 51 -112 0 32 -51z"/>
  <polygon class="fil1" points="322,430 356,430 356,447 322,447 "/>
  <polygon class="fil1" points="373,430 407,430 407,447 373,447 "/>
  <path class="fil1" d="M560 328c14,0 25,-12 25,-26 0,-14 -11,-25 -25,-25 -14,0 -25,11 -25,25 0,14 11,26 25,26zm0 -34l0 0c5,0 8,4 8,8 0,5 -3,9 -8,9 -5,0 -8,-4 -8,-9 0,-4 3,-8 8,-8z"/>
  <path class="fil1" d="M365 201c0,-19 -15,-34 -34,-34 -19,0 -34,15 -34,34 0,18 15,34 34,34 19,0 34,-16 34,-34zm-51 0l0 0c0,-10 7,-17 17,-17 9,0 17,7 17,17 0,9 -8,17 -17,17 -10,0 -17,-8 -17,-17z"/>
  <path class="fil1" d="M144 319c0,19 15,34 34,34 19,0 34,-15 34,-34 0,-18 -15,-34 -34,-34 -19,0 -34,16 -34,34zm51 0l0 0c0,10 -8,17 -17,17 -9,0 -17,-7 -17,-17 0,-9 8,-17 17,-17 9,0 17,8 17,17z"/>
  <path class="fil1" d="M237 226c0,-14 -11,-25 -25,-25 -14,0 -25,11 -25,25 0,14 11,25 25,25 14,0 25,-11 25,-25zm-33 0l0 0c0,-5 3,-8 8,-8 5,0 9,3 9,8 0,5 -4,9 -9,9 -5,0 -8,-4 -8,-9z"/>
  <path class="fil1" d="M518 201c-19,0 -34,15 -34,34 0,18 15,33 34,33 18,0 34,-15 34,-33 0,-19 -16,-34 -34,-34zm0 50l0 0c-10,0 -17,-7 -17,-16 0,-10 7,-17 17,-17 9,0 17,7 17,17 0,9 -8,16 -17,16z"/>
 </g>
</svg>
