<?xml version="1.0" encoding="UTF-8"?>
<!DOCTYPE svg PUBLIC "-//W3C//DTD SVG 1.1//EN" "http://www.w3.org/Graphics/SVG/1.1/DTD/svg11.dtd">
<!-- Creator: CorelDRAW X7 -->
<svg xmlns="http://www.w3.org/2000/svg" xml:space="preserve" width="17mm" height="17mm" version="1.1" style="shape-rendering:geometricPrecision; text-rendering:geometricPrecision; image-rendering:optimizeQuality; fill-rule:evenodd; clip-rule:evenodd"
viewBox="0 0 108 108"
 xmlns:xlink="http://www.w3.org/1999/xlink">
 <defs>
  <style type="text/css">
   <![CDATA[
    .fil0ele {fill:#FEFEFE}
    .filele {fill:#0CB6B5}
   ]]>
  </style>
 </defs>
 <g id="Layer_x0020_1">
  <metadata id="CorelCorpID_0Corel-Layer"/>
  <path class="fil0ele" d="M59 47c3,0 5,-2 5,-4 0,-3 -2,-5 -5,-5 -2,0 -4,2 -4,5 0,2 2,4 4,4zm18 -21l-9 0c0,-2 -2,-3 -3,-3l-6 0 0 -6c0,-2 -1,-3 -3,-3 -2,0 -3,1 -3,3l0 6 -7 0c-2,0 -3,1 -3,3l-8 0c-3,0 -5,2 -5,5l0 12c1,0 2,0 3,1l1 2 0 -11c0,-1 1,-1 1,-1l42 0c1,0 1,1 1,1l0 48c0,0 -1,0 -1,0l-42 0c-1,0 -1,0 -1,0l0 -6 -4 -5 0 11c0,3 2,4 5,4l43 0c3,0 4,-2 4,-4l0 -52c0,-3 -2,-5 -5,-5l0 0zm-9 31l0 0 -5 -7c0,-1 -2,-2 -4,-2 -2,0 -4,1 -4,2l-5 7 0 0 0 6c0,1 0,1 1,1 1,0 2,0 2,-1l0 -5 1 -1 0 4c0,1 0,2 0,2l-1 16c0,1 1,2 2,2 2,0 3,0 3,-1l0 -13 1 0 0 13c0,1 2,1 3,1 1,0 2,-1 2,-2l-1 -15c0,0 0,-1 0,-2l0 -4 1 2 1 4c0,2 1,2 2,2 1,0 2,-2 1,-2l0 -7 0 0zm-37 4l0 -6 3 0c1,0 1,-1 1,-1l-7 -7c0,-1 -1,-1 -1,0l-7 7c0,1 0,1 1,1l3 0 0 6c0,1 0,1 0,1l5 0c2,1 2,0 2,-1l0 0 0 0zm13 5l-3 0 0 -7c0,-1 -1,-1 -1,-1l-5 0c0,0 0,1 0,1l0 7 -3 0c-1,0 -1,0 -1,0l7 8c0,0 0,0 1,0l7 -8c-1,0 -2,0 -2,0l0 0z"/>
  <path class="filele" d="M54 108c30,0 54,-24 54,-54 0,-30 -24,-54 -54,-54 -30,0 -54,24 -54,54 0,30 24,54 54,54zm5 -61c3,0 5,-2 5,-4 0,-3 -2,-5 -5,-5 -2,0 -4,2 -4,5 0,2 2,4 4,4zm18 -21l-9 0c0,-2 -2,-3 -3,-3l-6 0 0 -6c0,-2 -1,-3 -3,-3 -2,0 -3,1 -3,3l0 6 -7 0c-2,0 -3,1 -3,3l-8 0c-3,0 -5,2 -5,5l0 12c1,0 2,0 3,1l1 2 0 -11c0,-1 1,-1 1,-1l42 0c1,0 1,1 1,1l0 48c0,0 -1,0 -1,0l-42 0c-1,0 -1,0 -1,0l0 -6 -4 -5 0 11c0,3 2,4 5,4l43 0c3,0 4,-2 4,-4l0 -52c0,-3 -2,-5 -5,-5l0 0zm-9 31l0 0 -5 -7c0,-1 -2,-2 -4,-2 -2,0 -4,1 -4,2l-5 7 0 0 0 6c0,1 0,1 1,1 1,0 2,0 2,-1l0 -5 1 -1 0 4c0,1 0,2 0,2l-1 16c0,1 1,2 2,2 2,0 3,0 3,-1l0 -13 1 0 0 13c0,1 2,1 3,1 1,0 2,-1 2,-2l-1 -15c0,0 0,-1 0,-2l0 -4 1 2 1 4c0,2 1,2 2,2 1,0 2,-2 1,-2l0 -7 0 0zm-37 4l0 -6 3 0c1,0 1,-1 1,-1l-7 -7c0,-1 -1,-1 -1,0l-7 7c0,1 0,1 1,1l3 0 0 6c0,1 0,1 0,1l5 0c2,1 2,0 2,-1l0 0 0 0zm13 5l-3 0 0 -7c0,-1 -1,-1 -1,-1l-5 0c0,0 0,1 0,1l0 7 -3 0c-1,0 -1,0 -1,0l7 8c0,0 0,0 1,0l7 -8c-1,0 -2,0 -2,0l0 0z"/>
  <path class="fil0ele" d="M59 47c3,0 5,-2 5,-4 0,-3 -2,-5 -5,-5 -2,0 -4,2 -4,5 0,2 2,4 4,4zm18 -21l-9 0c0,-2 -2,-3 -3,-3l-6 0 0 -6c0,-2 -1,-3 -3,-3 -2,0 -3,1 -3,3l0 6 -7 0c-2,0 -3,1 -3,3l-8 0c-3,0 -5,2 -5,5l0 12c1,0 2,0 3,1l1 2 0 -11c0,-1 1,-1 1,-1l42 0c1,0 1,1 1,1l0 48c0,0 -1,0 -1,0l-42 0c-1,0 -1,0 -1,0l0 -6 -4 -5 0 11c0,3 2,4 5,4l43 0c3,0 4,-2 4,-4l0 -52c0,-3 -2,-5 -5,-5l0 0zm-9 31l0 0 -5 -7c0,-1 -2,-2 -4,-2 -2,0 -4,1 -4,2l-5 7 0 0 0 6c0,1 0,1 1,1 1,0 2,0 2,-1l0 -5 1 -1 0 4c0,1 0,2 0,2l-1 16c0,1 1,2 2,2 2,0 3,0 3,-1l0 -13 1 0 0 13c0,1 2,1 3,1 1,0 2,-1 2,-2l-1 -15c0,0 0,-1 0,-2l0 -4 1 2 1 4c0,2 1,2 2,2 1,0 2,-2 1,-2l0 -7 0 0zm-37 4l0 -6 3 0c1,0 1,-1 1,-1l-7 -7c0,-1 -1,-1 -1,0l-7 7c0,1 0,1 1,1l3 0 0 6c0,1 0,1 0,1l5 0c2,1 2,0 2,-1l0 0 0 0zm13 5l-3 0 0 -7c0,-1 -1,-1 -1,-1l-5 0c0,0 0,1 0,1l0 7 -3 0c-1,0 -1,0 -1,0l7 8c0,0 0,0 1,0l7 -8c-1,0 -2,0 -2,0l0 0z"/>
 </g>
</svg>
