<svg xmlns="http://www.w3.org/2000/svg" viewBox="0 0 200 200"><defs><style>.cls-1{fill:#00b6b6;}.cls-2{fill:#fff;stroke:#00b6b6;stroke-miterlimit:10;stroke-width:2.34px;}</style></defs><g id="Layer_2" data-name="Layer 2"><g id="Layer_1-2" data-name="Layer 1"><circle class="cls-1" cx="100" cy="100" r="100"/><path class="cls-2" d="M55.49,60.17H50.21a3.32,3.32,0,1,0,0,6.63H63.49a3.32,3.32,0,0,0,3.32-3.32V50.21a3.32,3.32,0,0,0-6.64,0v5.28L45.93,41.21a3.33,3.33,0,0,0-4.71,4.72Z"/><path class="cls-2" d="M63.49,133.19H50.21a3.32,3.32,0,1,0,0,6.64h5.28L41.22,154.07a3.32,3.32,0,0,0,0,4.69l0,0a3.32,3.32,0,0,0,4.69,0l0,0,14.24-14.27v5.27a3.32,3.32,0,0,0,6.64,0V136.51A3.32,3.32,0,0,0,63.49,133.19Z"/><path class="cls-2" d="M136.51,66.8h13.28a3.32,3.32,0,1,0,0-6.63h-5.28l14.27-14.24a3.33,3.33,0,1,0-4.71-4.72h0L139.83,55.49V50.21a3.32,3.32,0,0,0-6.64,0V63.48A3.32,3.32,0,0,0,136.51,66.8Z"/><path class="cls-2" d="M144.51,139.83h5.28a3.32,3.32,0,1,0,0-6.64H136.51a3.32,3.32,0,0,0-3.32,3.32v13.27a3.32,3.32,0,0,0,6.64,0v-5.27l14.24,14.27a3.33,3.33,0,0,0,4.7,0v0a3.31,3.31,0,0,0,0-4.69l0,0Z"/><path class="cls-2" d="M136.51,118.25v-6.64a16.6,16.6,0,0,0-7.33-13.77,13,13,0,0,0,4-9.46A13.27,13.27,0,0,0,107.44,84a13.26,13.26,0,0,0-14.87,0,13.28,13.28,0,0,0-25.76,4.35,13.07,13.07,0,0,0,4,9.46,16.6,16.6,0,0,0-7.33,13.77v6.64a3.32,3.32,0,0,0,3.32,3.32H83.4v3.32a3.32,3.32,0,0,0,3.32,3.32h26.56a3.32,3.32,0,0,0,3.32-3.32v-3.32h16.59A3.31,3.31,0,0,0,136.51,118.25ZM119.92,81.74a6.64,6.64,0,1,1-6.64,6.64A6.63,6.63,0,0,1,119.92,81.74ZM100,88.38A6.64,6.64,0,1,1,93.36,95,6.64,6.64,0,0,1,100,88.38ZM80.09,81.74a6.64,6.64,0,1,1-6.64,6.64A6.63,6.63,0,0,1,80.09,81.74Zm8.29,24.7a16.32,16.32,0,0,0-4.64,8.49H70.13v-3.32a9.91,9.91,0,0,1,18.32-5.27ZM110,121.57H90v-3.32a10,10,0,0,1,19.92,0Zm19.91-6.64H116.26a16.32,16.32,0,0,0-4.64-8.49h0a9.82,9.82,0,0,1,18.25,5.17Z"/></g></g></svg>