<?xml version="1.0" encoding="utf-8"?>
<!-- Generator: Adobe Illustrator 24.1.2, SVG Export Plug-In . SVG Version: 6.00 Build 0)  -->
<svg version="1.1" id="Layer_1" xmlns="http://www.w3.org/2000/svg" xmlns:xlink="http://www.w3.org/1999/xlink" x="0px" y="0px"
	 viewBox="0 0 200 200" style="enable-background:new 0 0 200 200;" xml:space="preserve">
<style type="text/css">
	.st0{fill:#00B6B6;}
	.st1{fill:#FFFFFF;}
</style>
<rect class="st0" width="200" height="200"/>
<g>
	<g>
		<g>
			<path class="st1" d="M157.42,140.86h-1.74c0.02-0.25,0.02-0.49,0-0.74V47.21c0-2.85-2.31-5.16-5.16-5.16h-50.44
				c-2.85,0-5.16,2.31-5.16,5.16v38.34c-4.8,1.17-9,4.06-11.8,8.14c-3.43,4.94-4.48,11.14-2.89,16.93
				c2.12,8.14,2.39,18.94-2.01,23.42c-2.53,2.24-6.09,2.91-9.26,1.74c-3.41-0.54-6.32-2.76-7.76-5.9
				c-4.69-10.82,7.02-31.29,7.05-31.38c0.71-1.06,17.02-26.4,0.35-41.29c-0.68-0.71-16.75-17.7-29.17-16.05
				c-1.26,0.16-2.15,1.32-1.99,2.58c0.16,1.26,1.32,2.15,2.58,1.99c2.98-0.18,5.96,0.49,8.58,1.92l-3.3,3.98
				c-1.79,2.22-1.44,5.47,0.78,7.26c0.04,0.03,0.07,0.06,0.11,0.09l11.09,8.85c0.91,0.73,2.05,1.13,3.22,1.12h0.44
				c1.36-0.15,2.6-0.84,3.45-1.92l3.22-4.04c9.97,12.74-2.95,33.04-3.27,33.36c-0.53,0.91-12.92,22.59-7.37,35.39
				c2.05,4.44,6.17,7.58,11,8.38c1.49,0.36,3.01,0.55,4.54,0.56c3.31,0.1,6.51-1.17,8.85-3.51c5.9-6.16,5.43-18.73,3.13-27.64
				c-2.45-8.2,2.19-16.84,10.38-19.32v49.91c-0.02,0.25-0.02,0.49,0,0.74h-1.47c-2.85-0.07-5.21,2.19-5.28,5.04
				c0,0.04,0,0.08,0,0.12v7.76c0,2.85,2.31,5.16,5.16,5.16c0.04,0,0.08,0,0.12,0h64.03c2.85,0,5.16-2.31,5.16-5.16v-7.76
				C162.58,143.17,160.27,140.86,157.42,140.86z M64.21,60.25l-3.27,4.04c-0.12,0.15-0.31,0.25-0.5,0.27
				c-0.19,0.02-0.38-0.03-0.53-0.15l-11.09-8.85c-0.28-0.29-0.28-0.75,0-1.03l3.27-4.07c0.12-0.15,0.31-0.25,0.5-0.27
				c0.19-0.02,0.38,0.03,0.53,0.15l11.09,8.85c0.15,0.12,0.25,0.3,0.27,0.5C64.47,59.91,64.38,60.11,64.21,60.25z M99.28,47.21
				c0-0.41,0.33-0.74,0.74-0.74h50.56c0.41,0,0.74,0.33,0.74,0.74v92.91c0,0.41-0.33,0.74-0.74,0.74h-50.5
				c-0.41,0.03-0.76-0.27-0.79-0.68c0-0.02,0-0.04,0-0.06L99.28,47.21L99.28,47.21z M158.27,153.78c0,0.41-0.33,0.74-0.74,0.74
				H93.38c-0.41,0-0.74-0.33-0.74-0.74v-7.76c0-0.41,0.33-0.74,0.74-0.74h64.03c0.4-0.07,0.78,0.21,0.85,0.61
				c0.01,0.04,0.01,0.08,0.01,0.13V153.78z"/>
		</g>
	</g>
	<g>
		<g>
			<path class="st1" d="M140.57,53.5h-30.56c-2.85,0-5.16,2.31-5.16,5.16v30.59c0,2.85,2.31,5.16,5.16,5.16h30.56
				c2.85,0,5.16-2.31,5.16-5.16V58.66C145.74,55.81,143.42,53.5,140.57,53.5z M141.31,89.28c-0.02,0.4-0.34,0.71-0.74,0.71h-30.56
				c-0.41,0-0.74-0.33-0.74-0.74V58.66c0-0.41,0.33-0.74,0.74-0.74h30.56c0.41,0,0.74,0.33,0.74,0.74V89.28z"/>
		</g>
	</g>
	<g>
		<g>
			<path class="st1" d="M137.12,102.75h-23.6c-1.22,0-2.21,0.99-2.21,2.21s0.99,2.21,2.21,2.21h23.6c1.22,0,2.21-0.99,2.21-2.21
				S138.34,102.75,137.12,102.75z"/>
		</g>
	</g>
</g>
</svg>
