<?xml version="1.0" encoding="UTF-8"?>
<!DOCTYPE svg PUBLIC "-//W3C//DTD SVG 1.1//EN" "http://www.w3.org/Graphics/SVG/1.1/DTD/svg11.dtd">
<!-- Creator: CorelDRAW X7 -->
<svg xmlns="http://www.w3.org/2000/svg" xml:space="preserve" width="17mm" height="17mm" version="1.1" style="shape-rendering:geometricPrecision; text-rendering:geometricPrecision; image-rendering:optimizeQuality; fill-rule:evenodd; clip-rule:evenodd"
viewBox="0 0 176 176"
 xmlns:xlink="http://www.w3.org/1999/xlink">
 <defs>
  <style type="text/css">
   <![CDATA[
    .fil0fire {fill:#FEFEFE}
    .filfire {fill:#0CB6B5}
   ]]>
  </style>
 </defs>
 <g id="Layer_x0020_1">
  <metadata id="CorelCorpID_0Corel-Layer"/>
  <circle class="fil0fire" cx="88" cy="88" r="83"/>
  <path class="filfire" d="M88 176c49,0 88,-39 88,-88 0,-49 -39,-88 -88,-88 -49,0 -88,39 -88,88 0,49 39,88 88,88zm-20 -86c0,1 -2,1 -3,2 -1,0 -2,1 -2,2 0,2 0,3 2,3 3,-1 3,-3 4,-5 1,1 4,6 2,7 0,3 -4,4 -5,6l-1 1c0,1 -1,1 0,2 1,1 1,1 2,0 1,0 2,0 3,-1l0 2c-1,1 -2,2 -2,3 -1,1 -2,2 -3,3 -1,2 -7,3 -10,2 -1,0 -2,-1 -2,-1 -1,-1 -2,-2 -3,-2 -1,-2 -2,-2 -3,-5 -1,-2 -2,-8 0,-10 1,-2 2,-4 1,-7 -1,-1 -1,-2 -1,-3 3,0 4,5 6,6 1,-1 1,-5 3,-8 2,-2 5,-1 9,-2 2,0 3,-1 5,-2 0,-1 0,-1 1,-1 1,1 -1,7 -3,8zm-1 -9c0,0 0,0 0,0 0,1 0,1 -1,1 0,0 0,1 -1,1l0 0c0,0 0,0 0,0 -1,0 -2,1 -3,1 0,-3 1,-3 2,-4 3,-2 1,-3 3,-4 0,1 1,4 0,5zm17 -4c0,0 -6,5 -7,5 -1,1 -3,0 -3,-2 -1,-2 1,-3 3,-5l5 -4c2,-1 2,-2 5,-1 2,0 3,0 5,1 0,0 1,0 1,0 0,0 0,0 1,0 0,0 0,0 0,0 1,0 3,1 3,1 2,1 2,1 3,2 0,0 3,4 3,5 0,0 0,0 0,1 1,0 1,0 1,1l2 4 7 0c1,0 3,0 4,0 1,1 1,2 1,4 -1,1 -2,1 -4,1l-4 0c0,0 0,0 0,0 -1,0 -6,0 -7,0 -2,-1 -2,-2 -3,-3l-1 -3c0,0 -1,-1 -1,-1 0,0 0,0 0,0l-4 7c-1,1 -1,1 -2,2 0,0 -1,1 -1,2 1,0 2,1 3,1 1,1 1,2 2,2 1,1 2,1 3,2 2,1 3,3 1,5 0,2 -1,4 -2,5 -1,1 -1,3 -2,4 -1,1 -1,3 -2,3 -1,0 0,0 -1,1 -2,0 -6,-1 -3,-6 0,0 0,-2 1,-2 0,-1 1,-2 1,-2 1,-1 1,-2 1,-3l1 -1 -1 0c0,-1 -1,-1 -2,-2 0,0 -2,-1 -2,-1 -1,-1 -3,-2 -4,-3l-1 1c0,0 0,0 0,0 0,0 -1,1 -1,1l-3 5c-2,1 -3,1 -5,1l-1 0c-1,-1 0,-1 -1,-1 -1,1 -2,0 -4,0 1,0 2,-1 3,-2 1,-2 1,-2 2,-4l2 0c1,-2 5,-6 7,-8 0,-1 5,-9 6,-10 0,-1 1,-2 2,-3 -1,0 -3,-1 -4,-1 -2,0 -1,-1 -3,1zm19 -14c5,-2 9,3 8,8 -1,2 -3,4 -6,4 0,0 -2,0 -2,-1 -1,0 -2,0 -3,-1 0,-1 -1,-1 -1,-2 -1,-4 1,-8 4,-8zm-10 -33l0 1 0 23c-2,0 -5,0 -8,0 -16,0 -32,0 -48,0 -3,0 -4,1 -5,3 -1,2 -1,28 -1,32 0,5 0,11 0,16 0,5 0,11 0,16 1,3 2,4 4,5l58 0c1,4 0,21 1,24 2,1 3,-2 5,-3 0,0 1,-1 2,-2 0,0 2,-2 2,-2 0,-1 2,-3 3,-3 0,-1 1,-2 2,-2 1,-1 4,-4 5,-5 0,0 2,-2 2,-2 1,-1 2,-2 3,-3 0,0 4,-4 4,-4 0,-1 5,-5 5,-5l5 -5c0,0 2,-2 2,-2 1,-1 1,-1 2,-2 0,0 1,-1 1,-1 1,-1 2,-1 2,-2 1,-1 1,-2 3,-2 0,-1 4,-5 5,-5 0,-1 3,-4 4,-5 0,-1 4,-3 5,-5 0,-1 -1,-1 -1,-2 -1,0 -1,-1 -2,-1 -1,-1 -1,-2 -2,-3l-4 -3c-1,-1 -2,-2 -3,-3 -1,-1 -2,-2 -3,-3l-4 -4c0,0 -1,-1 -1,-1 -1,-1 -1,-1 -2,-2 -1,-1 -2,-2 -2,-3l-4 -4c-1,0 0,0 -1,0l-2 -2c-1,-1 -2,-2 -3,-3 0,0 -4,-4 -4,-4 -1,-1 -1,-1 -1,-1 -1,-1 -1,-1 -2,-2 -1,-1 -2,-2 -3,-3l-4 -4 -4 -4c0,0 -1,-1 -1,-1l-4 -4c-1,-1 -2,-2 -3,-3 -1,-1 -1,-1 -3,0z"/>
 </g>
</svg>
