<svg id="Layer_1" data-name="Layer 1" xmlns="http://www.w3.org/2000/svg" viewBox="0 0 200 200"><defs><style>.cls-1{fill:#00b6b6;}.cls-2{fill:#fff;stroke:#00b6b6;stroke-miterlimit:10;}</style></defs><rect class="cls-1" width="200" height="200"/><path class="cls-2" d="M152.14,77.72V68L140.26,44.2H59.74L47.86,68v9.75a7.45,7.45,0,0,0,3.72,6.42v34.55H47.86v37.25H152.14V118.69h-3.72V84.14A7.45,7.45,0,0,0,152.14,77.72ZM138,47.93l10.46,20.92v1.42h-7.91l-6.38-22.34Zm-7.71,0,6.39,22.34h-7.09l-3.19-22.34Zm7,26.07v3.72a3.72,3.72,0,1,1-7.44,0V74ZM118.62,47.93h4l3.2,22.34h-7.17Zm0,26.07h7.45v3.72a3.73,3.73,0,1,1-7.45,0ZM107.45,47.93h7.45V70.27h-7.45Zm0,26.07h7.45v3.72a3.73,3.73,0,1,1-7.45,0ZM96.28,47.93h7.44V70.27H96.28Zm0,26.07h7.44v3.72a3.72,3.72,0,1,1-7.44,0ZM85.1,47.93h7.45V70.27H85.1ZM85.1,74h7.45v3.72a3.73,3.73,0,1,1-7.45,0Zm-1.86,8.6a7.35,7.35,0,0,0,10.36.81,7.74,7.74,0,0,0,.81-.81,7.35,7.35,0,0,0,10.36.81,7,7,0,0,0,.82-.81,7.35,7.35,0,0,0,10.36.81,7.74,7.74,0,0,0,.81-.81,7.35,7.35,0,0,0,10.36.81,7.74,7.74,0,0,0,.81-.81,7.35,7.35,0,0,0,10.36.81,7,7,0,0,0,.82-.81,7.36,7.36,0,0,0,5.58,2.57v33.52H141v-14.9h-5.59V98.21a5.58,5.58,0,0,0-3.19-5l1.24-3.7-3.54-1.18-1.51,4.52a5.66,5.66,0,0,0-2.31,1.25,5.43,5.43,0,0,0-1.33-.89L126,89.49l-3.54-1.18-1.51,4.51a5.66,5.66,0,0,0-2.31,1.25,5.43,5.43,0,0,0-1.33-.89l1.24-3.69L115,88.31l-1.51,4.51a5.59,5.59,0,0,0-4.17,5.39v5.58h-5.59v14.9H96.28v-1.86a9.32,9.32,0,0,0-7.47-9.12c0-.07,0-.13,0-.19v-1.86a9.32,9.32,0,0,0-9.31-9.31H77.65a3.71,3.71,0,0,0-3.38,2.19,9.22,9.22,0,0,0-5.93-2.19H66.48a3.71,3.71,0,0,0-3.72,3.72v1.86a9.19,9.19,0,0,0,1.91,5.59H62.76A3.73,3.73,0,0,0,59,111.24v1.87a9.23,9.23,0,0,0,1.91,5.58H55.31V85.17a7.36,7.36,0,0,0,5.58-2.57,7.35,7.35,0,0,0,10.36.81,7,7,0,0,0,.82-.81,7.35,7.35,0,0,0,10.36.81A7.74,7.74,0,0,0,83.24,82.6Zm33.52,24.92h20.48v11.17H107.45V107.52ZM113,103.79V98.21a1.86,1.86,0,0,1,3.72,0v5.58Zm7.44,0V98.21a1.87,1.87,0,0,1,3.73,0v5.58Zm7.45,0V98.21a1.87,1.87,0,0,1,3.73,0v5.58Zm-61.45-1.86v-1.86h1.86a5.59,5.59,0,0,1,5.59,5.59v1.86H72.07A5.59,5.59,0,0,1,66.48,101.93Zm3.72,14.9v1.86H68.34a5.58,5.58,0,0,1-5.58-5.58v-1.87h1.86A5.58,5.58,0,0,1,70.2,116.83Zm3.73-5.59h1.86a5.59,5.59,0,0,1,5.59,5.59v1.86H79.52a5.58,5.58,0,0,1-5.59-5.58Zm3.72-9.31v-1.86h1.87a5.58,5.58,0,0,1,5.58,5.59v1.86H83.24A5.59,5.59,0,0,1,77.65,101.93Zm7.45,9.31H87a5.59,5.59,0,0,1,5.59,5.59v1.86H90.69a5.58,5.58,0,0,1-5.59-5.58ZM62.76,77.72V74H70.2v3.72a3.72,3.72,0,1,1-7.44,0ZM77.41,47.93h4V70.27H74.21ZM73.93,74h7.45v3.72a3.73,3.73,0,1,1-7.45,0Zm-.29-26.07L70.45,70.27H63.36l6.39-22.34ZM51.58,68.85,62,47.93h3.83L59.49,70.27H51.58Zm0,5.15H59v3.72a3.73,3.73,0,1,1-7.45,0Zm96.84,78.21H51.58V122.42h96.84Zm-3.73-70.76A3.73,3.73,0,0,1,141,77.72V74h7.45v3.72A3.73,3.73,0,0,1,144.69,81.45Z"/><rect class="cls-2" x="111.17" y="111.24" width="22.35" height="3.72"/></svg>