<?xml version="1.0" encoding="UTF-8"?>
<!DOCTYPE svg PUBLIC "-//W3C//DTD SVG 1.0//EN" "http://www.w3.org/TR/2001/REC-SVG-20010904/DTD/svg10.dtd">
<!-- Creator: CorelDRAW X7 -->
<svg xmlns="http://www.w3.org/2000/svg" xml:space="preserve" width="60.4955mm" height="60.4955mm" version="1.0" style="shape-rendering:geometricPrecision; text-rendering:geometricPrecision; image-rendering:optimizeQuality; fill-rule:evenodd; clip-rule:evenodd"
viewBox="0 0 572 572"
 xmlns:xlink="http://www.w3.org/1999/xlink">
 <defs>
  <style type="text/css">
   <![CDATA[
    .fil0 {fill:#00B6B6;fill-rule:nonzero}
    .fil1 {fill:white;fill-rule:nonzero}
   ]]>
  </style>
 </defs>
 <g id="__x0023_Layer_x0020_1">
  <metadata id="CorelCorpID_0Corel-Layer"/>
  <path class="fil0" d="M572 286c0,-158 -128,-286 -286,-286 -158,0 -286,128 -286,286 0,158 128,286 286,286 158,0 286,-128 286,-286z"/>
  <path class="fil1" d="M457 207l0 -30 -37 -74 -252 0 -37 74 0 30c0,9 5,16 12,20l0 108 -12 0 0 116 326 0 0 -116 -12 0 0 -108c7,-4 12,-11 12,-20zm-45 -93l0 0 33 66 0 4 -23 0 -2 0 -20 -70 12 0zm-24 0l0 0 20 70 -21 0 -1 0 -10 -70 12 0zm22 82l0 0 0 11c0,7 -5,12 -12,12 -6,0 -11,-5 -11,-12l0 -11 23 0zm-58 -82l0 0 12 0 10 70 -22 0 0 -70zm0 82l0 0 23 0 0 11c0,7 -5,12 -11,12 -7,0 -12,-5 -12,-12l0 -11zm-35 -82l0 0 23 0 0 70 -23 0 0 -70zm0 82l0 0 23 0 0 11c0,7 -5,12 -11,12 -7,0 -12,-5 -12,-12l0 -11zm-35 -82l0 0 24 0 0 70 -24 0 0 -70zm0 82l0 0 24 0 0 11c0,7 -6,12 -12,12 -7,0 -12,-5 -12,-12l0 -11zm-35 -82l0 0 24 0 0 70 -24 0 0 -70zm0 82l0 0 24 0 0 11c0,7 -6,12 -12,12 -6,0 -12,-5 -12,-12l0 -11zm-5 26l0 0c9,11 25,11 34,0 9,11 26,11 35,0 9,11 26,11 35,0 9,11 26,11 35,0 9,11 26,11 35,0 4,6 11,9 17,9l0 104 -11 0 0 -46 -18 0 0 -18c0,-6 -4,-13 -10,-15l4 -12 -11 -4 -5 14c-2,1 -5,2 -7,4 -1,-1 -2,-2 -4,-2l4 -12 -11 -4 -5 14c-2,1 -5,2 -7,4 -1,-1 -3,-2 -4,-2l4 -12 -11 -4 -5 14c-8,2 -13,9 -13,17l0 18 -17 0 0 46 -24 0 0 -6c0,-13 -10,-25 -23,-28 0,0 0,-6 0,-7 0,-16 -13,-29 -29,-29l-6 0c-4,0 -9,3 -10,7 -7,-6 -16,-7 -25,-7 -6,0 -11,6 -11,12l0 6c0,6 2,12 6,17l-1 0 -5 0c-7,0 -12,5 -12,12 0,8 1,17 6,23l-18 0 0 -104c7,0 13,-3 18,-9 9,11 26,11 35,0 9,11 26,11 35,0zm104 78l0 0 64 0 0 35 -93 0 0 -35 29 0zm-11 -11l0 0 0 -18c0,-3 2,-6 5,-6 4,0 6,3 6,6l0 18 -11 0zm23 0l0 0 0 -18c0,-3 2,-6 6,-6 3,0 5,3 5,6l0 18 -11 0zm23 0l0 0 0 -18c0,-3 3,-6 6,-6 3,0 6,3 6,6l0 18 -12 0zm-192 -6l0 0 0 -6 6 0c10,0 18,8 18,17l0 6 -6 0c-10,0 -18,-8 -18,-17zm12 46l0 0 0 6 -6 0c-10,0 -17,-8 -17,-17l0 -6 5 0c10,0 18,8 18,17zm12 -17l0 0 5 0c10,0 18,8 18,17l0 6 -6 0c-10,0 -17,-8 -17,-17l0 -6zm11 -29l0 0 0 -6 6 0c10,0 17,8 17,17l0 6 -5 0c-10,0 -18,-8 -18,-17zm23 29l0 0 6 0c10,0 18,8 18,17l0 6 -6 0c-10,0 -18,-8 -18,-17l0 -6zm-69 -105l0 0 0 -11 23 0 0 11c-1,16 -23,16 -23,0zm45 -93l0 0 13 0 0 70 -23 0 10 -70zm-10 82l0 0 23 0 0 11c0,7 -5,12 -12,12 -6,0 -11,-5 -11,-12l0 -11zm-1 -82l0 0 -10 70 -22 0 19 -70 13 0zm-69 66l0 0 32 -66 12 0 -20 70 -24 0 0 -4zm0 16l0 0 23 0 0 11c0,7 -5,12 -12,12 -6,0 -11,-5 -11,-12l0 -11zm302 244l0 0 -302 0 0 -93 302 0 0 93zm-12 -221l0 0c-6,0 -11,-5 -11,-12l0 -11 23 0 0 11c0,7 -5,12 -12,12z"/>
  <g id="_2503667425296">
   <g>
    <polygon class="fil1" points="329,312 398,312 398,324 329,324 "/>
   </g>
  </g>
 </g>
</svg>
