<?xml version="1.0" encoding="UTF-8"?>
<!DOCTYPE svg PUBLIC "-//W3C//DTD SVG 1.1//EN" "http://www.w3.org/Graphics/SVG/1.1/DTD/svg11.dtd">
<!-- Creator: CorelDRAW X7 -->
<svg xmlns="http://www.w3.org/2000/svg" xml:space="preserve" width="17mm" height="17mm" version="1.1" style="shape-rendering:geometricPrecision; text-rendering:geometricPrecision; image-rendering:optimizeQuality; fill-rule:evenodd; clip-rule:evenodd"
viewBox="0 0 249 249"
 xmlns:xlink="http://www.w3.org/1999/xlink">
 <defs>
  <style type="text/css">
   <![CDATA[
    .fil0park {fill:#FEFEFE}
    .fil1park {fill:#0CB6B5}
   ]]>
  </style>
 </defs>
 <g id="Layer_x0020_1">
  <metadata id="CorelCorpID_0Corel-Layer"/>
  <circle class="fil0park" cx="126" cy="122" r="117"/>
  <path class="fil1park" d="M125 249c69,0 124,-55 124,-124 0,-69 -55,-125 -124,-125 -69,0 -125,56 -125,125 0,69 56,124 125,124zm70 -68c-3,11 -10,14 -22,14 -14,0 -99,1 -105,0 -10,-3 -14,-11 -14,-22 0,-14 -1,-98 1,-105 1,-5 3,-8 6,-10 5,-4 9,-4 15,-4 14,0 100,-1 105,1 12,2 14,11 14,21 0,13 1,100 0,105zm-130 -133c-10,3 -17,10 -18,21 0,13 0,27 0,39 0,12 -1,70 1,77 8,23 33,17 60,17 14,0 67,2 77,-1 8,-2 16,-10 17,-21 1,-12 0,-27 0,-39 0,-13 2,-68 -1,-76 -2,-9 -10,-17 -21,-18 -11,-1 -27,0 -39,0 -14,0 -67,-2 -76,1zm51 50l11 0c16,0 17,24 -1,24l-10 0 0 -24zm0 40c13,0 21,1 30,-6 7,-4 13,-12 11,-25 -2,-27 -30,-25 -46,-25 -17,0 -13,10 -13,24 0,12 0,24 0,36 0,11 -3,27 11,25 9,-2 7,-17 7,-29z"/>
  <path class="fil1park" d="M125 249c69,0 124,-55 124,-124 0,-69 -55,-125 -124,-125 -69,0 -125,56 -125,125 0,69 56,124 125,124zm70 -68c-3,11 -10,14 -22,14 -14,0 -99,1 -105,0 -10,-3 -14,-11 -14,-22 0,-14 -1,-98 1,-105 1,-5 3,-8 6,-10 5,-4 9,-4 15,-4 14,0 100,-1 105,1 12,2 14,11 14,21 0,13 1,100 0,105zm-130 -133c-10,3 -17,10 -18,21 0,13 0,27 0,39 0,12 -1,70 1,77 8,23 33,17 60,17 14,0 67,2 77,-1 8,-2 16,-10 17,-21 1,-12 0,-27 0,-39 0,-13 2,-68 -1,-76 -2,-9 -10,-17 -21,-18 -11,-1 -27,0 -39,0 -14,0 -67,-2 -76,1zm51 50l11 0c16,0 17,24 -1,24l-10 0 0 -24zm0 40c13,0 21,1 30,-6 7,-4 13,-12 11,-25 -2,-27 -30,-25 -46,-25 -17,0 -13,10 -13,24 0,12 0,24 0,36 0,11 -3,27 11,25 9,-2 7,-17 7,-29z"/>
 </g>
</svg>
