<?xml version="1.0" encoding="UTF-8"?>
<!DOCTYPE svg PUBLIC "-//W3C//DTD SVG 1.1//EN" "http://www.w3.org/Graphics/SVG/1.1/DTD/svg11.dtd">
<!-- Creator: CorelDRAW X7 -->
<svg xmlns="http://www.w3.org/2000/svg" xml:space="preserve" width="17mm" height="17mm" version="1.1" style="shape-rendering:geometricPrecision; text-rendering:geometricPrecision; image-rendering:optimizeQuality; fill-rule:evenodd; clip-rule:evenodd"
viewBox="0 0 177 177"
 xmlns:xlink="http://www.w3.org/1999/xlink">
 <defs>
  <style type="text/css">
   <![CDATA[
    .fil0ra {fill:#FEFEFE}
    .fil1ra {fill:#0CB6B5}
   ]]>
  </style>
 </defs>
 <g id="Layer_x0020_1">
  <metadata id="CorelCorpID_0Corel-Layer"/>
  <circle class="fil0ra" cx="91" cy="86" r="83"/>
  <path class="fil1ra" d="M89 177c49,0 88,-39 88,-88 0,-49 -39,-89 -88,-89 -49,0 -89,40 -89,89 0,49 40,88 89,88zm-11 -59c0,-2 1,-12 1,-14 0,-4 0,-5 3,-5 2,0 5,0 7,0 11,0 10,-1 11,5 0,2 1,12 0,14 -7,0 -15,0 -22,0zm5 -54c0,-1 8,-1 10,-1 2,0 3,0 4,2l1 14c0,7 1,7 -2,7 -4,0 -7,0 -10,0 -6,0 -6,1 -5,-4l1 -15c0,-1 -1,-3 1,-3zm3 -24c3,0 5,0 7,0 2,0 2,1 2,5 1,10 2,10 -3,10 -2,0 -5,0 -7,0 -1,0 -2,0 -2,-2l0 -9c1,-4 0,-4 3,-4zm-23 -1c-3,1 -4,4 -5,7 -8,20 -16,40 -24,61 -1,2 -2,7 -1,10 0,2 1,2 4,2 34,0 68,0 103,0 3,0 6,1 6,-6 0,-3 -2,-6 -3,-9l-24 -61c-2,-4 -3,-4 -7,-4l-37 0c-2,0 -10,-1 -12,0z"/>
 </g>
</svg>
