<svg xmlns="http://www.w3.org/2000/svg" viewBox="0 0 200 200"><defs><style>.cls-1{fill:#00b6b6;}.cls-2{fill:none;stroke:#fff;stroke-linecap:round;stroke-linejoin:round;stroke-width:3.51px;}</style></defs><g id="Layer_2" data-name="Layer 2"><g id="Layer_1-2" data-name="Layer 1"><circle class="cls-1" cx="100" cy="100" r="100"/><path class="cls-2" d="M125.72,154.27V64.81a5.23,5.23,0,0,0-5.23-5.23h-41a5.23,5.23,0,0,0-5.23,5.23v89.46H61V51a5.23,5.23,0,0,1,5.22-5.23h67.56A5.23,5.23,0,0,1,139,51V154.27Z"/><path class="cls-2" d="M111.85,100.14v48.7A4,4,0,0,1,108,153h0a4,4,0,0,1-3.85-4.16V126.11a4.31,4.31,0,0,0-4.14-4.47h0a4.31,4.31,0,0,0-4.14,4.47v22.73A4,4,0,0,1,92,153h0a4,4,0,0,1-3.86-4.16v-48.7a5.54,5.54,0,0,1,5.32-5.73h2.12L100,104.83l4.41-10.42h2.12A5.54,5.54,0,0,1,111.85,100.14Z"/><circle class="cls-2" cx="100" cy="80.31" r="7.76"/></g></g></svg>