<?xml version="1.0" encoding="UTF-8"?>
<!DOCTYPE svg PUBLIC "-//W3C//DTD SVG 1.1//EN" "http://www.w3.org/Graphics/SVG/1.1/DTD/svg11.dtd">
<!-- Creator: CorelDRAW X7 -->
<svg xmlns="http://www.w3.org/2000/svg" xml:space="preserve" width="17mm" height="17mm" version="1.1" style="shape-rendering:geometricPrecision; text-rendering:geometricPrecision; image-rendering:optimizeQuality; fill-rule:evenodd; clip-rule:evenodd"
viewBox="0 0 30 30"
 xmlns:xlink="http://www.w3.org/1999/xlink">
 <defs>
  <style type="text/css">
   <![CDATA[
    .fil0sr {fill:#0CB6B5}
    .fil1sr {fill:white}
   ]]>
  </style>
 </defs>
 <g id="LOGOS">
  <metadata id="CorelCorpID_0Corel-Layer"/>
  <circle class="fil0sr" cx="15" cy="15" r="15"/>
  <path class="fil1sr" d="M18 17c0,0 1,1 2,1 1,0 2,2 2,4l-7 0c1,-1 1,-2 2,-2 0,-1 1,-2 1,-3zm-6 0c0,2 2,4 2,5l-7 0c0,-1 1,-2 1,-2 1,-2 2,-2 4,-3zm2 2c0,0 0,0 0,0 0,-1 1,-1 1,-1 0,0 1,1 1,1 0,0 -1,2 -1,2 0,0 -1,-1 -1,-2zm2 0c0,-1 -1,-1 -1,-2 1,0 1,-1 2,-1 0,0 0,0 0,0 0,1 0,1 0,1 0,1 0,1 -1,2zm-3 -3c0,0 1,1 1,1 0,1 0,1 0,1 0,0 -1,0 -1,1 0,0 0,0 0,0l0 -1c0,0 0,0 0,-1 -1,0 -1,0 -1,0l1 -1c0,0 0,0 0,0 0,0 0,0 0,0zm2 1l-1 -1 1 0 0 0 0 0c0,0 0,1 0,1zm0 -3c0,0 0,0 -1,0 0,0 0,0 0,0 0,-1 0,-1 1,-1 0,0 0,1 0,1zm-4 -1l0 0 0 0c0,0 0,0 0,0zm8 -1l0 -2 0 0c0,0 0,1 0,1 1,1 0,1 0,1zm-9 -2l1 0 0 2c-1,0 -1,0 -1,-1 0,0 0,-1 0,-1zm8 0c0,1 0,2 0,3 -1,2 -2,3 -4,2 -1,0 -1,0 -2,-1 1,0 1,0 1,0 1,1 1,1 2,1 1,0 1,-2 0,-2 -2,0 -2,0 -2,0l-1 0c0,-1 0,-2 0,-3 0,0 0,0 0,-1 0,0 1,-1 2,-1 0,0 1,1 3,2l1 0c0,0 0,0 0,0 0,0 0,0 0,0 0,0 0,0 0,0zm-6 -1c0,-1 0,-2 1,-2 0,-1 1,-1 2,-1 1,0 2,0 2,1 1,1 1,1 1,2 -3,0 -3,-1 -4,-1 -1,-1 -2,0 -2,0 0,1 0,0 0,1zm-1 0c0,0 -1,0 -1,0 0,-2 2,-4 5,-4 2,0 4,2 4,4l0 0c0,-1 -1,-2 -1,-3 -2,-1 -5,-1 -6,0 -1,1 -1,2 -1,3zm-1 4c0,1 0,1 1,1 1,0 1,1 1,1 0,0 0,0 0,0 0,2 0,1 -1,2 -1,0 -1,0 -2,0 -1,1 -2,3 -2,4 -1,2 0,1 2,1l11 0c3,0 3,1 3,0 0,-2 -1,-4 -2,-5 -1,0 -2,0 -2,0 -1,-1 -1,0 -2,-2 1,0 1,0 1,-2 0,0 0,0 1,0 0,0 1,0 1,-1 0,0 0,-1 0,-1 0,-2 0,-3 0,-4 -2,-4 -8,-4 -10,-1 -1,2 -1,4 -1,5 0,1 0,1 1,1 0,0 0,0 0,0 0,1 0,1 0,1z"/>
  <path class="fil1sr" d="M20 19c-1,0 0,1 0,1 1,0 1,1 1,1 1,-1 -1,-2 -1,-2z"/>
  <path class="fil1sr" d="M19 18c-1,0 -1,1 0,1 0,0 0,-1 0,-1z"/>
 </g>
</svg>
