<?xml version="1.0" encoding="UTF-8"?>
<!DOCTYPE svg PUBLIC "-//W3C//DTD SVG 1.1//EN" "http://www.w3.org/Graphics/SVG/1.1/DTD/svg11.dtd">
<!-- Creator: CorelDRAW X7 -->
<svg xmlns="http://www.w3.org/2000/svg" xml:space="preserve" width="17mm" height="17mm" version="1.1" style="shape-rendering:geometricPrecision; text-rendering:geometricPrecision; image-rendering:optimizeQuality; fill-rule:evenodd; clip-rule:evenodd"
viewBox="0 0 27 27"
 xmlns:xlink="http://www.w3.org/1999/xlink">
 <defs>
  <style type="text/css">
   <![CDATA[
    .str0sr2 {stroke:#FEFEFE;stroke-width:0.726215}
    .fil1sr2 {fill:none}
    .fil0sr2 {fill:#0CB6B5}
   ]]>
  </style>
 </defs>
 <g id="LOGOS">
  <metadata id="CorelCorpID_0Corel-Layer"/>
  <circle class="fil0sr2" cx="14" cy="14" r="14"/>
  <path class="fil1sr2 str0sr2" d="M21 21l-15 0c0,0 1,-4 3,-4 0,-1 1,-1 2,-1 0,-1 0,-1 1,-2 1,1 2,1 3,0l1 2c1,0 2,0 3,1 1,1 2,2 2,4z"/>
  <path class="fil1sr2 str0sr2" d="M12 14c-1,0 -1,-1 -1,-1 -1,-2 -1,-3 -1,-4 1,-1 2,-1 3,-1 1,1 2,1 4,2 0,1 0,2 0,3 -1,0 -1,1 -2,1"/>
  <path class="fil1sr2 str0sr2" d="M10 9c0,0 0,-1 0,-2 2,-3 6,-1 7,0 0,1 0,2 0,3"/>
  <path class="fil1sr2 str0sr2" d="M10 12c0,0 0,0 0,0 -1,0 -1,0 -1,-1 0,-1 0,-2 0,-2 0,-3 2,-5 5,-5 2,0 4,2 4,5l0 2c0,0 0,1 0,1l-1 0"/>
  <line class="fil1sr2 str0sr2" x1="10" y1="9" x2="9" y2= "9" />
  <path class="fil1sr2 str0sr2" d="M17 9c0,0 1,0 1,0"/>
  <circle class="fil1sr2 str0sr2" cx="13" cy="13" r="1"/>
  <path class="fil1sr2 str0sr2" d="M10 12c0,0 -1,1 1,1"/>
  <line class="fil1sr2 str0sr2" x1="11" y1="13" x2="12" y2= "13" />
  <path class="fil1sr2 str0sr2" d="M11 16c0,1 1,3 3,4 1,-1 2,-2 2,-4"/>
  <path class="fil1sr2 str0sr2" d="M12 14c1,2 2,3 3,4"/>
  <path class="fil1sr2 str0sr2" d="M15 15c-1,1 -2,2 -3,3"/>
 </g>
</svg>
