<?xml version="1.0" encoding="UTF-8"?>
<!DOCTYPE svg PUBLIC "-//W3C//DTD SVG 1.1//EN" "http://www.w3.org/Graphics/SVG/1.1/DTD/svg11.dtd">
<!-- Creator: CorelDRAW X7 -->
<svg xmlns="http://www.w3.org/2000/svg" xml:space="preserve" width="17mm" height="17mm" version="1.1" style="shape-rendering:geometricPrecision; text-rendering:geometricPrecision; image-rendering:optimizeQuality; fill-rule:evenodd; clip-rule:evenodd"
viewBox="0 0 133 133"
 xmlns:xlink="http://www.w3.org/1999/xlink">
 <defs>
  <style type="text/css">
   <![CDATA[
    .fil0stairs {fill:#FEFEFE}
    .fil1stairs {fill:#0CB6B5}
   ]]>
  </style>
 </defs>
 <g id="Layer_x0020_1">
  <metadata id="CorelCorpID_0Corel-Layer"/>
  <circle class="fil0stairs" cx="67" cy="67" r="63"/>
  <path class="fil1stairs" d="M67 133c36,0 66,-30 66,-66 0,-37 -30,-67 -66,-67 -37,0 -67,30 -67,67 0,36 30,66 67,66zm-33 -71c6,0 4,0 8,-11 2,-3 6,-5 8,-7 0,4 -2,9 -3,13 -1,5 0,10 0,15 0,3 -1,4 -1,8 0,5 -3,7 -8,16l3 3c7,-1 15,-17 15,-19 1,-3 -1,-8 1,-11 2,0 3,2 6,4 1,1 5,3 6,5 3,5 0,14 4,18 7,1 6,-3 6,-8l-2 -13c-2,-8 -10,-10 -14,-16l2 -9c2,3 1,7 7,8 3,1 9,3 12,2 2,-2 2,-2 1,-5 -3,-2 -7,-1 -10,-3 -4,-1 -5,-13 -10,-16 -1,0 -10,-2 -10,-2 -3,0 -14,7 -16,9 -2,2 -4,7 -4,9 -2,5 -3,6 -1,10zm63 22l-14 0 0 16 -50 0 0 5c8,2 44,1 55,1l0 -16 15 0c0,-6 0,-8 0,-14l13 0 0 -6 -19 0 0 14zm-36 -64c-8,4 -2,17 6,13 10,-5 2,-18 -6,-13z"/>
 </g>
</svg>
