<?xml version="1.0" encoding="UTF-8"?>
<!DOCTYPE svg PUBLIC "-//W3C//DTD SVG 1.1//EN" "http://www.w3.org/Graphics/SVG/1.1/DTD/svg11.dtd">
<!-- Creator: CorelDRAW X7 -->
<svg xmlns="http://www.w3.org/2000/svg" xml:space="preserve" width="17mm" height="17mm" version="1.1" style="shape-rendering:geometricPrecision; text-rendering:geometricPrecision; image-rendering:optimizeQuality; fill-rule:evenodd; clip-rule:evenodd"
viewBox="0 0 133 133"
 xmlns:xlink="http://www.w3.org/1999/xlink">
 <defs>
  <style type="text/css">
   <![CDATA[
    .fil0tax {fill:#FEFEFE}
    .fil1tax {fill:#0CB6B5}
   ]]>
  </style>
 </defs>
 <g id="Layer_x0020_1">
  <metadata id="CorelCorpID_0Corel-Layer"/>
  <circle class="fil0tax" cx="67" cy="67" r="63"/>
  <path class="fil1tax" d="M67 133c37,0 66,-29 66,-66 0,-37 -29,-67 -66,-67 -37,0 -67,30 -67,67 0,37 30,66 67,66zm27 -61c9,-2 12,11 3,13 -8,2 -11,-11 -3,-13zm-14 -40l2 0 0 -9 -1 0c-1,1 -1,-1 -1,2l0 7zm-27 -8l3 1c0,1 0,5 0,7l2 0 0 -7c2,0 3,0 3,-1 0,-1 1,-1 -1,-1l-6 0c-2,0 -1,0 -1,1zm7 8c4,0 1,0 3,-2l4 0 1 2 4 0c1,-2 2,-2 2,-3 2,1 2,3 5,3 -1,-2 -2,-3 -3,-5 1,-1 2,-2 3,-4 -1,0 -3,-1 -4,3 -3,-2 -1,-3 -5,-3l2 2c0,1 1,1 1,2 -1,1 -2,3 -3,4l-4 -8c-2,0 -2,0 -3,2l-3 7zm-15 0c2,0 1,-2 1,-7 0,-8 3,-5 21,-5 6,0 13,-1 18,-1 5,1 4,5 4,10 0,3 -1,3 2,3 1,-2 0,-6 0,-8 0,-9 -8,-6 -23,-6 -6,0 -15,-1 -20,0 -3,0 -4,2 -4,5 0,3 0,8 1,9zm-7 40c4,-1 7,2 8,5 1,4 -1,7 -4,8 -8,3 -13,-10 -4,-13zm-1 -8c0,-2 4,-22 5,-23 2,-1 48,-1 51,0 1,1 5,21 5,23l-61 0zm-6 0c-8,0 -6,7 -6,17 0,11 -2,16 6,18 1,8 -2,10 8,10 10,0 8,-2 9,-10l40 -1c0,9 -2,11 8,11 10,0 8,-1 8,-10 9,-2 7,-6 7,-18 0,-10 2,-17 -7,-17 -5,-14 -1,-28 -12,-29l-48 0c-3,0 -5,1 -6,2 -4,4 -4,21 -7,27z"/>
 </g>
</svg>
