<?xml version="1.0" encoding="UTF-8"?>
<!DOCTYPE svg PUBLIC "-//W3C//DTD SVG 1.0//EN" "http://www.w3.org/TR/2001/REC-SVG-20010904/DTD/svg10.dtd">
<!-- Creator: CorelDRAW X7 -->
<svg xmlns="http://www.w3.org/2000/svg" xml:space="preserve" width="8mm" height="8mm" version="1.0" style="shape-rendering:geometricPrecision; text-rendering:geometricPrecision; image-rendering:optimizeQuality; fill-rule:evenodd; clip-rule:evenodd"
viewBox="0 0 312 312"
 xmlns:xlink="http://www.w3.org/1999/xlink">
 <defs>
  <style type="text/css">
   <![CDATA[
    .fil1 {fill:#FEFEFE}
    .fil0 {fill:#0CB6B5}
   ]]>
  </style>
 </defs>
 <g id="icons">
  <metadata id="CorelCorpID_0Corel-Layer"/>
  <path id="PIIB1F5001" class="fil0" d="M156 312c86,0 156,-70 156,-156 0,-86 -70,-156 -156,-156 -86,0 -156,70 -156,156 0,86 70,156 156,156z"/>
  <path class="fil1" d="M139 74c-22,3 -38,9 -55,18l-21 15c-3,3 -8,6 -8,10 -1,6 3,10 9,9 5,0 13,-9 21,-15 46,-30 107,-28 151,7 3,4 6,7 10,8 6,1 10,-2 11,-7 1,-12 -40,-33 -53,-38 -20,-7 -43,-9 -65,-7zm7 59c22,-3 45,4 62,17 5,4 9,12 18,8 9,-6 2,-14 -3,-17 -4,-4 -10,-8 -16,-12 -11,-6 -25,-11 -40,-13 -30,-3 -61,7 -82,27 -6,6 -4,15 5,16 10,0 15,-20 56,-26zm2 43c34,-7 39,24 51,14 13,-10 -15,-28 -35,-31 -19,-3 -41,5 -52,18 -8,10 4,20 12,12 8,-8 10,-10 24,-13zm24 46c6,-20 -25,-31 -32,-10 -8,21 25,32 32,10z"/>
 </g>
</svg>
