<svg id="Layer_1" data-name="Layer 1" xmlns="http://www.w3.org/2000/svg" viewBox="0 0 70.2 96.89">
    <defs>
        <style>
            .cls-1{fill:none;stroke:#fff;stroke-linecap:round;stroke-linejoin:round;stroke-width:2px;}
        </style>
    </defs>
    <path class="cls-1"
        d="M88.26,180V-4.94a10.81,10.81,0,0,0-10.8-10.81H-7.25A10.81,10.81,0,0,0-18.06-4.94V180H-45.52V-33.57a10.81,10.81,0,0,1,10.81-10.8H104.92a10.81,10.81,0,0,1,10.8,10.8V180Z" />
    <path class="cls-1"
        d="M59.6,68.09V168.75c0,4.75-3.57,8.6-8,8.6h0c-4.4,0-8-3.85-8-8.6v-47c0-5.09-3.83-9.22-8.56-9.22h0c-4.72,0-8.55,4.13-8.55,9.22v47c0,4.75-3.57,8.6-8,8.6h0c-4.4,0-8-3.85-8-8.6V68.09c0-6.55,4.92-11.86,11-11.86H26L35.1,77.79l9.12-21.56H48.6C54.67,56.23,59.6,61.54,59.6,68.09Z" />
    <circle class="cls-1" cx="35.1" cy="27.09" r="16.05" />
</svg>