<svg id="Layer_1" data-name="Layer 1" xmlns="http://www.w3.org/2000/svg" viewBox="0 0 257 256">
    <defs>
        <style>.cls-1{fill:none;stroke:#fff;stroke-miterlimit:10;stroke-width:2px;}</style>
    </defs>
    <rect class="cls-1" x="133.64" y="158.68" width="108.9" height="16.41" rx="4.35" />
    <circle class="cls-1" cx="229.8" cy="130.11" r="16.23" />
    <path class="cls-1"
        d="M178.1,148h20.65a9.72,9.72,0,0,0,6.68-2.21,14.47,14.47,0,0,0,3.51-6.26V110.91s-1.08-7.2-7.81-7.14a9.05,9.05,0,0,0-8.6,6.22c0,.39.39,12.7-.13,12.57s-11.25.13-11.25.13l-5-10.32-4-4.24-5-2-20.38.26s-6.51.7-7.17,7.47c-.63,6.56,6.76,8.94,6.76,8.94l14.18-.13,7.27,17.83a11.35,11.35,0,0,0,3.51,5.28A10.16,10.16,0,0,0,178.1,148Z" />
    <circle class="cls-1" cx="117.67" cy="49.23" r="22.23" />
    <path class="cls-1"
        d="M103,91.06s2.76-3.48-.07-12.43a17.59,17.59,0,0,0-5.29-7.17c-2.8-2.17-7.67-4.64-15.08-3.88C80,67.84,74,71.46,74,71.46S48,97.81,41.28,110.71c-6.23,11.93-24.41,48-24.41,48H36.52L50,225.44S52.4,230,57,230a9.74,9.74,0,0,0,7.71-4.16l12.67-67.16H96.26L77.6,118.46l13.1-12.11,29.58,29.18s6.36,4.84,12.7-1.46c4.82-4.79.66-11.25.66-11.25Z" />
</svg>