<svg id="Layer_1" data-name="Layer 1" xmlns="http://www.w3.org/2000/svg" viewBox="0 0 256 256">
    <defs>
        <style>.cls-1{fill:none;stroke:#fff;stroke-miterlimit:10;stroke-width:2px;}</style>
    </defs>
    <circle class="cls-1" cx="25.53" cy="95.67" r="11.68" />
    <circle class="cls-1" cx="41.73" cy="51.1" r="7.71" />
    <circle class="cls-1" cx="98.46" cy="38.95" r="11.61" />
    <circle class="cls-1" cx="187.59" cy="55.15" r="11.61" />
    <circle class="cls-1" cx="207.85" cy="87.57" r="7.71" />
    <circle class="cls-1" cx="70.1" cy="184.36" r="27.88" />
    <circle class="cls-1" cx="69.83" cy="184.36" r="13.33" />
    <circle class="cls-1" cx="191.99" cy="184.36" r="27.88" />
    <circle class="cls-1" cx="191.72" cy="184.36" r="13.33" />
    <polyline class="cls-1" points="43.17 177.12 9.32 177.12 9.32 192.82 43.53 192.82" />
    <line class="cls-1" x1="97.02" y1="177.12" x2="165.42" y2="177.12" />
    <line class="cls-1" x1="96.66" y1="192.82" x2="165.42" y2="192.82" />
    <polyline class="cls-1" points="218.91 177.12 244.55 177.12 244.55 192.82 218.56 192.82" />
    <line class="cls-1" x1="94.65" y1="152.39" x2="110.46" y2="152.39" />
    <line class="cls-1" x1="118.46" y1="152.39" x2="134.28" y2="152.39" />
    <path class="cls-1"
        d="M17.43,177.12V134.24a4.75,4.75,0,0,1,.69-1.48,4.14,4.14,0,0,1,1.75-.63H33.63L61.38,87.57h99.2l39.56,36,33,3.89a5.35,5.35,0,0,1,1.77,1,3.91,3.91,0,0,1,1,2.16v46.45" />
    <path class="cls-1" d="M33.63,132.13V146s0,1.07-.24,1.36-1.68.27-1.68.27H17.43" />
    <path class="cls-1" d="M211.9,125v16a3.44,3.44,0,0,0,.49,1.87,5.12,5.12,0,0,0,2.17.93h21.58" />
    <polygon class="cls-1"
        points="151.08 103.77 69.83 103.77 50.25 136.19 186.37 136.19 151.08 103.77" />
    <line class="cls-1" x1="114.51" y1="103.77" x2="114.51" y2="136.18" />
    <path class="cls-1"
        d="M60.57,87.57s-5.45-1.67-6.23-5.48c-.47-2.3-1.17-6,2.79-9,3.41-2.57,6.32-1.64,6.32-1.64s2.37,1.54,3,1.1c2.57-1.72,2.37-4.52,3.53-5.73a10.48,10.48,0,0,1,8.62-3.6A10.94,10.94,0,0,1,88,69s2,4.36,2.36,3.9A15,15,0,0,1,96,71.49a7,7,0,0,1,5.53,3.92c2.11,3.64.09,7.92,0,8.1a17.21,17.21,0,0,1-3.08,4.06" />
    <path class="cls-1"
        d="M125.36,87.56s-5.45-1.66-6.23-5.47c-.47-2.3-1.17-6,2.79-9,3.41-2.57,6.32-1.64,6.32-1.64s2.37,1.54,3,1.09c2.57-1.71,2.37-4.51,3.53-5.72a10.48,10.48,0,0,1,8.62-3.6A10.92,10.92,0,0,1,152.78,69s1.95,4.36,2.36,3.9a14.77,14.77,0,0,1,5.66-1.41,7,7,0,0,1,5.53,3.92c2.11,3.64.09,7.92,0,8.1a17.07,17.07,0,0,1-3.08,4" />
</svg>