<?xml version="1.0" encoding="utf-8"?>
<!-- Generator: Adobe Illustrator 25.0.0, SVG Export Plug-In . SVG Version: 6.00 Build 0)  -->
<svg version="1.1" id="Layer_1" xmlns="http://www.w3.org/2000/svg" xmlns:xlink="http://www.w3.org/1999/xlink" x="0px" y="0px"
	 viewBox="0 0 200 200" style="enable-background:new 0 0 200 200;" xml:space="preserve">
<style type="text/css">
	.st0{fill:#56BABE;}
	.st1{opacity:0.6;fill:#585286;}
	.st2{fill:#2490D3;}
	.st3{fill:#B93246;}
	.st4{fill:#585286;}
	.st5{fill:#198E53;}
	.st6{fill:#F2821F;}
	.st7{fill:#FFD257;}
	.st8{fill:#FFFFFF;}
</style>
<rect x="-11.8" y="-11.8" class="st0" width="223.6" height="223.6"/>
<g>
	<g>
		<path class="st8" d="M113.7,123.9c0-1.4-1.1-2.3-2.5-1.9c0,0-6.5,1.7-11.2,1.7c-4.8,0-11.2-1.7-11.2-1.7c-1.4-0.4-2.5,0.5-2.5,1.9
			v7.5c0,1.4,1.2,2.6,2.6,2.6h22.3c1.4,0,2.6-1.2,2.6-2.6V123.9z"/>
	</g>
	<g>
		<path class="st8" d="M139.3,27.4c0-2.9-2.3-5.2-5.2-5.2H65.8c-2.9,0-5.2,2.3-5.2,5.2v42.7c0,13.4,4,25.5,11.2,34.3
			c7.3,8.8,17.3,13.6,28.2,13.6s20.9-4.8,28.2-13.6c7.2-8.7,11.2-20.9,11.2-34.3L139.3,27.4L139.3,27.4z"/>
	</g>
	<g>
		<path class="st8" d="M55.7,80.5c-7.1-2.6-10.3-8.8-10.3-18.9V38.4H55V28.1H40.2c-2.9,0-5.2,2.3-5.2,5.2v28.3
			c0,17.3,8.3,27.8,23.5,30.2C57.3,88.2,56.3,84.4,55.7,80.5z"/>
	</g>
	<g>
		<path class="st8" d="M65.8,141.8c-2.9,0-5.2,2.3-5.2,5.2v25.6c0,2.9,2.3,5.2,5.2,5.2h68.3c2.9,0,5.2-2.3,5.2-5.2V147
			c0-2.9-2.3-5.2-5.2-5.2H65.8z"/>
	</g>
	<g>
		<path class="st8" d="M159.8,28.1H145v10.4h9.6v23.1c0,10.2-3.3,16.3-10.3,18.9c-0.6,3.9-1.5,7.7-2.8,11.3
			c15.2-2.5,23.5-13,23.5-30.2V33.3C165,30.4,162.7,28.1,159.8,28.1z"/>
	</g>
</g>
</svg>
