<?xml version="1.0" encoding="utf-8"?>
<!-- Generator: Adobe Illustrator 25.0.0, SVG Export Plug-In . SVG Version: 6.00 Build 0)  -->
<svg version="1.1" id="Layer_1" xmlns="http://www.w3.org/2000/svg" xmlns:xlink="http://www.w3.org/1999/xlink" x="0px" y="0px"
	 viewBox="0 0 200 200" style="enable-background:new 0 0 200 200;" xml:space="preserve">
<style type="text/css">
	.st0{fill:#56BABE;}
	.st1{opacity:0.6;fill:#585286;}
	.st2{fill:#2490D3;}
	.st3{fill:#B93246;}
	.st4{fill:#585286;}
	.st5{fill:#198E53;}
	.st6{fill:#F2821F;}
	.st7{fill:#FFD257;}
	.st8{fill:#FFFFFF;}
</style>
<rect x="-11.8" y="-11.8" class="st7" width="223.6" height="223.6"/>
<g>
	<path class="st8" d="M100,26.7c-40.5,0-73.3,32.8-73.3,73.3c0,40.5,32.8,73.3,73.3,73.3c40.5,0,73.3-32.8,73.3-73.3
		C173.3,59.5,140.5,26.7,100,26.7z M69.1,111.6c-6.4,0-11.6-5.2-11.6-11.6s5.2-11.6,11.6-11.6c6.4,0,11.6,5.2,11.6,11.6
		C80.7,106.4,75.5,111.6,69.1,111.6z M100,111.6c-6.4,0-11.6-5.2-11.6-11.6s5.2-11.6,11.6-11.6c6.4,0,11.6,5.2,11.6,11.6
		C111.6,106.4,106.4,111.6,100,111.6z M130.9,111.6c-6.4,0-11.6-5.2-11.6-11.6s5.2-11.6,11.6-11.6c6.4,0,11.6,5.2,11.6,11.6
		C142.4,106.4,137.3,111.6,130.9,111.6z"/>
	<path class="st8" d="M100,96.1c-2.1,0-3.9,1.7-3.9,3.9s1.7,3.9,3.9,3.9s3.9-1.7,3.9-3.9C103.9,97.9,102.1,96.1,100,96.1z"/>
	<path class="st8" d="M130.9,96.1c-2.1,0-3.9,1.7-3.9,3.9s1.7,3.9,3.9,3.9s3.9-1.7,3.9-3.9C134.7,97.9,133,96.1,130.9,96.1z"/>
	<path class="st8" d="M69.1,96.1c-2.1,0-3.9,1.7-3.9,3.9s1.7,3.9,3.9,3.9c2.1,0,3.9-1.7,3.9-3.9C73,97.9,71.3,96.1,69.1,96.1z"/>
</g>
</svg>
