<?xml version="1.0" encoding="utf-8"?>
<!-- Generator: Adobe Illustrator 25.0.0, SVG Export Plug-In . SVG Version: 6.00 Build 0)  -->
<svg version="1.1" id="Layer_1" xmlns="http://www.w3.org/2000/svg" xmlns:xlink="http://www.w3.org/1999/xlink" x="0px" y="0px"
	 viewBox="0 0 200 200" style="enable-background:new 0 0 200 200;" xml:space="preserve">
<style type="text/css">
	.st0{fill:#56BABE;}
	.st1{opacity:0.6;fill:#585286;}
	.st2{fill:#2490D3;}
	.st3{fill:#B93246;}
	.st4{fill:#585286;}
	.st5{fill:#198E53;}
	.st6{fill:#F2821F;}
	.st7{fill:#FFD257;}
	.st8{fill:#FFFFFF;}
</style>
<rect x="-11.8" y="-11.8" class="st5" width="223.6" height="223.6"/>
<g>
	<path class="st8" d="M114,86.2L114,86.2l0.1-34.2H88.7v18.3c5.5-2.3,11.7-1.8,16.8,1.4C110.5,74.9,113.7,80.3,114,86.2L114,86.2z"
		/>
	<path class="st8" d="M83.1,87.3c0,0.3,0,0.5,0.1,0.8l6.8-4.6c0.9-0.6,2.2-0.6,3.1,0l6.9,4.6l6.9-4.6c0.3-0.2,0.5-0.3,0.8-0.4
		c-2-5.9-8-9.4-14.1-8.4C87.5,75.8,83.1,81.1,83.1,87.3z"/>
	<path class="st8" d="M115.8,46.4l8.5-8.5h-23.1l-8.5,8.5H115.8z"/>
	<path class="st8" d="M119.7,86.3l2.2-1.5l15-39.9l-5.9-5.9l-11.3,11.3V86.3z"/>
	<path class="st8" d="M68.9,45.1c1,1,1,2.7,0.1,3.8c-0.9,1.1-2.5,1.3-3.7,0.5c-1.2-0.8-2.8-0.6-3.8,0.4l-0.1,0.1l0,0
		c-0.4,0.4-0.7,1-0.8,1.6c-0.2,1,0.1,2.1,0.8,2.9c0.1,0.1,0.5,0.6,1.1,1.2l0.7,0.8c1,0,2,0.2,3,0.5c4.2,1.1,7.8,4,9.8,7.9l5.3,11.3
		c0.5-0.7,1.1-1.4,1.8-2V49.2c0-0.1,0-0.1,0-0.2c0-0.3,0.1-0.5,0.2-0.7c0-0.1,0.1-0.2,0.1-0.3c0.1-0.3,0.3-0.6,0.5-0.8l1.3-1.3
		l-0.1-0.1l8.3-8.5c1.2-1.3,1.2-3.3,0-4.5c-1.2-1.2-3.1-1.2-4.3,0L85,37.1c-0.8,0.8-2,1.1-3.1,0.6c-1.1-0.4-1.8-1.5-1.8-2.6V23.8
		c0-1-0.5-1.9-1.3-2.5c-0.9-0.5-1.9-0.5-2.8,0c-0.9,0.5-1.4,1.5-1.3,2.5v11.3c0,1.1-0.7,2.2-1.8,2.6c-1.1,0.4-2.3,0.2-3.1-0.6
		l-4.1-4.2c-0.6-0.6-1.3-0.9-2.2-0.9c-0.8,0-1.6,0.3-2.2,0.9c-1.2,1.3-1.2,3.2,0,4.5L68.9,45.1z"/>
	<path class="st8" d="M102.8,26.7h25.4v5.6h-25.4V26.7z"/>
	<path class="st8" d="M57,145.1c-2.4,0-4.8,1-6.5,2.7l-2.1,2.1c-1.1,1.1-2.9,1.1-4,0l-2.1-2.1c-2.6-2.6-6.6-3.4-10-2
		c-3.4,1.4-5.6,4.8-5.6,8.5c0,6.5,1.5,13,4.4,18.8l1,2c1.2,2.4,3.7,3.9,6.3,3.9c1.1,0,2.2-0.3,3.2-0.7l3.5-1.8
		c0.8-0.4,1.7-0.4,2.5,0l3.6,1.8c1,0.5,2.1,0.7,3.2,0.7c2.7,0,5.1-1.5,6.3-3.9l1-2c2.9-5.8,4.4-12.3,4.4-18.8
		C66.1,149.2,62,145.1,57,145.1z"/>
	<path class="st8" d="M149.2,93.9l-6.9-4.6l-5.6,3.8v86H148c4.7,0,8.5-3.8,8.5-8.5V91.2l-4.1,2.7C151.4,94.5,150.2,94.5,149.2,93.9z
		"/>
	<path class="st8" d="M55.8,78.8l7.3-5.7l3.5,4.5l-7.3,5.6l0.6,0.8l6.3,4.2l6.9-4.6c0.9-0.6,2.2-0.6,3.1,0l1.5,1
		c0.1-0.7,0.2-1.3,0.4-2l-7.2-15.3c-1.2-2.4-3.5-4.2-6.1-4.9c-2.6-0.7-5.5-0.2-7.7,1.3c-2.3,1.6-3.8,4-4.2,6.8
		c-0.4,2.7,0.4,5.5,2.2,7.6L55.8,78.8z"/>
	<path class="st8" d="M118.5,93.9c-0.9,0.6-2.2,0.6-3.1,0l-6.9-4.6l-6.9,4.6c-0.9,0.6-2.2,0.6-3.1,0l-6.9-4.6l-6.9,4.6
		c-0.9,0.6-2.2,0.6-3.1,0l-6.9-4.6l-6.9,4.6c-0.9,0.6-2.2,0.6-3.1,0l-4.1-2.7V140c6.6,1.6,11.3,7.5,11.3,14.3c0,7.4-1.7,14.7-5,21.3
		l-1,2c-0.2,0.5-0.5,0.9-0.8,1.4H131V93l-5.6-3.8L118.5,93.9z"/>
	<path class="st8" d="M171,26.5c-2.3-3.4-6.2-5.5-10.3-5.5c-5.3,0.1-10,3.4-11.8,8.4l-20.7,55l5.7,3.8l6.9-4.6
		c0.9-0.6,2.2-0.6,3.1,0l6.9,4.6l4.2-2.8l17.5-46.5C174,34.7,173.5,30.1,171,26.5z M148,78.3l-5.5-16.9l5.4-1.7l5.5,16.9L148,78.3z
		 M156.2,58.6l-5.5-16.9l5.4-1.7l5.5,16.9L156.2,58.6z"/>
</g>
</svg>
