<?xml version="1.0" encoding="utf-8"?>
<!-- Generator: Adobe Illustrator 25.0.0, SVG Export Plug-In . SVG Version: 6.00 Build 0)  -->
<svg version="1.1" id="Layer_1" xmlns="http://www.w3.org/2000/svg" xmlns:xlink="http://www.w3.org/1999/xlink" x="0px" y="0px"
	 viewBox="0 0 200 200" style="enable-background:new 0 0 200 200;" xml:space="preserve">
<style type="text/css">
	.st0{fill:#56BABE;}
	.st1{opacity:0.6;fill:#585286;}
	.st2{fill:#2490D3;}
	.st3{fill:#B93246;}
	.st4{fill:#585286;}
	.st5{fill:#198E53;}
	.st6{fill:#F2821F;}
	.st7{fill:#FFD257;}
	.st8{fill:#FFFFFF;}
</style>
<rect x="-11.8" y="-11.8" class="st1" width="223.6" height="223.6"/>
<g>
	<path class="st8" d="M102.3,165.7h-70c-3.9,0-7,3.1-7,7c0,3.9,3.1,7,7,7h70c3.9,0,7-3.1,7-7C109.3,168.8,106.2,165.7,102.3,165.7z"
		/>
	<path class="st8" d="M153.3,67.3H128v4.4l-9.3-3.1V57.1c8-2.1,14-9.4,14-18.1c0-10.3-8.4-18.7-18.7-18.7S95.3,28.7,95.3,39h9.3
		c0-5.1,4.2-9.3,9.3-9.3s9.3,4.2,9.3,9.3s-4.2,9.3-9.3,9.3h-4.7v20.3l-9.3,3.1v-4.4H74.7L53.3,88.7v34.6H72v9.6h30.3
		c9,0,16.3,7.3,16.3,16.3c0,4.6-1.9,8.7-4.9,11.7c3,3,4.9,7.1,4.9,11.7c0,2.5-0.6,4.9-1.6,7h39v-56.3h18.7V88.7L153.3,67.3z
		 M114,95.3c-7.6,0-13.8-6.2-14-13.8l14-4.7l14,4.7C127.9,89.2,121.6,95.3,114,95.3z"/>
	<path class="st8" d="M102.3,142.3h-70c-3.9,0-7,3.1-7,7c0,3.9,3.1,7,7,7h70c3.9,0,7-3.1,7-7C109.3,145.5,106.2,142.3,102.3,142.3z"
		/>
</g>
</svg>
