<?xml version="1.0" encoding="utf-8"?>
<!-- Generator: Adobe Illustrator 25.0.0, SVG Export Plug-In . SVG Version: 6.00 Build 0)  -->
<svg version="1.1" id="Layer_1" xmlns="http://www.w3.org/2000/svg" xmlns:xlink="http://www.w3.org/1999/xlink" x="0px" y="0px"
	 viewBox="0 0 200 200" style="enable-background:new 0 0 200 200;" xml:space="preserve">
<style type="text/css">
	.st0{fill:#56BABE;}
	.st1{opacity:0.6;fill:#585286;}
	.st2{fill:#2490D3;}
	.st3{fill:#B93246;}
	.st4{fill:#585286;}
	.st5{fill:#198E53;}
	.st6{fill:#F2821F;}
	.st7{fill:#FFD257;}
	.st8{fill:#FFFFFF;}
</style>
<rect x="-11.8" y="-11.8" class="st4" width="223.6" height="223.6"/>
<g>
	<path class="st8" d="M123.8,146.7H27.4c-2.5,0-4.5,2-4.5,4.5c0,7.5,6.1,13.6,13.6,13.6h78.3c7.5,0,13.6-6.1,13.6-13.6
		C128.3,148.7,126.3,146.7,123.8,146.7z"/>
	<path class="st8" d="M174.9,43c-17.5-10.4-35.3-10.4-52.8,0c-2.1,1.2-2.8,3.9-1.7,6l13.7,25.4h28.7L176.6,49
		C177.7,46.9,177,44.2,174.9,43z"/>
	<path class="st8" d="M137.2,83.4h22.6V97h-22.6V83.4z"/>
	<path class="st8" d="M137.2,153.5c0,6.2,5.1,11.3,11.3,11.3s11.3-5.1,11.3-11.3V106h-22.6V153.5z"/>
	<path class="st8" d="M100.1,69.5c-6.5-6.5-15.2-10.1-24.5-10.1s-18,3.6-24.5,10.1C44.6,76,40.9,84.7,40.9,94s3.6,18,10.1,24.5
		c6.5,6.5,15.2,10.1,24.5,10.1s18-3.6,24.5-10.1c6.5-6.5,10.1-15.2,10.1-24.5S106.6,76,100.1,69.5L100.1,69.5z M58.6,102.8
		c-1.2,0-2.3-0.4-3.2-1.3c-1.8-1.8-1.8-4.6,0-6.4l21.3-21.3c1.8-1.8,4.6-1.8,6.4,0s1.8,4.6,0,6.4l-21.3,21.3
		C60.9,102.3,59.7,102.8,58.6,102.8L58.6,102.8z M95.8,92.9l-21.3,21.3c-0.9,0.9-2,1.3-3.2,1.3s-2.3-0.4-3.2-1.3
		c-1.8-1.8-1.8-4.6,0-6.4l21.3-21.3c1.8-1.8,4.6-1.8,6.4,0C97.6,88.3,97.6,91.1,95.8,92.9L95.8,92.9z"/>
	<path class="st8" d="M75.6,41.3c-29.1,0-52.7,23.7-52.7,52.7c0,18.2,9.2,34.2,23.2,43.7h29.5c-24.1,0-43.7-19.6-43.7-43.7
		s19.6-43.7,43.7-43.7s43.7,19.6,43.7,43.7s-19.6,43.7-43.7,43.7h29.5c14-9.5,23.2-25.5,23.2-43.7C128.3,64.9,104.7,41.3,75.6,41.3z
		"/>
</g>
</svg>
