<?xml version="1.0" encoding="utf-8"?>
<!-- Generator: Adobe Illustrator 25.0.0, SVG Export Plug-In . SVG Version: 6.00 Build 0)  -->
<svg version="1.1" id="Layer_1" xmlns="http://www.w3.org/2000/svg" xmlns:xlink="http://www.w3.org/1999/xlink" x="0px" y="0px"
	 viewBox="0 0 200 200" style="enable-background:new 0 0 200 200;" xml:space="preserve">
<style type="text/css">
	.st0{fill:#56BABE;}
	.st1{opacity:0.6;fill:#585286;}
	.st2{fill:#2490D3;}
	.st3{fill:#B93246;}
	.st4{fill:#585286;}
	.st5{fill:#198E53;}
	.st6{fill:#F2821F;}
	.st7{fill:#FFD257;}
	.st8{fill:#FFFFFF;}
</style>
<rect x="-11.8" y="-11.8" class="st6" width="223.6" height="223.6"/>
<g>
	<path class="st8" d="M180.9,91c-0.3-2.3-2.9-4-5.2-4c-7.5,0-14.1-4.4-16.8-11.2c-2.8-6.9-1-15,4.6-20.1c1.7-1.6,2-4.3,0.5-6.1
		c-3.8-4.8-8.2-9.2-12.9-13c-1.9-1.5-4.6-1.3-6.2,0.5c-4.9,5.4-13.6,7.4-20.3,4.6c-7-2.9-11.4-10-11-17.7c0.1-2.4-1.6-4.5-4-4.8
		c-6.1-0.7-12.2-0.7-18.3,0c-2.4,0.3-4.1,2.3-4,4.7c0.3,7.5-4.2,14.5-11.1,17.4c-6.7,2.7-15.3,0.7-20.1-4.6c-1.6-1.8-4.3-2-6.1-0.5
		c-4.9,3.8-9.3,8.2-13.2,13c-1.5,1.9-1.3,4.6,0.5,6.2c5.7,5.1,7.5,13.3,4.6,20.3c-2.8,6.7-9.8,11-17.7,11c-2.6-0.1-4.4,1.7-4.7,4
		c-0.7,6.1-0.7,12.3,0,18.5c0.3,2.3,3,4,5.3,4c7.1-0.2,13.9,4.2,16.7,11.1c2.8,6.9,1,15-4.6,20.1c-1.7,1.6-2,4.3-0.5,6.1
		c3.8,4.8,8.1,9.2,12.9,13c1.9,1.5,4.6,1.3,6.2-0.5c4.9-5.4,13.6-7.4,20.3-4.6c7,2.9,11.4,10,11,17.7c-0.1,2.4,1.6,4.5,4,4.8
		c3.1,0.4,6.2,0.5,9.4,0.5c3,0,6-0.2,8.9-0.5c2.4-0.3,4.1-2.3,4-4.7c-0.3-7.5,4.2-14.5,11.1-17.4c6.7-2.7,15.3-0.7,20.2,4.6
		c1.6,1.8,4.3,2,6.1,0.5c4.9-3.8,9.3-8.2,13.2-13c1.5-1.9,1.3-4.6-0.5-6.2c-5.7-5.1-7.5-13.3-4.6-20.3c2.8-6.6,9.5-11,16.6-11l1,0
		c2.3,0.2,4.5-1.6,4.8-4C181.5,103.4,181.6,97.1,180.9,91z M100,146.9c-25.9,0-46.9-21-46.9-46.9s21-46.9,46.9-46.9
		s46.9,21,46.9,46.9c0,8.8-2.4,17-6.6,24.1l-20.5-20.5c1.5-3.5,2.3-7.3,2.3-11.2c0-7.7-3-14.9-8.4-20.3c-5.4-5.4-12.7-8.4-20.3-8.4
		c-2.6,0-5.1,0.3-7.6,1c-1.1,0.3-2,1.2-2.3,2.3c-0.3,1.1,0,2.2,0.9,3.1c0,0,10.1,10.2,13.5,13.6c0.4,0.4,0.4,1.2,0.3,1.5l0,0.2
		c-0.3,3.7-1,8.2-1.5,9.9c-0.1,0.1-0.1,0.1-0.2,0.2c-0.1,0.1-0.1,0.2-0.2,0.2c-1.7,0.6-6.3,1.2-10.1,1.6l0,0l-0.2,0c0,0-0.1,0-0.2,0
		c-0.4,0-1-0.1-1.6-0.7C80.6,93,70.9,83.4,70.9,83.4c-0.9-0.9-1.8-1.1-2.4-1.1c-1.4,0-2.6,1-3,2.5c-2.7,9.9,0.2,20.6,7.4,27.9
		c5.4,5.4,12.7,8.4,20.3,8.4c3.9,0,7.7-0.8,11.2-2.3l20.8,20.8C118,144.2,109.3,146.9,100,146.9z"/>
</g>
</svg>
