<?xml version="1.0" encoding="utf-8"?>
<!-- Generator: Adobe Illustrator 25.0.0, SVG Export Plug-In . SVG Version: 6.00 Build 0)  -->
<svg version="1.1" id="Layer_1" xmlns="http://www.w3.org/2000/svg" xmlns:xlink="http://www.w3.org/1999/xlink" x="0px" y="0px"
	 viewBox="0 0 200 200" style="enable-background:new 0 0 200 200;" xml:space="preserve">
<style type="text/css">
	.st0{fill:#56BABE;}
	.st1{opacity:0.6;fill:#585286;}
	.st2{fill:#2490D3;}
	.st3{fill:#B93246;}
	.st4{fill:#585286;}
	.st5{fill:#198E53;}
	.st6{fill:#F2821F;}
	.st7{fill:#FFD257;}
	.st8{fill:#FFFFFF;}
</style>
<rect x="-11.8" y="-11.8" class="st3" width="223.6" height="223.6"/>
<g>
	<path class="st8" d="M70,129.6c-4-2.3-6.7-6.6-6.7-11.6c0-20.4,16.6-37,37-37h15.3l0.7-11.8H29.8l6.2,102.4
		c0.1,2.3,2.1,4.2,4.4,4.2h27.3c-2.8-3.7-4.5-8.3-4.5-13.3c0-5.8,3.7-10.7,8.8-12.5c-1.8-2.8-2.9-6.1-2.9-9.7c0-3.6,1.1-6.9,2.9-9.7
		C70.6,130.3,69.8,129.9,70,129.6z"/>
	<path class="st8" d="M73.1,60.3C73.1,60.3,73.1,60.3,73.1,60.3l44.4,0c2.5,0,4.4-2,4.4-4.4c0-2.5-2-4.4-4.4-4.4H81.3l12-18.4h15.4
		c2.5,0,4.4-2,4.4-4.4s-2-4.4-4.4-4.4H90.8c-1.5,0-2.9,0.8-3.7,2L70.7,51.4h-42c-2.5,0-4.4,2-4.4,4.4c0,2.5,2,4.4,4.4,4.4L73.1,60.3
		C73,60.3,73,60.3,73.1,60.3z"/>
	<path class="st8" d="M72.2,118.1c0,2.5,2,4.4,4.4,4.4h94.7c2.5,0,4.4-2,4.4-4.4c0-15.5-12.6-28.1-28.1-28.1h-47.4
		C84.8,89.9,72.2,102.6,72.2,118.1z"/>
	<path class="st8" d="M87,131.4c-4.9,0-8.9,4-8.9,8.9s4,8.9,8.9,8.9h74c4.9,0,8.9-4,8.9-8.9s-4-8.9-8.9-8.9H87z"/>
	<path class="st8" d="M171.4,158H76.6c-2.5,0-4.4,2-4.4,4.4c0,7.3,6,13.3,13.3,13.3h77c7.3,0,13.3-6,13.3-13.3
		C175.8,160,173.8,158,171.4,158z"/>
</g>
</svg>
