<?xml version="1.0" encoding="utf-8"?>
<!-- Generator: Adobe Illustrator 25.0.0, SVG Export Plug-In . SVG Version: 6.00 Build 0)  -->
<svg version="1.1" id="Layer_1" xmlns="http://www.w3.org/2000/svg" xmlns:xlink="http://www.w3.org/1999/xlink" x="0px" y="0px"
	 viewBox="0 0 200 200" style="enable-background:new 0 0 200 200;" xml:space="preserve">
<style type="text/css">
	.st0{fill:#56BABE;}
	.st1{opacity:0.6;fill:#585286;}
	.st2{fill:#2490D3;}
	.st3{fill:#B93246;}
	.st4{fill:#585286;}
	.st5{fill:#198E53;}
	.st6{fill:#F2821F;}
	.st7{fill:#FFD257;}
	.st8{fill:#FFFFFF;}
</style>
<rect x="-11.8" y="-11.8" class="st2" width="223.6" height="223.6"/>
<g>
	<path class="st8" d="M114.1,99.2c19.9,0,36.1-16.2,36.1-36.1S134,27,114.1,27S78,43.2,78,63.1S94.2,99.2,114.1,99.2z M109.8,41.9
		v-1c0-2.4,1.9-4.3,4.3-4.3c2.4,0,4.3,1.9,4.3,4.3v1c5.1,1.1,8.9,5.6,8.9,11c0,2.4-1.9,4.3-4.3,4.3c-2.4,0-4.3-1.9-4.3-4.3
		c0-1.5-1.2-2.7-2.7-2.7h-3.8c-1.5,0-2.7,1.2-2.7,2.7c0,0.9,0.4,1.7,1.1,2.2l3.6,2.6l8.6,6.4c2.8,2.1,4.5,5.5,4.6,9v0
		c0,3-1.1,5.9-3.3,8c-1.6,1.6-3.5,2.7-5.7,3.1v1c0,2.4-1.9,4.3-4.3,4.3c-2.4,0-4.3-1.9-4.3-4.3v-1c-2.1-0.4-4-1.5-5.6-3
		c-2.1-2.1-3.3-4.9-3.4-8c0-2.4,1.9-4.3,4.2-4.3h0c2.3,0,4.3,1.9,4.3,4.2c0,1.5,1.2,2.7,2.8,2.7c2.4,0,1.5,0,3.8,0
		c1.5,0,2.7-1.2,2.7-2.8v0c0-0.9-0.4-1.7-1.1-2.2l-3.6-2.6l-8.6-6.4c-2.9-2.1-4.6-5.5-4.6-9.1C100.9,47.5,104.7,43,109.8,41.9z"/>
	<path class="st8" d="M55.6,119.8c-1.1-1.9-3.5-2.6-5.4-1.5L30,129.9c-1.9,1.1-2.6,3.5-1.5,5.4L49.1,171c1.1,1.9,3.5,2.6,5.4,1.5
		l20.1-11.6c1.9-1.1,2.6-3.5,1.5-5.4L55.6,119.8z"/>
	<path class="st8" d="M170.8,112.7c-1.9-2.7-5.7-3.3-8.4-1.4c-8.1,5.9-23.8,17.1-25,18c-0.6,0.5-1.2,0.9-1.8,1.3
		c-2.5,1.5-5.3,2.4-8.3,2.4h-20.5c-2.4,0-4.3-1.9-4.3-4.3c0-2.4,1.9-4.3,4.3-4.3h21.9c3.2,0,5.8-2.7,5.7-5.9
		c-0.1-3.1-2.7-5.4-5.8-5.4h-16.7c-1.1-1.2-2.4-2.3-3.7-3.3c-4.6-3.4-10.2-5.3-16.3-5.3c-10.8,0-21.6,6.8-26.1,15.9l17.5,30.3h32.8
		c6.4,0,12.8-1.6,18.4-4.9c1.9-1.1,4-2.4,6.3-4.1c9.4-6.8,28.7-20.8,28.7-20.8C172.1,119.1,172.8,115.4,170.8,112.7L170.8,112.7z"/>
</g>
</svg>
