<svg id="Layer_1" data-name="Layer 1" xmlns="http://www.w3.org/2000/svg" viewBox="0 0 256 256">
    <defs>
        <style>.cls-1{fill:none;stroke:#fff;stroke-miterlimit:10;stroke-width:2px;}</style>
    </defs>
    <line class="cls-1" x1="18.34" y1="208.4" x2="238.77" y2="208.4" />
    <line class="cls-1" x1="33.17" y1="118.82" x2="33.17" y2="208.4" />
    <line class="cls-1" x1="46.7" y1="118.82" x2="46.7" y2="208.4" />
    <line class="cls-1" x1="210.08" y1="118.82" x2="210.08" y2="208.4" />
    <line class="cls-1" x1="222.65" y1="118.82" x2="222.65" y2="208.4" />
    <path class="cls-1"
        d="M160.13,106.65h31.69s.06-7.23,5.68-9.71a13,13,0,0,1,9-.36c5.85,1.92,6.15,9.85,6.15,9.85h22.8c2.42-.06,3.31,1.06,3.31,2.11v8.38a1.9,1.9,0,0,1-1.9,1.9H163.2" />
    <path class="cls-1"
        d="M93.44,118.82H20.23a1.9,1.9,0,0,1-1.89-1.9v-8.38a1.89,1.89,0,0,1,1.89-1.89H96.65" />
    <path class="cls-1"
        d="M100.84,90H89.28A5.67,5.67,0,0,1,83.6,84.3V42a5.68,5.68,0,0,1,5.68-5.68h78.87A5.68,5.68,0,0,1,173.83,42V84.3A5.67,5.67,0,0,1,168.15,90H155" />
    <path class="cls-1"
        d="M91.43,139.84s36.54,17.46,73.79,0c3.88-1.81,3-4.47,3-4.47S153.46,83.53,150.06,71c-.6-2.25-11.84-4.67-22.72-4.59s-21.15,2.64-22,5.49C101.19,85.83,89.16,135,89.16,135S89.23,138.9,91.43,139.84Z" />
    <polyline class="cls-1" points="91.94 208.4 120.34 161.35 138.82 161.35 165.22 208.4" />
    <polyline class="cls-1" points="165.22 207.16 149.82 147.6 138.22 161.88" />
    <path class="cls-1" d="M92.29,207.82S106,147.47,106.75,146.3l13.59,15" />
    <circle class="cls-1" cx="63.28" cy="57.01" r="9.22" />
    <path class="cls-1" d="M42.82,94V45.18s1.3-8.86,9.68-8.86,9.31,3.92,10.78,11.47" />
    <path class="cls-1" d="M25.83,106.65S25.79,94,33.17,94H51.61s9,0,7.71,12.65" />
</svg>