<svg id="Layer_1" data-name="Layer 1" xmlns="http://www.w3.org/2000/svg" viewBox="0 0 256 256">
    <defs>
        <style>
            .cls-1{fill:none;stroke:#fff;stroke-linecap:round;stroke-miterlimit:10;stroke-width:2px;}
        </style>
    </defs>
    <path class="cls-1"
        d="M47.23,19.59h-14a4,4,0,0,0-4,4V225.74a4,4,0,0,0,4,4h87.57a4,4,0,0,0,4-4V23.58a4,4,0,0,0-4-4H64.26" />
    <line class="cls-1" x1="157.52" y1="39.79" x2="214.17" y2="39.79" />
    <line class="cls-1" x1="157.51" y1="51.43" x2="214.17" y2="51.43" />
    <line class="cls-1" x1="157.53" y1="63.07" x2="214.18" y2="63.07" />
    <line class="cls-1" x1="48.99" y1="39.79" x2="105.64" y2="39.79" />
    <line class="cls-1" x1="48.99" y1="51.43" x2="105.64" y2="51.43" />
    <line class="cls-1" x1="48.99" y1="63.07" x2="105.64" y2="63.07" />
    <circle class="cls-1" cx="51.57" cy="119.75" r="8.29" />
    <path class="cls-1"
        d="M38.56,229.74v9.69s.2,2,.85,2.5c1.32,1,12.24,1.06,13.64.19.62-.39.9-3.18.9-3.18v-9.2" />
    <path class="cls-1"
        d="M100.9,229.74v9.69s.2,2,.85,2.5c1.32,1,12.24,1.06,13.64.19.62-.39.89-3.18.89-3.18v-9.2" />
    <path class="cls-1"
        d="M138.07,72.13v153.8a4,4,0,0,0,4,4h87.56a4,4,0,0,0,4-4V23.77a4,4,0,0,0-4-4H173.11" />
    <path class="cls-1" d="M173.11,19.77H142.06a4,4,0,0,0-4,4V51.89" />
    <path class="cls-1"
        d="M209.75,229.92v9.69s.21,2,.85,2.51c1.32,1,12.25,1,13.65.18.62-.38.89-3.18.89-3.18v-9.2" />
    <path class="cls-1"
        d="M147,229.92v9.69s.2,2,.85,2.51c1.32,1,12.24,1,13.64.18.62-.38.89-3.18.89-3.18v-9.2" />
    <circle class="cls-1" cx="160.15" cy="119.75" r="8.29" />
</svg>