<svg xmlns="http://www.w3.org/2000/svg" viewBox="0 0 200 200"><defs><style>.cls-1{fill:#00b6b6;}.cls-2{fill:#fff;}</style></defs><g id="Layer_2" data-name="Layer 2"><g id="Layer_1-2" data-name="Layer 1"><circle class="cls-1" cx="100" cy="100" r="100"/><path class="cls-2" d="M160.49,69.93A8.93,8.93,0,0,0,152,63.85H120.79V56a10,10,0,0,0-10-10H37a10,10,0,0,0-10,10v72.12a10,10,0,0,0,10,9.94h8.25a18.08,18.08,0,0,0,35.88,0l45.5,0a18.08,18.08,0,0,0,35.87,0h1.55a8.88,8.88,0,0,0,8.87-8.86V109.12C172.94,106.78,173.21,108.92,160.49,69.93ZM31.62,128.15V56a5.4,5.4,0,0,1,5.4-5.4h73.81a5.4,5.4,0,0,1,5.4,5.4v77.5H81.14a18.08,18.08,0,0,0-35.86,0H37A5.39,5.39,0,0,1,31.62,128.15Zm31.59,21.22a13.53,13.53,0,1,1,13.53-13.53A13.55,13.55,0,0,1,63.21,149.37Zm81.37,0a13.53,13.53,0,1,1,13.53-13.53A13.55,13.55,0,0,1,144.58,149.37Zm23.8-20.12a4.31,4.31,0,0,1-4.31,4.3h-1.56a18.07,18.07,0,0,0-35.86,0h-5.86V68.41H152a4.35,4.35,0,0,1,4.12,3C169,110.66,168.38,108,168.38,109.12Z"/><path class="cls-2" d="M150.74,76.8a2.27,2.27,0,0,0-2.16-1.56H129.9a2.28,2.28,0,0,0-2.28,2.28v22.4a2.28,2.28,0,0,0,2.28,2.28H156a2.28,2.28,0,0,0,2.17-3ZM132.18,97.64V79.8h14.75l5.88,17.84Z"/></g></g></svg>