<svg id="Layer_1" data-name="Layer 1" xmlns="http://www.w3.org/2000/svg" viewBox="0 0 256 256">
    <defs>
        <style>
            .cls-1,.cls-2{fill:none;stroke:#fff;stroke-miterlimit:10;stroke-width:2px;}.cls-2{fill-rule:evenodd;}
        </style>
    </defs>
    <rect class="cls-1" x="138.03" y="43.73" width="66.12" height="68.7" rx="3" />
    <line class="cls-1" x1="196.78" y1="135.76" x2="145.15" y2="135.76" />
    <path class="cls-2"
        d="M228.91,206.56H113.19a6.48,6.48,0,0,0-6.47,6.48v13.22a6.47,6.47,0,0,0,6.47,6.47H228.91a6.47,6.47,0,0,0,6.47-6.47V213A6.48,6.48,0,0,0,228.91,206.56Z" />
    <path class="cls-2"
        d="M118.84,206.56l-.46-180.27a5.74,5.74,0,0,1,2.35-3.46,5.58,5.58,0,0,1,3.38-1h93.64a6.52,6.52,0,0,1,5.51,4.42V206.56" />
    <path class="cls-2"
        d="M118.57,102.6s-11.31,1.23-18.93,9.27c-7.27,7.69-10.89,22.06-9.45,28C94.29,157,98,183.74,86,193.8c-12.95,10.83-34.07-.46-36.37-7.44-2-6.11-9.3-19.5,2.94-46.45,10.68-23.52,12.68-23.83,17-32.12C73.6,100,77,88.73,75.31,72.93,74,60.86,63.19,49.24,63.19,49.24l-30.31-23A28.77,28.77,0,0,0,22.45,21C17.08,19.67,9,20.82,9,20.82" />
    <path class="cls-2"
        d="M34.7,27.67,25.16,39.74a15.53,15.53,0,0,0-.34,3.85,15,15,0,0,0,2.07,3.17L48,63.57s2.56,1.08,3.45,1,3.23-1.93,3.23-1.93l9.46-12.24" />
</svg>