<svg id="Layer_1" data-name="Layer 1" xmlns="http://www.w3.org/2000/svg" viewBox="0 0 256 256">
    <defs>
        <style>.cls-1{fill:none;stroke:#fff;stroke-miterlimit:10;stroke-width:2px;}</style>
    </defs>
    <polyline class="cls-1" points="139.81 75.17 139.81 18 238.06 18 238.06 238.47 17.3 238.47" />
    <line class="cls-1" x1="211.68" y1="133.09" x2="195.62" y2="115.29" />
    <line class="cls-1" x1="158.73" y1="131.91" x2="210.39" y2="131.92" />
    <line class="cls-1" x1="195.81" y1="147.92" x2="212.13" y2="130.27" />
    <line class="cls-1" x1="139.81" y1="102.35" x2="139.81" y2="112.32" />
    <line class="cls-1" x1="139.81" y1="154.61" x2="139.81" y2="187.44" />
    <path class="cls-1"
        d="M87.71,105l-35.9,15.07-4.76,5.36L41.1,153s-1.19,7.78,5.95,9.92c8.53,2.54,11.9-5.36,11.9-5.36l5.46-22.21,17.35-7.1L76,162.9,52.6,188.66l-19.24-17a8.64,8.64,0,0,0-11.85.84c-6.2,6.1-.44,13.83-.44,13.83l25.78,22.22a9.5,9.5,0,0,0,6.7,2.67,12,12,0,0,0,6.79-2.67l25.59-26.58,23.2,14.87,15.08,29.66A9.78,9.78,0,0,0,136,229.34c8.08-3.26,5.24-11.5,5.24-11.5L125.2,185.51,121.63,181,95.45,165.67l5.16-23.4,4.36,7.14s1.78,3.32,4.86,4.11c4.3,1.11,6.25-.14,6.25-.14l28.36-14.29s5.81-5.29,2.38-11.9A9.1,9.1,0,0,0,136,122.43l-19.75,9.49-8.73-16.63s18.18-.05,20.91-16.06c3.49-20.44-13-26.39-13-26.39S100.24,65,88.31,81.37C81,91.4,87.71,105,87.71,105Z" />
</svg>