<?xml version="1.0" encoding="utf-8"?>
<!-- Generator: Adobe Illustrator 25.0.0, SVG Export Plug-In . SVG Version: 6.00 Build 0)  -->
<svg version="1.1" id="Layer_1" xmlns="http://www.w3.org/2000/svg" xmlns:xlink="http://www.w3.org/1999/xlink" x="0px" y="0px"
	 viewBox="0 0 200 200" style="enable-background:new 0 0 200 200;" xml:space="preserve">
<style type="text/css">
	.st0{fill:#F2DB32;stroke:#56442F;stroke-width:2.2583;}
	.st1{fill:#CC472B;}
	.st2{fill:#201D1E;}
	.st3{fill:#3E8ECC;}
	.st4{fill:#198E53;stroke:#56442F;stroke-width:2.2583;}
	.st5{fill:#4D4972;}
	.st6{fill:#2E586C;}
	.st7{fill:#B93246;stroke:#56442F;stroke-width:2.2583;}
	.st8{fill:#60674B;}
	.st9{fill:#54422D;}
</style>
<path class="st7" d="M12,116.6l1.8-48.5c0,0,1.8-13.7,15.3-16.6c13.5-2.9,9.2-0.2,16.5-6.9s15.3-9.9,26.1-9.9s10.6-0.7,18.2-7.2
	s19.9-6,26.6-3.6c6.7,2.4,10.2,5.1,13.3,5.3c3.1,0.2,11.5-3.6,18.1-2.9c6.6,0.7,14.5,2.6,18.9,18.4c4.5,15.8,14.4,49.9,14.4,49.9
	l5.3,19.7c0,0,4.9,15.9-3.1,31.5s-11.3,20.7-11.3,20.7s-4,8.6-11.5,8.9c-7.5,0.4-15.8-1.4-29,0.6c-13.2,2-21.9,4.4-28-4.2
	c-6.1-8.6-2.4-18.2,1.5-22l-12.6-0.2c0,0-10.8,0.2-14.5-10.3c0,0-5.4,7.9-23.1,5.5c-17.7-2.4-19-14.1-19-14.1s-8,1.9-17.3-2.9
	C12.1,124.4,12,116.6,12,116.6z"/>
<path class="st8" d="M102.8,166.1c0,0,25.4-10.5,47.4-3.6c0,0-5.5,6.2-1.4,9.5c-3.5-0.1-6.5-0.1-8.6,0.1c-0.9,0-5.1,0.3-10.6,1.1
	c-3.8,0.6-4.8,0.9-8.2,1.3c-2.7,0.3-4.9,0.4-6.4,0.4c-1.3,0-3.6-0.3-6.1-1.7C104.9,171,103.3,167.3,102.8,166.1z"/>
<path class="st8" d="M39.1,79.8c3,1.4,7.1,4,8.7,8.4c2.5,6.9-3.9,11-4.2,21c-0.3,12.2,8.9,19.5,6.1,22.6c-1,1.1-3.6,1.8-11.5-1.6
	C38.6,113.3,38.8,96.5,39.1,79.8z"/>
<path class="st8" d="M15.8,85c1.9,0.9,4.6,2.6,5.6,5.4c1.6,4.5-2.6,7.1-2.7,13.6c-0.2,7.9,5.8,12.6,4,14.6c-0.6,0.7-2.3,1.1-7.4-1
	C15.5,106.7,15.6,95.8,15.8,85z"/>
<path class="st8" d="M81.3,73.7c7.2,10,8.4,17.8,8.2,23.1c-0.4,10.3-6.2,14.7-3.9,24.5c1.6,6.7,5.6,10.5,3.7,13.7
	c-1.5,2.5-5.5,3-8.9,2.9C80.8,116.5,81,95.1,81.3,73.7z"/>
<path class="st2" d="M78.8,76c-0.6,0-1.3,63.3-0.8,63.3c0.2,0,0.6-10.7,0.8-14.3C79.8,99.4,79.2,76,78.8,76z"/>
<path class="st2" d="M37.2,80c-0.6,0-1.3,50.3-0.8,50.4c0.2,0,0.6-8.5,0.8-11.4C38.1,98.6,37.5,80,37.2,80z"/>
<path class="st2" d="M129.6,141c0,0.1,17.7,6.4,30.8,0.4c3.9-1.8,6.8-4.1,8.9-6.1c1.9-1.8,4.4-4.7,6-8.9c1.8-4.6,1.7-8.6,1-15.5
	c-1-9.8-2.3-17-3-21.3c-0.8-5-3.8-23.1-3.2-23.2c1-0.2,5.9,42.5,5.4,50.4c-0.3,4.2-1.6,8-1.6,8s-0.6,1.7-1.4,3.3
	c-1.9,3.7-8.9,11.9-20.2,14.8C139.8,146,129.6,141,129.6,141z"/>
<path class="st8" d="M128.9,140.9c3.4,1.3,9,3.1,15.9,3.1c2.7,0,8.5,0,14.2-2.4c11.7-5,16.3-17,17.4-20.2c-0.4,3-1.9,10.4-8,16.6
	c-10.4,10.8-24.9,8.8-26,8.6C136,145.6,131.4,142.7,128.9,140.9z"/>
<path class="st2" d="M105.8,149c0,0.1,13.2,2.2,22.7-6.9c1.8-1.8,2.9-3.3,3.2-3.8c5.2-8,3.2-17.5,1.4-28.1c-4-22.5-6.2-43-6.2-43.3
	c0.1,2.7,0.3,6.9,0.8,11.9c1.2,13.4,2.9,17.9,4.3,31.4c1.7,15.4,0.6,19.8-0.7,23c-0.8,2-2.9,7.1-7.8,11
	C115.1,150.9,105.8,148.9,105.8,149z"/>
<path class="st9" d="M152.5,162.6c1.7,1.2,2.5,3.3,2.2,5.3c-0.3,1.9-1.7,3.6-3.6,4.2C151.1,172.1,147.3,169.6,152.5,162.6z"/>
<path class="st9" d="M124.6,69.8C124.6,69.8,124.6,69.7,124.6,69.8c0,0,7.3,24.2,1,46.5c-1.4,4.9-3.2,8.6-4.2,10.8
	c-1.2,2.4-3.7,6.6-8.5,10c-0.9,0.7-4.7,3.1-11.3,4.7c-11,2.6-19.3-1-19.4-0.5c-0.2,0.7,13.9,6.8,28.7,4.5c5.7-0.9,8.7-2.5,10.6-4
	c3.7-2.8,5.4-6.1,6.1-7.7c2.6-5.4,2.6-10.5,2.5-13.2C129.8,111.7,128.1,93.4,124.6,69.8z"/>
<path class="st9" d="M134.6,140.4c3.5,0.9,13.4,2.8,23.6-2.3c2.1-1,6-3,9.4-7.1c3.4-4.2,5.8-10.1,5.2-27.4
	c-0.3-8.3-1.3-19.9-4.5-33.6c0.6,2,10.2,33.9-9.8,56C150.2,135,140.4,138.8,134.6,140.4z"/>
<path class="st9" d="M76.7,75.9c0,0,0.1,8.5-0.7,20.6c-1.1,17-3,24.6-7.4,31.2c-3,4.6-5.6,6.3-7.7,7.3c-4.2,1.8-8.3,1.3-12.3,0.7
	c-4.3-0.6-7.7-1.7-9.9-2.7c2,2.2,6.1,6,12.4,8.1c5.8,1.9,16.3,3,21.9-2.4c4.3-4.1,3.2-9.3,2.9-26.5C75.6,91.3,76.8,75.9,76.7,75.9z"
	/>
<path class="st9" d="M45.6,51.7c1.3-2.5,3.6-5.9,7.3-8.7c10.5-8,23.5-4.9,25.6-4.3c-6.1-0.1-10.8,1-13.9,1.9c-4,1.2-6.8,2.8-8.6,3.8
	C51.3,46.9,47.9,49.6,45.6,51.7z"/>
<path class="st8" d="M130.1,68.8c2.1,10.1,3.9,21.2,5.2,33.2c1.2,11.7,1.8,22.6,1.9,32.6c11.2-8,13-12.5,12.3-15.2
	c-0.8-2.8-4.3-3.2-6-7.2c-2-4.6,0.5-9.4,1.3-12C146.6,94.7,145.1,85.3,130.1,68.8z"/>
<path class="st9" d="M87.5,35.6c1.1-1.8,3.4-4.8,7.4-7.1c6.6-3.8,13.1-2.7,15.4-2.3c8.1,1.5,13,6.6,14.5,8.3
	c-3.1-1.5-7.7-3.3-13.4-3.9C100,29.5,91.2,33.6,87.5,35.6z"/>
<path class="st9" d="M132.5,33.5c0.8-0.5,12.3-7.1,22.6-1.5c3.7,2,5.9,4.9,7.1,7c-2.6-1.7-6.4-3.6-11.2-4.9
	C143,32,136.3,32.8,132.5,33.5z"/>
<path class="st9" d="M13.9,117.5c0.2,1.2,0.8,4.5,3.6,7.2c4.5,4.5,10.7,3.6,11.4,3.5c1-0.1,2.4-0.5,3.6-1.5c2.7-2.5,2-6.9,1.6-14
	c-0.2-4.3-0.1-8.6-0.2-12.9c-0.1-4.6-0.2-11.4,0.2-19.8c0,9.6-0.8,26.2-5.9,37.6c-1.7,3.8-3.5,6-5.8,6.3
	C18.2,124.5,14.3,118.1,13.9,117.5z"/>
<path class="st9" d="M16.9,68.4c0,0,4.9-13.9,20.8-12.2"/>
</svg>
