<svg id="Layer_1" data-name="Layer 1" xmlns="http://www.w3.org/2000/svg" viewBox="0 0 256 256">
    <defs>
        <style>.cls-1{fill:none;stroke:#fff;stroke-miterlimit:10;stroke-width:2px;}</style>
    </defs>
    <path class="cls-1"
        d="M124.42,236.61a35,35,0,0,1-6.61-1.75,20.44,20.44,0,0,1-13.83-19V107.13A23.69,23.69,0,0,1,120,83.59,25.52,25.52,0,0,1,149.59,92a21.51,21.51,0,0,1,4.37,13.4v54h0c0,17.5-.35,35,0,52.52a24.81,24.81,0,0,1-24.49,25.14A25.17,25.17,0,0,1,124.42,236.61Z" />
    <path class="cls-1" d="M128.27,71.86a27,27,0,1,1,.22,0Z" />
</svg>