<svg xmlns="http://www.w3.org/2000/svg" viewBox="0 0 200 200"><defs><style>.cls-1{fill:#00b6b6;}.cls-2{fill:none;stroke:#fff;stroke-miterlimit:10;stroke-width:5.27px;}.no-fill{fill: none !important;stroke-width: 6.27px !important;}</style></defs><g id="Layer_2" data-name="Layer 2"><g id="Layer_1-2" data-name="Layer 1"><circle class="cls-1" cx="100" cy="100" r="100"/><path class="cls-2 no-fill" d="M97.9,155.63a18.59,18.59,0,0,1-3.37-.89A10.45,10.45,0,0,1,87.47,145V89.57a12.1,12.1,0,0,1,8.2-12,13,13,0,0,1,15.07,4.31A10.94,10.94,0,0,1,113,88.69v27.54h0c0,8.94-.18,17.87,0,26.8a12.67,12.67,0,0,1-12.5,12.83A13.1,13.1,0,0,1,97.9,155.63Z"/><path class="cls-2 no-fill" d="M99.87,71.56a13.79,13.79,0,1,1,.11,0Z"/></g></g></svg>