<?xml version="1.0" encoding="UTF-8"?>
<!DOCTYPE svg PUBLIC "-//W3C//DTD SVG 1.0//EN" "http://www.w3.org/TR/2001/REC-SVG-20010904/DTD/svg10.dtd">
<!-- Creator: CorelDRAW X7 -->
<svg xmlns="http://www.w3.org/2000/svg" xml:space="preserve" width="8mm" height="8mm" version="1.0" style="shape-rendering:geometricPrecision; text-rendering:geometricPrecision; image-rendering:optimizeQuality; fill-rule:evenodd; clip-rule:evenodd"
viewBox="0 0 425 425"
 xmlns:xlink="http://www.w3.org/1999/xlink">
 <defs>
  <style type="text/css">
   <![CDATA[
    .fil0 {fill:#00B6B6;fill-rule:nonzero}
    .fil1 {fill:white;fill-rule:nonzero}
   ]]>
  </style>
 </defs>
 <g id="Layer_x0020_1">
  <metadata id="CorelCorpID_0Corel-Layer"/>
  <path id="PLMB1F1001" class="fil0" d="M425 212c0,-117 -95,-212 -213,-212 -117,0 -212,95 -212,212 0,118 95,213 212,213 118,0 213,-95 213,-213z"/>
  <path class="fil1" d="M316 161l0 0c-4,0 -7,-4 -7,-9l0 -8 16 0 0 8c0,5 -4,9 -9,9zm9 164l0 0 -213 0 0 -66 213 0 0 66zm-213 -181l0 0 16 0 0 8c0,5 -3,9 -8,9 -5,0 -8,-4 -8,-9l0 -8zm0 -11l0 0 22 -46 9 0 -14 49 -17 0 0 -3 0 0zm49 -46l0 0 -8 49 -15 0 13 -49 10 0 0 0zm0 57l0 0 16 0 0 8c0,5 -3,9 -8,9 -4,0 -8,-4 -8,-9l0 -8zm7 -57l0 0 9 0 0 49 -16 0 7 -49zm-31 65l0 0 0 -8 16 0 0 8c-1,12 -16,12 -16,0zm49 80l0 0 4 0c7,0 13,6 13,12l0 5 -4 0c-7,0 -13,-6 -13,-12l0 -5zm-16 -21l0 0 0 -5 4 0c7,0 12,6 12,12l0 5 -3 0c-7,0 -13,-6 -13,-12zm-9 21l0 0 4 0c7,0 13,6 13,12l0 4 -5 0c-7,0 -12,-5 -12,-12l0 -4zm-8 12l0 0 0 4 -5 0c-7,0 -12,-6 -12,-12l0 -4 4 0c7,0 13,5 13,12zm-7 -34l0 0 0 -4 4 0c7,0 13,6 13,12l0 4 -4 0c-7,0 -13,-5 -13,-12zm134 4l0 0 0 -12c0,-2 2,-5 4,-5 2,0 4,3 4,5l0 12 -8 0 0 0zm-18 1l0 0 0 -13c0,-2 2,-4 4,-4 3,0 4,2 4,4l0 13 -8 0zm-17 -1l0 0 0 -13c0,-2 2,-4 4,-4 2,0 4,2 4,4l0 13 -8 0zm11 8l0 0 45 0 0 25 -66 0 0 -25 21 0zm-74 -55l0 0c6,8 17,8 24,0 6,8 18,8 24,0 7,8 19,8 25,0 6,8 18,8 25,0 6,8 18,8 24,0 3,4 8,6 12,6l0 74 -7 0 0 -33 -13 0 0 -12c0,-5 -3,-10 -7,-11l3 -8 -8 -3 -4 10c-1,0 -3,1 -5,2 0,0 -1,-1 -2,-1l2 -8 -7 -3 -4 10c-1,0 -3,1 -5,2 0,0 -2,-1 -3,-1l3 -8 -7 -3 -4 10c-6,1 -9,6 -9,12l0 12 -12 0 0 33 -17 0 0 -5c0,-9 -7,-17 -16,-19 0,0 0,-5 0,-5 0,-11 -10,-21 -21,-21l-4 0c-3,0 -6,2 -7,5 -5,-4 -11,-5 -18,-5 -4,0 -8,5 -8,9l0 4c0,4 2,8 5,12l-1 0 -4 0c-4,0 -8,4 -8,8 0,6 1,12 4,17l-12 0 0 -74c5,0 9,-2 12,-6 7,8 19,8 25,0 6,8 18,8 25,0l0 0zm3 -23l0 0 17 0 0 8c0,5 -4,9 -8,9 -5,0 -9,-4 -9,-9l0 -8 0 0zm0 -57l0 0 17 0 0 49 -17 0 0 -49zm25 57l0 0 17 0 0 8c0,5 -4,9 -9,9 -5,0 -8,-4 -8,-9l0 -8 0 0zm0 -57l0 0 17 0 0 49 -17 0 0 -49zm25 57l0 0 16 0 0 8c0,5 -4,9 -8,9 -5,0 -8,-4 -8,-9l0 -8zm0 -57l0 0 16 0 0 49 -16 0 0 -49zm24 57l0 0 17 0 0 8c0,5 -4,9 -8,9 -5,0 -9,-4 -9,-9l0 -8zm0 -57l0 0 9 0 7 49 -16 0 0 -49zm41 57l0 0 0 8c0,5 -3,9 -8,9 -4,0 -8,-4 -8,-9l0 -8 16 0zm-15 -57l0 0 14 49 -15 0 -1 0 -7 -49 9 0 0 0zm17 0l0 0 23 46 0 3 -16 0 -2 0 -14 -49 9 0 0 0zm37 68l0 -22 -27 -55 -188 0 -27 55 0 22c0,7 4,12 9,15l0 80 -9 0 0 86 242 0 0 -86 -9 0 0 -80c5,-3 9,-8 9,-15l0 0z"/>
 </g>
</svg>
