<svg id="Layer_1" data-name="Layer 1" xmlns="http://www.w3.org/2000/svg" viewBox="0 0 256 256">
    <defs>
        <style>.cls-1{fill:none;stroke:#fff;stroke-miterlimit:10;stroke-width:2px;}</style>
    </defs>
    <path class="cls-1"
        d="M133.43,64.68H101.72c-9,0-14,5.56-14,14V180.55c0,8.95,5.74,14,13.44,14s13.44-5,13.44-14V150H134.5c24.55,0,44.8-16.29,44.8-42.45C179.3,81.89,159.78,64.68,133.43,64.68Zm-.53,61.64h-5.77v0H114.62v-38H132.9c11.27,0,18.46,8.24,18.46,19S144.17,126.32,132.9,126.32Z" />
    <path class="cls-1"
        d="M210.76,243.56H46.6a31.91,31.91,0,0,1-31.88-31.88V47.53A31.92,31.92,0,0,1,46.6,15.64H210.76a31.93,31.93,0,0,1,31.89,31.89V211.69A31.93,31.93,0,0,1,210.76,243.56Z" />
</svg>