<?xml version="1.0" encoding="utf-8"?><!-- Generator: Adobe Illustrator 25.0.0, SVG Export Plug-In . SVG Version: 6.00 Build 0)  -->
<svg version="1.1" id="Layer_1" xmlns="http://www.w3.org/2000/svg" x="0px" y="0px"
    viewBox="0 0 200 200" style="enable-background:new 0 0 200 200;" xml:space="preserve">
<g>
	<g>
		<g>
			<path d="M71.7,24.4H24.4v47.2h47.2V24.4z M62.2,62.2H33.9V33.9h28.3V62.2z" />
            <rect x="43.3" y="43.3" width="9.4" height="9.4" />
            <path d="M128.3,24.4v47.2h47.2V24.4H128.3z M166.1,62.2h-28.3V33.9h28.3V62.2z" />
            <rect x="147.2" y="43.3" width="9.4" height="9.4" />
            <path d="M24.4,175.6h47.2v-47.2H24.4V175.6z M33.9,137.8h28.3v28.3H33.9V137.8z" />
            <rect x="43.3" y="147.2" width="9.4" height="9.4" />
            <rect x="100" y="24.4" width="18.9" height="9.4" />
            <polygon points="100,62.2 109.4,62.2 109.4,52.8 118.9,52.8 118.9,43.3 90.6,43.3 90.6,33.9 81.1,33.9 81.1,43.3 81.1,48
				81.1,52.8 100,52.8 			" />
            <rect x="81.1" y="62.2" width="9.4" height="9.4" />
            <polygon
                points="118.9,71.7 109.4,71.7 109.4,81.1 81.1,81.1 81.1,90.6 118.9,90.6 			" />
            <polygon
                points="33.9,109.4 43.3,109.4 43.3,100 33.9,100 33.9,81.1 24.4,81.1 24.4,118.9 33.9,118.9 			" />
            <rect x="43.3" y="81.1" width="9.4" height="9.4" />
            <polygon points="81.1,118.9 100,118.9 100,109.4 90.6,109.4 90.6,100 71.7,100 71.7,81.1 62.2,81.1 62.2,100 52.8,100
				52.8,118.9 62.2,118.9 62.2,109.4 66.9,109.4 71.7,109.4 81.1,109.4 			" />
            <rect x="109.4" y="100" width="9.4" height="18.9" />
            <polygon points="109.4,128.3 81.1,128.3 81.1,137.8 100,137.8 100,166.1 81.1,166.1 81.1,175.6 109.4,175.6 109.4,166.1
				128.3,166.1 128.3,156.7 109.4,156.7 			" />
            <rect x="81.1" y="147.2" width="9.4" height="9.4" />
            <rect x="118.9" y="128.3" width="9.4" height="18.9" />
            <polygon
                points="166.1,147.2 137.8,147.2 137.8,175.6 147.2,175.6 147.2,156.7 166.1,156.7 			" />
            <rect x="156.7" y="166.1" width="18.9" height="9.4" />
            <rect x="166.1" y="128.3" width="9.4" height="9.4" />
            <polygon
                points="137.8,137.8 147.2,137.8 147.2,109.4 128.3,109.4 128.3,118.9 137.8,118.9 			" />
            <polygon points="156.7,90.6 147.2,90.6 147.2,81.1 137.8,81.1 137.8,90.6 128.3,90.6 128.3,100 166.1,100 166.1,90.6 175.6,90.6
				175.6,81.1 156.7,81.1 			" />
            <rect x="156.7" y="109.4" width="18.9" height="9.4" />
		</g>
	</g>
</g>
</svg>
