<?xml version="1.0" encoding="utf-8"?><!-- Generator: Adobe Illustrator 25.0.0, SVG Export Plug-In . SVG Version: 6.00 Build 0)  -->
<svg version="1.1" id="Layer_1" xmlns="http://www.w3.org/2000/svg" x="0px" y="0px"
    viewBox="0 0 200 200" style="enable-background:new 0 0 200 200;" xml:space="preserve">
<g>
	<g>
		<g>
			<g>
				<path d="M77,17.7H38.6v38.4H77V17.7z M69.3,48.4h-23v-23h23V48.4z" />
                <rect x="53.9" y="33" width="7.7" height="7.7" />
                <path d="M123,17.7v38.4h38.4V17.7H123z M153.7,48.4h-23v-23h23V48.4z" />
                <rect x="138.4" y="33" width="7.7" height="7.7" />
                <path d="M38.6,140.5H77v-38.4H38.6V140.5z M46.3,109.8h23v23h-23V109.8z" />
                <rect x="53.9" y="117.5" width="7.7" height="7.7" />
                <rect x="100" y="17.7" width="15.4" height="7.7" />
                <polygon points="100,48.4 107.7,48.4 107.7,40.7 115.4,40.7 115.4,33 92.3,33 92.3,25.4 84.6,25.4 84.6,33 84.6,36.9 84.6,40.7
					100,40.7 				" />
                <rect x="84.6" y="48.4" width="7.7" height="7.7" />
                <polygon
                    points="115.4,56.1 107.7,56.1 107.7,63.8 84.6,63.8 84.6,71.4 115.4,71.4 				" />
                <polygon
                    points="46.3,86.8 53.9,86.8 53.9,79.1 46.3,79.1 46.3,63.8 38.6,63.8 38.6,94.5 46.3,94.5 				" />
                <rect x="53.9" y="63.8" width="7.7" height="7.7" />
                <polygon points="84.6,94.5 100,94.5 100,86.8 92.3,86.8 92.3,79.1 77,79.1 77,63.8 69.3,63.8 69.3,79.1 61.6,79.1 61.6,94.5
					69.3,94.5 69.3,86.8 73.1,86.8 77,86.8 84.6,86.8 				" />
                <rect x="107.7" y="79.1" width="7.7" height="15.4" />
                <polygon points="107.7,102.1 84.6,102.1 84.6,109.8 100,109.8 100,132.8 84.6,132.8 84.6,140.5 107.7,140.5 107.7,132.8
					123,132.8 123,125.2 107.7,125.2 				" />
                <rect x="84.6" y="117.5" width="7.7" height="7.7" />
                <rect x="115.4" y="102.1" width="7.7" height="15.4" />
                <polygon
                    points="153.7,117.5 130.7,117.5 130.7,140.5 138.4,140.5 138.4,125.2 153.7,125.2 				" />
                <rect x="146.1" y="132.8" width="15.4" height="7.7" />
                <rect x="153.7" y="102.1" width="7.7" height="7.7" />
                <polygon
                    points="130.7,109.8 138.4,109.8 138.4,86.8 123,86.8 123,94.5 130.7,94.5 				" />
                <polygon points="146.1,71.4 138.4,71.4 138.4,63.8 130.7,63.8 130.7,71.4 123,71.4 123,79.1 153.7,79.1 153.7,71.4 161.4,71.4
					161.4,63.8 146.1,63.8 				" />
                <rect x="146.1" y="86.8" width="15.4" height="7.7" />
			</g>
		</g>
	</g>
    <g>
		<g>
			<path d="M59,177.2c0.8,0,1.5-0.1,2.1-0.2c0.6-0.1,1-0.3,1.3-0.6c0.3-0.2,0.6-0.5,0.7-0.9c0.1-0.3,0.2-0.7,0.2-1.1
				c0-0.9-0.4-1.6-1.2-2.2c-0.8-0.6-2.2-1.2-4.2-1.9c-0.9-0.3-1.7-0.7-2.6-1.1c-0.9-0.4-1.7-0.9-2.4-1.5c-0.7-0.6-1.3-1.3-1.7-2.2
				c-0.4-0.9-0.7-1.9-0.7-3.1c0-1.2,0.2-2.3,0.7-3.3c0.5-1,1.1-1.8,2-2.5c0.8-0.7,1.9-1.2,3.1-1.6c1.2-0.4,2.6-0.6,4.1-0.6
				c1.8,0,3.4,0.2,4.7,0.6s2.4,0.8,3.2,1.3l-1.7,4.7c-0.7-0.4-1.6-0.7-2.5-1s-2-0.4-3.3-0.4c-1.4,0-2.5,0.2-3.1,0.6
				c-0.6,0.4-0.9,1-0.9,1.8c0,0.5,0.1,0.9,0.3,1.2s0.6,0.6,1,0.9c0.4,0.3,0.9,0.5,1.5,0.7c0.6,0.2,1.2,0.4,1.8,0.7
				c1.4,0.5,2.6,1,3.6,1.5c1,0.5,1.9,1.1,2.6,1.8c0.7,0.7,1.2,1.5,1.5,2.4c0.3,0.9,0.5,2,0.5,3.3c0,2.5-0.9,4.4-2.6,5.8
				c-1.8,1.4-4.4,2.1-7.9,2.1c-1.2,0-2.3-0.1-3.2-0.2c-1-0.1-1.8-0.3-2.5-0.5c-0.7-0.2-1.4-0.4-1.9-0.7c-0.5-0.2-1-0.5-1.3-0.7
				l1.7-4.8c0.8,0.4,1.8,0.8,3,1.2C55.9,177,57.3,177.2,59,177.2z" />
            <path d="M86.3,182.3c-4.3,0-7.7-1.2-9.9-3.6c-2.3-2.4-3.4-5.9-3.4-10.3c0-2.2,0.3-4.2,1-5.9s1.6-3.2,2.9-4.4
				c1.2-1.2,2.6-2.1,4.3-2.7c1.7-0.6,3.5-0.9,5.4-0.9c1.1,0,2.2,0.1,3.1,0.3s1.7,0.4,2.4,0.6c0.7,0.2,1.3,0.4,1.7,0.7s0.8,0.4,1,0.5
				l-1.7,4.9c-0.8-0.4-1.8-0.8-2.9-1.1c-1.1-0.3-2.3-0.5-3.7-0.5c-0.9,0-1.8,0.2-2.7,0.5s-1.7,0.8-2.4,1.5c-0.7,0.7-1.2,1.6-1.6,2.6
				c-0.4,1.1-0.6,2.4-0.6,3.9c0,1.2,0.1,2.4,0.4,3.5c0.3,1.1,0.7,2,1.3,2.8c0.6,0.8,1.4,1.4,2.4,1.8s2.2,0.7,3.5,0.7
				c0.9,0,1.7-0.1,2.4-0.2c0.7-0.1,1.3-0.2,1.9-0.4c0.5-0.1,1-0.3,1.4-0.5s0.8-0.3,1.1-0.5l1.7,4.8c-0.8,0.5-2,1-3.6,1.4
				C90.2,182.1,88.4,182.3,86.3,182.3z" />
            <path d="M117.1,181.8c-0.3-0.9-0.6-1.9-1-2.9c-0.3-1-0.7-2-1-2.9h-10.4c-0.3,1-0.7,2-1,2.9c-0.3,1-0.7,1.9-0.9,2.9h-6.2
				c1-2.9,2-5.5,2.9-8c0.9-2.4,1.8-4.7,2.7-6.9c0.9-2.2,1.7-4.2,2.6-6.2c0.8-1.9,1.7-3.8,2.6-5.7h5.7c0.9,1.9,1.7,3.7,2.6,5.7
				c0.9,1.9,1.7,4,2.6,6.2c0.9,2.2,1.8,4.5,2.7,6.9s1.9,5.1,2.9,8H117.1z M109.9,161.1c-0.1,0.4-0.3,0.9-0.6,1.6s-0.6,1.4-0.9,2.3
				s-0.7,1.8-1.1,2.9c-0.4,1.1-0.8,2.2-1.2,3.3h7.6c-0.4-1.2-0.8-2.3-1.2-3.3c-0.4-1.1-0.7-2-1.1-2.9c-0.3-0.9-0.6-1.6-0.9-2.3
				C110.2,162,110,161.5,109.9,161.1z" />
            <path d="M144.9,181.8c-1.7-3.1-3.6-6.1-5.6-9.1c-2-3-4.1-5.8-6.4-8.5v17.5H127V155h4.9c0.8,0.8,1.8,1.9,2.8,3.1
				c1,1.2,2.1,2.6,3.1,4c1.1,1.4,2.1,2.9,3.2,4.4s2,3,3,4.3V155h6v26.7H144.9z" />
		</g>
	</g>
</g>
</svg>
