<svg id="Layer_1" data-name="Layer 1" xmlns="http://www.w3.org/2000/svg" viewBox="0 0 256 256">
    <defs>
        <style>
            .cls-1,.cls-2{fill:none;stroke:#fff;stroke-miterlimit:10;stroke-width:2px;}.cls-1{stroke-linecap:round;}
        </style>
    </defs>
    <path class="cls-1"
        d="M83.26,15.38h82.51a82.21,82.21,0,0,1,9.94,7.38,117.16,117.16,0,0,1,9.64,10.09c3.37,3.75,11.74,16.41,11.74,16.41L210,42.94,187.76,91.88l-59.38-4.26L146.64,75A71.42,71.42,0,0,0,142,63.57c-3.41-6.93-9.71-14.38-12.16-17.17A98.77,98.77,0,0,0,120,37.07s-8.56,9.58-11,13.1a46.53,46.53,0,0,0-6.17,12.65,47.24,47.24,0,0,0-1.66,11.74c0,2.18,0,8.73,0,8.73L49.37,56s6.61-12.29,9-16.26,3.65-6.33,11-14.76C74.22,19.5,83.26,15.38,83.26,15.38Z" />
    <path class="cls-2"
        d="M120.5,36.49s8.71-6.54,12-8.61a103,103,0,0,1,14-6.93,194.57,194.57,0,0,1,19.27-5.57" />
    <path class="cls-1"
        d="M242,147.32l-45,69.14a81.25,81.25,0,0,1-11.6,4.3,117.48,117.48,0,0,1-13.72,2.57c-5,.77-20.16.88-20.16.88l-1.76,14.29-28.85-45.38,36-47.42.6,22.18a71.37,71.37,0,0,0,12.13,2.34c7.67.92,17.35-.28,21-.81a99.54,99.54,0,0,0,13.18-3.14s-3.36-12.4-5-16.36a46.94,46.94,0,0,0-7.23-12.08,47.88,47.88,0,0,0-8.93-7.8c-1.82-1.21-7.32-4.77-7.32-4.77l51.11-28.52s6.69,12.25,8.7,16.44,3.31,6.52,6.36,17.28C243.43,137.51,242,147.32,242,147.32Z" />
    <path class="cls-2"
        d="M203.93,167s.73,10.87.67,14.75a102.42,102.42,0,0,1-1.84,15.51,194.88,194.88,0,0,1-5.86,19.19" />
    <path class="cls-1"
        d="M47.48,212.38,14.33,136.81a80.9,80.9,0,0,1,2.77-12.06,114.7,114.7,0,0,1,5.37-12.88c2.08-4.59,10.31-17.35,10.31-17.35l-11-9.3L75.55,86l20,56.09L76.62,130.38a70.9,70.9,0,0,0-8.6,8.87c-5,5.9-9.27,14.67-10.84,18A99.42,99.42,0,0,0,52.58,170s12.21,4,16.41,4.81a46.6,46.6,0,0,0,14.06.57,47,47,0,0,0,11.42-3.2c2-.86,8-3.51,8-3.51l-4.15,58.39S84.41,226,79.8,225.34s-7.26-.79-17.93-4.14C54.88,219,47.48,212.38,47.48,212.38Z" />
    <path class="cls-2"
        d="M51.85,169.8s-9.5-5.36-12.7-7.53a101.66,101.66,0,0,1-12-10,194.82,194.82,0,0,1-12.85-15.42" />
</svg>