<svg id="Layer_1" data-name="Layer 1" xmlns="http://www.w3.org/2000/svg" viewBox="0 0 256 256">
    <defs>
        <style>
            .cls-1,.cls-2{fill:none;stroke:#fff;stroke-miterlimit:10;stroke-width:2px;}.cls-1{stroke-linecap:round;}
        </style>
    </defs>
    <path class="cls-1"
        d="M155.47,147.06l72.75,66.34S236,224.2,226.45,233c-9,8.35-19.11,0-19.11,0l-64.29-70.8" />
    <line class="cls-1" x1="38.22" y1="36.63" x2="79.31" y2="77.31" />
    <path class="cls-1" d="M31.1,43.61c1.25,1.9,41.11,41.21,41.11,41.21" />
    <path class="cls-1"
        d="M121.66,116.42l-8.37-8s-4.36-5.59-5.18-7.78c-.74-2-.84-6.23-1-8.33-.17-3,.19-9.11,0-12.14a39.26,39.26,0,0,0-1.64-8.33c-.82-2.27-4.64-8.46-4.64-8.46L55,25a4.55,4.55,0,0,0-5,.7c-3,2.27-.86,6.13-.86,6.13L83.67,66.25a4.82,4.82,0,0,1,1.81,3.52,4.71,4.71,0,0,1-1.67,3.58L67.57,89.73s-1,.94-3.55.68a3.85,3.85,0,0,1-2.87-1.5L26.48,54.24a4.29,4.29,0,0,0-5.14.48c-2.57,2.25-.73,6.07-.73,6.07l38.15,45.59s6.56,4.65,9.08,5.46c2.74.89,8.59,1.08,11.47,1s8.83-.85,11.74-.41a27.23,27.23,0,0,1,7.5,2.59,70,70,0,0,1,6.14,5l6.26,6.8" />
    <path class="cls-2"
        d="M155,103.45,46.52,215.65s-5.45,8.26,1.39,14.74c7.68,7.27,16.59,2.6,16.59,2.6l99.3-122.58a36.36,36.36,0,0,1,8.46-5.32c3.14-1.37,10.17-1.64,10.17-1.64s9-.13,11.87-.82a36.86,36.86,0,0,0,8.81-3.69,32.72,32.72,0,0,0,5.36-4.53C213.08,89,220.82,77,224.2,70.69a77.51,77.51,0,0,0,4.3-9.9,58,58,0,0,0,1.94-9.45c.08-2,.22-8.15,0-10.85a38.76,38.76,0,0,0-.89-5.15,12.2,12.2,0,0,0-3-4.85,13.69,13.69,0,0,0-6.05-2.16,67.56,67.56,0,0,0-8.16.49,75.58,75.58,0,0,0-9.83,2.25,69.57,69.57,0,0,0-8.7,3.38,61.43,61.43,0,0,0-7,4.3c-4.42,3.3-12.68,10.64-16.79,14.33-1.18,1.07-3.47,3.29-4.5,4.51a39.2,39.2,0,0,0-3.72,5.75,27.42,27.42,0,0,0-1.71,8c-.26,4.35.66,13.06.51,17.41a37.23,37.23,0,0,1-1,7,25.24,25.24,0,0,1-2.35,5.12C156.76,101.51,155,103.45,155,103.45Z" />
</svg>