<svg xmlns="http://www.w3.org/2000/svg" viewBox="0 0 200 200">
    <defs>
        <style>
            .cls-1,.cls-2{fill:none;stroke:#fff;stroke-width:2px;}.cls-1{stroke-miterlimit:10;}.cls-2{stroke-linecap:round;stroke-linejoin:round;}
        </style>
    </defs>
    <g id="Icons">
        <path class="cls-1"
            d="M70.17,135A5.82,5.82,0,0,0,76,129.13m-64,0A5.81,5.81,0,0,0,17.8,135" />
        <path class="cls-2"
            d="M12,129.13V75.06A15.76,15.76,0,0,1,27.74,59.3H60.23A15.76,15.76,0,0,1,76,75.06v54.07M26.53,76.76V178.59a5.82,5.82,0,1,0,11.64,0V126.22H49.8v52.37a5.82,5.82,0,1,0,11.64,0V76.76" />
        <path class="cls-1"
            d="M126,135v43.64a5.82,5.82,0,1,0,11.64,0V135h11.64v43.64a5.82,5.82,0,1,0,11.64,0V135M58.53,37.51A14.55,14.55,0,1,1,44,23,14.54,14.54,0,0,1,58.53,37.51Z" />
        <path class="cls-2"
            d="M128.92,73.85,126,97.13,111.46,135h64L160.93,97.13,158,73.85M184.2,132a5.81,5.81,0,0,0,5.82-5.82L175.47,75.06c-2.91-9.94-7.05-15.76-15.76-15.76H127.22c-8.7,0-12.85,5.82-15.76,15.76L96.92,126.22a5.81,5.81,0,0,0,5.82,5.82" />
        <path class="cls-1"
            d="M158,37.51A14.55,14.55,0,1,1,143.47,23,14.55,14.55,0,0,1,158,37.51Z" />
    </g>
</svg>