<svg xmlns="http://www.w3.org/2000/svg" viewBox="0 0 200 200"><defs><style>.cls-1{fill:#00b6b6;}.cls-2{fill:#fff;}</style></defs><g id="Layer_2" data-name="Layer 2"><g id="Layer_1-2" data-name="Layer 1"><circle class="cls-1" cx="100" cy="100" r="100"/><path class="cls-2" d="M159.67,159l-32.52-115c-.45-1.59-1.79-2.89-3-2.89s-1.87,1.32-1.49,2.92L149.8,159"/><path class="cls-2" d="M40.33,159l32.52-115c.45-1.59,1.79-2.89,3-2.89s1.87,1.32,1.49,2.92L50.2,159"/><path class="cls-2" d="M103.05,46.82a2.9,2.9,0,0,1-2.91,3h-.28a2.9,2.9,0,0,1-2.91-3L97,44.05a3,3,0,1,1,5.92,0Z"/><path class="cls-2" d="M103.66,66.74a2.9,2.9,0,0,1-2.91,3h-1.5a2.9,2.9,0,0,1-2.91-3l.29-9.39a3.12,3.12,0,0,1,3.09-3h.56a3.12,3.12,0,0,1,3.09,3Z"/><path class="cls-2" d="M104.38,90.09a2.9,2.9,0,0,1-2.91,3H98.53a2.9,2.9,0,0,1-2.91-3L96,78.52a3.12,3.12,0,0,1,3.09-3h1.86a3.12,3.12,0,0,1,3.09,3Z"/><path class="cls-2" d="M105.29,119.68a2.9,2.9,0,0,1-2.91,3H97.62a2.9,2.9,0,0,1-2.91-3l.48-15.43a3.12,3.12,0,0,1,3.09-3h3.44a3.12,3.12,0,0,1,3.09,3Z"/><path class="cls-2" d="M106.4,156a2.89,2.89,0,0,1-2.9,3h-7a2.89,2.89,0,0,1-2.9-3L94.21,136a3.12,3.12,0,0,1,3.09-3h5.4a3.12,3.12,0,0,1,3.09,3Z"/></g></g></svg>