<svg id="Layer_1" data-name="Layer 1" xmlns="http://www.w3.org/2000/svg" viewBox="0 0 256 256">
    <defs>
        <style>
            .cls-1{fill:none;stroke:#fff;stroke-linecap:round;stroke-linejoin:round;stroke-width:2px;}
        </style>
    </defs>
    <path class="cls-1"
        d="M181.16,240.17V55.26a10.81,10.81,0,0,0-10.81-10.8H85.65a10.81,10.81,0,0,0-10.81,10.8V240.17H47.38V26.64A10.81,10.81,0,0,1,58.19,15.83H197.81a10.81,10.81,0,0,1,10.81,10.81V240.17Z" />
    <path class="cls-1"
        d="M152.49,128.3V229c0,4.75-3.56,8.59-8,8.59h0c-4.4,0-8-3.84-8-8.59V182c0-5.1-3.83-9.23-8.55-9.23h0c-4.72,0-8.55,4.13-8.55,9.23v47c0,4.75-3.57,8.59-8,8.59h0c-4.41,0-8-3.84-8-8.59V128.3c0-6.55,4.92-11.86,11-11.86h4.38L128,138l9.12-21.55h4.38C147.57,116.44,152.49,121.75,152.49,128.3Z" />
    <circle class="cls-1" cx="128" cy="87.3" r="16.05" />
</svg>