<?xml version="1.0" encoding="UTF-8"?>
<!DOCTYPE svg PUBLIC "-//W3C//DTD SVG 1.1//EN" "http://www.w3.org/Graphics/SVG/1.1/DTD/svg11.dtd">
<!-- Creator: CorelDRAW X7 -->
<svg xmlns="http://www.w3.org/2000/svg" xml:space="preserve" width="17mm" height="17mm" version="1.1" style="shape-rendering:geometricPrecision; text-rendering:geometricPrecision; image-rendering:optimizeQuality; fill-rule:evenodd; clip-rule:evenodd"
viewBox="0 0 28 28"
 xmlns:xlink="http://www.w3.org/1999/xlink">
 <defs>
  <style type="text/css">
   <![CDATA[
    .str0sh {stroke:#FEFEFE;stroke-width:0.833964}
    .fil1sh {fill:none}
    .fil2sh {fill:#FEFEFE}
    .fil0sh {fill:#0CB6B5}
   ]]>
  </style>
 </defs>
 <g id="LOGOS">
  <metadata id="CorelCorpID_0Corel-Layer"/>
  <circle class="fil0sh" cx="14" cy="14" r="14"/>
  <polygon class="fil1sh str0sh" points="7,10 21,10 22,22 7,22 "/>
  <polyline class="fil1sh str0sh" points="7,10 8,9 9,9 "/>
  <path class="fil1sh str0sh" d="M9 10c0,0 0,-4 0,-4l5 -1 0 3 -3 1c0,0 0,1 0,1"/>
  <polyline class="fil1sh str0sh" points="14,8 16,8 16,10 "/>
  <polyline class="fil1sh str0sh" points="15,8 15,6 19,7 19,10 "/>
  <polyline class="fil1sh str0sh" points="19,9 20,9 21,10 "/>
  <path class="fil1sh str0sh" d="M12 6c0,-1 3,-3 4,1"/>
  <circle class="fil2sh str0sh" cx="12" cy="12" r="1"/>
  <circle class="fil2sh str0sh" cx="17" cy="12" r="1"/>
  <path class="fil1sh str0sh" d="M12 12c0,1 0,2 0,2 1,3 4,3 5,0l0 -2"/>
 </g>
</svg>
