<svg id="Layer_1" data-name="Layer 1" xmlns="http://www.w3.org/2000/svg" viewBox="0 0 256 256">
    <defs>
        <style>
            .cls-1,.cls-2,.cls-3{fill:none;stroke:#fff;stroke-miterlimit:10;}.cls-2,.cls-3{stroke-width:2px;}.cls-3{stroke-linecap:round;}
        </style>
    </defs>
    <rect class="cls-1" x="34.03" y="212.63" width="0.5" height="0.5" />
    <rect class="cls-2" x="34.53" y="196.04" width="188.39" height="16.58" rx="1" />
    <path class="cls-2"
        d="M48.86,212.63l.19,17.15s2.35,10.2,11.37,9.64c9.64-.61,10.45-10.51,10.45-10.51V212.63" />
    <path class="cls-2"
        d="M186.24,212.63l.19,17.15s2.36,10.2,11.37,9.64c9.64-.61,10.45-10.51,10.45-10.51V212.63" />
    <line class="cls-3" x1="122.31" y1="150.96" x2="122.31" y2="182.93" />
    <line class="cls-3" x1="108.24" y1="150.87" x2="108.24" y2="182.84" />
    <line class="cls-3" x1="136.37" y1="150.96" x2="136.37" y2="182.93" />
    <line class="cls-3" x1="150.44" y1="150.96" x2="150.44" y2="182.93" />
    <circle class="cls-3" cx="69.66" cy="166.94" r="11.74" />
    <circle class="cls-3" cx="187.61" cy="166.86" r="11.74" />
    <path class="cls-3"
        d="M75.54,55.82h106.9s2.43.41,3.39,1.59a8,8,0,0,1,1.78,3.24l5,36.44.51,5.47v10.71a5.6,5.6,0,0,1-1,3.49c-.81.93-3,1.18-3,1.18H68.76a5.54,5.54,0,0,1-3.24-.93,5.8,5.8,0,0,1-1.74-3.14V101.66L65,94l5.43-35.3a4.9,4.9,0,0,1,1.81-2.2A8,8,0,0,1,75.54,55.82Z" />
    <line class="cls-2" x1="42.22" y1="135.73" x2="214.2" y2="135.73" />
    <path class="cls-2"
        d="M217.27,196V155.12L201.79,43.06a12.9,12.9,0,0,0-4-6.53,13.46,13.46,0,0,0-7.84-3.42l-123,.2a11.29,11.29,0,0,0-8.09,3.42,13.85,13.85,0,0,0-3.82,7L40.26,153.63V196" />
    <path class="cls-2"
        d="M208.81,93.89H227a9.13,9.13,0,0,1,4.52,2.23c2.34,2.6,2,4.79,2,4.79V125s-.36,3.1-2.41,4.6a8.13,8.13,0,0,1-4.37,1.58H214" />
    <path class="cls-2"
        d="M48.29,93.91H31.1s-3.29.54-4.48,2.25a12.58,12.58,0,0,0-2.14,4.76v24.13a8.2,8.2,0,0,0,2,4.2,9.08,9.08,0,0,0,4.28,2H43.28" />
    <path class="cls-2"
        d="M91.83,33.27V20.85s.2-1.61,2.45-3.62a7.27,7.27,0,0,1,4-1.4l58.62.12a6.11,6.11,0,0,1,4.18,1.91,6.09,6.09,0,0,1,1.32,2.88V33.15" />
</svg>