<svg id="Layer_1" data-name="Layer 1" xmlns="http://www.w3.org/2000/svg" viewBox="0 0 256 256">
    <defs>
        <style>.cls-1{fill:none;stroke:#fff;stroke-miterlimit:10;stroke-width:2px;}</style>
    </defs>
    <path class="cls-1"
        d="M100.68,52.14s1.35,11.78,2.16,20.13c.67,6.89,5.75,6.15,5.75,6.15l45.64-.8c4.37.53,10.7,3,11.5,10.16,1,8.82-8.56,10.78-8.56,10.78s-33.41.8-49.09.89c-1.45,0-1.81,2.18-1.73,2.84.44,3.89,1.7,12.1,2.17,15.76.27,2.07,3.66,1.78,3.66,1.78s46.06-.33,54.54.11c8.63.45,10.15,7.67,10.15,7.67l25.75,76.44,19-8.48c16.51,3.21,8.63,17.05,7.82,17.77,0,0-14.8,8.36-27.8,14.17-11.09,5-15.37-6.08-15.37-6.08s-27-79.92-27-80.15-46.6-.88-57.82-.88-12.21-9.74-12.21-9.74L80.19,53.83" />
    <path class="cls-1" d="M181.15,206.24A83.24,83.24,0,1,1,83.47,81.54" />
    <path class="cls-1" d="M87.2,103.35a62.22,62.22,0,1,0,84.74,75.5" />
    <path class="cls-1"
        d="M81.53,55.19c-7.25-3.13-12.92-10.34-12.92-18.74a20.41,20.41,0,0,1,40.81,0c0,5.86-5,14.08-9.45,17.29" />
</svg>