<svg xmlns="http://www.w3.org/2000/svg" viewBox="0 0 200 200"><defs><style>.cls-1{fill:#00b6b6;}.cls-2{fill:#fff;}</style></defs><g id="Layer_2" data-name="Layer 2"><g id="Layer_1-2" data-name="Layer 1"><circle class="cls-1" cx="100" cy="100" r="100"/><path class="cls-2" d="M67.67,154.39h64.66a2.3,2.3,0,0,0,2.31-2.3V61.17a15.57,15.57,0,0,0-15.56-15.56H80.92A15.57,15.57,0,0,0,65.36,61.17v90.92A2.3,2.3,0,0,0,67.67,154.39ZM130,149.78H70v-47.6H130ZM70,61.17a11,11,0,0,1,11-11h38.16a11,11,0,0,1,11,11v36.4H70Z"/><path class="cls-2" d="M117.61,54.82H82.39a7.85,7.85,0,0,0-7.83,7.83V86.27A6.74,6.74,0,0,0,81.28,93h37.44a6.74,6.74,0,0,0,6.72-6.72V62.65A7.85,7.85,0,0,0,117.61,54.82Zm3.22,31.45a2.11,2.11,0,0,1-2.11,2.1H81.28a2.11,2.11,0,0,1-2.11-2.1V62.65a3.22,3.22,0,0,1,3.22-3.22h35.22a3.22,3.22,0,0,1,3.22,3.22h0Z"/><rect class="cls-2" x="76.33" y="108.81" width="20.97" height="4.61"/><rect class="cls-2" x="103.77" y="108.63" width="5.57" height="5.57"/><rect class="cls-2" x="111.84" y="108.63" width="5.57" height="5.57"/><rect class="cls-2" x="119.91" y="108.63" width="5.57" height="5.57"/><rect class="cls-2" x="103.77" y="116.7" width="5.57" height="5.57"/><rect class="cls-2" x="111.84" y="116.7" width="5.57" height="5.57"/><rect class="cls-2" x="119.91" y="116.7" width="5.57" height="5.57"/><rect class="cls-2" x="103.77" y="124.77" width="5.57" height="5.57"/><rect class="cls-2" x="111.84" y="124.77" width="5.57" height="5.57"/><rect class="cls-2" x="119.91" y="124.77" width="5.57" height="5.57"/></g></g></svg>