<svg xmlns="http://www.w3.org/2000/svg" viewBox="0 0 200 200"><defs><style>.cls-1{fill:#00b6b6;}.cls-2{fill:#fff;stroke:#00b6b6;stroke-miterlimit:10;stroke-width:0.59px;}</style></defs><g id="Layer_2" data-name="Layer 2"><g id="Layer_1-2" data-name="Layer 1"><circle class="cls-1" cx="100" cy="100" r="100"/><path class="cls-2" d="M162.33,104.62h-6.92V95.38h6.92a2.3,2.3,0,0,0,2.31-2.31V74.6a2.3,2.3,0,0,0-2.31-2.3h-6.92V67.68h6.92a2.31,2.31,0,0,0,2.31-2.31V46.9a2.3,2.3,0,0,0-2.31-2.31H37.66a2.31,2.31,0,0,0-2.31,2.31V65.37a2.32,2.32,0,0,0,2.31,2.31h6.93V72.3H37.66a2.31,2.31,0,0,0-2.31,2.3V93.07a2.31,2.31,0,0,0,2.31,2.31h6.93v9.24H37.66a6.91,6.91,0,0,0-2.31,13.43V153.1a2.31,2.31,0,0,0,2.31,2.31H51.52a2.3,2.3,0,0,0,2.3-2.31V118.47h92.35V153.1a2.31,2.31,0,0,0,2.31,2.31h13.85a2.3,2.3,0,0,0,2.31-2.31v-35a6.91,6.91,0,0,0-2.31-13.43Zm-11.54,0h-4.62V95.38h4.62Zm-92.35,0V95.38h83.12v9.24ZM150.79,72.3h-4.62V67.68h4.62Zm-92.35,0V67.68h83.12V72.3ZM40,49.21H160V63.06H40Zm9.24,18.47h4.61V72.3H49.21ZM40,76.91H160V90.77H40Zm9.24,18.47h4.61v9.24H49.21Zm0,55.41H40V118.47h9.24Zm110.82,0h-9.24V118.47H160Zm2.3-36.94H37.66a2.31,2.31,0,1,1,0-4.62H162.33a2.31,2.31,0,0,1,0,4.62Z"/></g></g></svg>