<svg xmlns="http://www.w3.org/2000/svg" viewBox="0 0 200 200"><defs><style>.cls-1{fill:#00b6b6;}.cls-2{fill:#fff;stroke:#00b6b6;stroke-miterlimit:10;stroke-width:1.17px;}</style></defs><g id="Layer_2" data-name="Layer 2"><g id="Layer_1-2" data-name="Layer 1"><circle class="cls-1" cx="100" cy="100" r="100"/><path class="cls-2" d="M166.75,100a2.46,2.46,0,0,0,2.47-2.47V90.11a2.47,2.47,0,0,0-2.47-2.47H151.92A5,5,0,0,0,147,82.7H142a5,5,0,0,0-4.95,4.94H120.67l-1.39-4.94h5.44a5,5,0,0,0,4.95-5V50.56a5,5,0,0,0-4.95-5H75.28a5,5,0,0,0-5,5V77.75a5,5,0,0,0,5,5h4.65l-1.24,4.94H60.44A7.41,7.41,0,0,0,53,80.23H50.56V56.15a7.8,7.8,0,0,1,.66-4,3,3,0,0,1,1-1.16,3.61,3.61,0,0,1,2-.47,3.68,3.68,0,0,1,2.8.94,3.45,3.45,0,0,1,.84,2,7.41,7.41,0,1,0,4.94,0,8.43,8.43,0,0,0-2.22-5.41,9.33,9.33,0,0,0-10.95-1.26,7.81,7.81,0,0,0-2.8,3,12.55,12.55,0,0,0-1.26,6.52V80.23H43.14a7.42,7.42,0,0,0-7.42,7.41H33.25a2.47,2.47,0,0,0-2.47,2.47v7.42A2.46,2.46,0,0,0,33.25,100h7.42v49.45H33.25a2.47,2.47,0,1,0,0,4.94h133.5a2.47,2.47,0,1,0,0-4.94h-7.42V100ZM60.44,58A2.47,2.47,0,1,1,58,60.45,2.47,2.47,0,0,1,60.44,58ZM164.28,92.59v2.47H122.72L122,92.59Zm-89-14.84V50.56h49.44V77.75h-6.8l-2.47-8.63a4.77,4.77,0,0,0-3.09-3.33,38.31,38.31,0,0,0-25.83,0,4.93,4.93,0,0,0-3.24,3.46l-2.13,8.5Zm12.78-7.24a38.93,38.93,0,0,1,11.37-2,36.87,36.87,0,0,1,11.35,2l10.51,37.8a54.35,54.35,0,0,1-19.24,4H99.58a66.6,66.6,0,0,1-20.92-4.27Zm3.81,53.3-7.87,13,4.16-17ZM96.34,126h8.28L118,149.45H82.13Zm12.71-2.22,2.87-3.51,3.68,15Zm-1.11-6.43-3,3.68H96l-3.44-3.68h15.36ZM43.14,85.17H53a2.48,2.48,0,0,1,2.47,2.47H40.67A2.47,2.47,0,0,1,43.14,85.17Zm-7.42,9.89V92.59H77.45l-.64,2.47a2,2,0,0,0-.35,0ZM48.08,100v49.45H45.61V100Zm5,0H75.6l-1.73,7a4.79,4.79,0,0,0,3,5.71c2.47.92,4.94,1.68,7.41,2.35L75.8,149.45H53Zm71.17,49.45-8.38-34.14a68.69,68.69,0,0,0,7.42-2.48,4.73,4.73,0,0,0,2.74-5.71L124.1,100H147v49.45Zm30.19,0h-2.47V100h2.47Z"/></g></g></svg>