<?xml version="1.0" encoding="utf-8"?>
<!-- Generator: Adobe Illustrator 24.1.2, SVG Export Plug-In . SVG Version: 6.00 Build 0)  -->
<svg version="1.1" id="Layer_1" xmlns="http://www.w3.org/2000/svg" xmlns:xlink="http://www.w3.org/1999/xlink" x="0px" y="0px"
	 viewBox="0 0 200 200" style="enable-background:new 0 0 200 200;" xml:space="preserve">
<style type="text/css">
	.st0{fill:#00B6B6;}
	.st1{fill:#FFFFFF;stroke:#00B6B6;stroke-width:0.75;stroke-miterlimit:10;}
</style>
<circle class="st0" cx="100" cy="100" r="100"/>
<path class="st1" d="M56.1,83.2c-5.5,8.1-8.4,17.5-8.4,27.2c0,26.7,21.7,48.5,48.5,48.5c10.1,0,19.7-3.1,27.9-8.8
	c3.4-2.4,6.5-5.2,9.1-8.4l1.2,3.6c0.8,2.3,2.5,4.2,4.8,5.2c1,0.4,2.1,0.7,3.3,0.7c1.3,0,2.6-0.3,3.8-0.9l13.9-6.9
	c4.2-2.1,5.9-7.2,3.9-11.4l0,0c-2.1-4.2-7.2-6-11.4-3.9l-5.2,2.6L134.1,91c-1.2-3.5-4.4-5.8-8.1-5.8l-29.5,0l-0.7-5.8h23.5
	c4.7,0,8.5-3.6,8.7-8.1c0.1-2.4-0.7-4.6-2.3-6.3c-1.6-1.7-3.9-2.6-6.2-2.6H93.9l-1.3-10.9c2.6-2.7,3.9-6.2,3.6-10
	c-0.4-6.6-5.7-11.9-12.3-12.3c-3.7-0.2-7.2,1-9.9,3.5c-2.6,2.5-4.2,6-4.2,9.6c0,4.3,2.2,8.4,5.7,10.8l1.5,12.8
	C68.6,69.5,61.4,75.5,56.1,83.2L56.1,83.2z M80.5,94.7c0.5,4.3,4.1,7.6,8.5,7.6l31,0l6.2,18.2c0,0.1-0.1,0.2-0.1,0.2
	c-0.1,0.2-0.2,0.5-0.3,0.7c-4.6,12.2-16.4,20.4-29.4,20.4c-17.3,0-31.4-14.1-31.4-31.4c0-10.6,5.6-20.7,14.4-26.4L80.5,94.7z
	 M78.1,36.8c1.4-1.3,3.2-2,5.1-2c0.2,0,0.3,0,0.5,0c3.7,0.2,6.7,3.3,7,7c0.1,2.3-0.8,4.5-2.5,6c-0.9,0.8-1.4,2.1-1.3,3.4l1.5,13.3
	c0.2,2,1.9,3.5,4,3.5h27.2c0.8,0,1.5,0.3,2.1,0.9c0.5,0.6,0.8,1.3,0.8,2.1c-0.1,1.5-1.4,2.7-3,2.7H94c-1.1,0-2.2,0.5-3,1.3
	c-0.8,0.8-1.1,2-1,3.1l1.1,9.2c0.2,2,1.9,3.5,4,3.5l31,0c1.2,0,2.3,0.8,2.7,1.9l15.5,45.7l11-5.5c1.4-0.7,3.1-0.1,3.8,1.3
	c0.7,1.4,0.1,3.1-1.3,3.8l-13.9,6.9c-0.7,0.4-1.6,0.4-2.4,0.1c-0.8-0.3-1.3-0.9-1.6-1.7L124,96.6l-35,0c-1.4,0-2.7-1.1-2.8-2.5
	l-4.9-42.4c-0.1-1.2-0.8-2.3-1.9-2.9c-2.3-1.4-3.7-3.8-3.7-6.4C75.7,40.2,76.5,38.2,78.1,36.8L78.1,36.8z M77.8,71.8l0.7,6
	C66.7,84.3,59.1,97,59.1,110.4c0,20.4,16.6,37.1,37.1,37.1c13.6,0,26.1-7.6,32.5-19.3l2.4,7c-2.8,3.9-6.2,7.4-10.2,10.2
	c-7.2,5.1-15.8,7.8-24.6,7.8c-23.6,0-42.8-19.2-42.8-42.8C53.4,94,63.1,78.8,77.8,71.8L77.8,71.8z"/>
</svg>
