<svg xmlns="http://www.w3.org/2000/svg" viewBox="0 0 200 200"><defs><style>.cls-1{fill:#00b6b6;}.cls-2{fill:#fff;stroke:#fff;stroke-miterlimit:10;stroke-width:0.29px;}</style></defs><g id="Layer_2" data-name="Layer 2"><g id="Layer_1-2" data-name="Layer 1"><circle class="cls-1" cx="100" cy="100" r="100"/><path class="cls-2" d="M153.85,44.31H105.59a1.85,1.85,0,0,0-1.86,1.85V74a1.86,1.86,0,1,0,3.71,0V48H152V152H46.18a1.86,1.86,0,0,0,0,3.71H153.85a1.85,1.85,0,0,0,1.86-1.85V46.16A1.85,1.85,0,0,0,153.85,44.31Z"/><path class="cls-2" d="M107.44,142.53l-7.7-15.59a6.65,6.65,0,0,0-2.45-2.7l-11.42-6.92,1.23-5.57a6.45,6.45,0,0,0,8.2,2.1l12.33-6.24a6.57,6.57,0,0,0,2.88-8.76h0a6.48,6.48,0,0,0-8.64-2.92l-7.05,3.59-2.41-4A12.73,12.73,0,1,0,77,86.07a13,13,0,0,0,.52,1.64L62.33,94.13a6.51,6.51,0,0,0-3.95,4.51l-3.08,12.5A6.53,6.53,0,0,0,60,119.05a6.35,6.35,0,0,0,4.89-.71,6.52,6.52,0,0,0,3-4L70.13,105l4.42-1.85-2.38,13.38-9.39,10.53-7.71-6.8a6.41,6.41,0,0,0-9.06.52l-.09.09a6.58,6.58,0,0,0,.61,9.28h0l12.31,10.91a6.58,6.58,0,0,0,8.86-.29l11.9-12,9.28,5.73,6.85,13.89a6.54,6.54,0,1,0,11.71-5.83ZM102.86,148a2.77,2.77,0,0,1-3.71-1.25h0L92,132.34a2,2,0,0,0-.69-.76L80.21,124.8a1.86,1.86,0,0,0-2.28.28l-12.85,13a2.79,2.79,0,0,1-3.71.13L49,127.31a2.88,2.88,0,0,1-.26-4,2.71,2.71,0,0,1,3.82-.31l.06.05,9.07,8a1.87,1.87,0,0,0,2.6-.15l11-12.37a1.71,1.71,0,0,0,.45-.91L78.8,100.5a1.87,1.87,0,0,0-2.53-2.12l-8.41,3.49a1.88,1.88,0,0,0-1.09,1.27l-2.49,10.11A2.79,2.79,0,0,1,63,115a2.65,2.65,0,0,1-2,.3,2.82,2.82,0,0,1-2-3.42L62,99.41a2.87,2.87,0,0,1,1.74-2L78.6,91.2l2.26,1a1.85,1.85,0,0,0,2.08-3,8.84,8.84,0,1,1,6.35,2.93,1.86,1.86,0,0,0-1.62,2.78l4.63,7.8a1.84,1.84,0,0,0,1.74.91h.52a1.7,1.7,0,0,0,.69-.19l8.18-4.14a2.76,2.76,0,0,1,2.16-.2,2.78,2.78,0,0,1,.37,5.12l-12.31,6.24a2.78,2.78,0,0,1-3.71-1.26l-1.86-3.71a1.83,1.83,0,0,0-1.86-1,1.85,1.85,0,0,0-1.59,1.44L82,117.82a1.87,1.87,0,0,0,.83,2l12.55,7.61a2.93,2.93,0,0,1,1.06,1.15l7.69,15.59a2.86,2.86,0,0,1-1.34,3.81Z"/><path class="cls-2" d="M114.87,101.86a1.85,1.85,0,0,0,1.86,1.85h19.66L132.12,108a1.85,1.85,0,0,0,0,2.63h0a1.85,1.85,0,0,0,2.62,0h0l7.43-7.43a1.85,1.85,0,0,0,0-2.62h0l-7.43-7.43a1.86,1.86,0,0,0-2.63,2.64h0l4.27,4.25H116.73A1.86,1.86,0,0,0,114.87,101.86Z"/><path class="cls-2" d="M103.73,114.85v13a1.86,1.86,0,0,0,3.71,0v-13a1.86,1.86,0,1,0-3.71,0Z"/><path class="cls-2" d="M105.59,92.57a1.85,1.85,0,0,0,1.85-1.85V88.86a1.86,1.86,0,0,0-3.71,0v1.86A1.85,1.85,0,0,0,105.59,92.57Z"/></g></g></svg>