<?xml version="1.0" encoding="UTF-8"?>
<!DOCTYPE svg PUBLIC "-//W3C//DTD SVG 1.0//EN" "http://www.w3.org/TR/2001/REC-SVG-20010904/DTD/svg10.dtd">
<!-- Creator: CorelDRAW X7 -->
<svg xmlns="http://www.w3.org/2000/svg" xml:space="preserve" width="8mm" height="8mm" version="1.0" style="shape-rendering:geometricPrecision; text-rendering:geometricPrecision; image-rendering:optimizeQuality; fill-rule:evenodd; clip-rule:evenodd"
viewBox="0 0 67 67"
 xmlns:xlink="http://www.w3.org/1999/xlink">
 <defs>
  <style type="text/css">
   <![CDATA[
    .fil0 {fill:#0CB6B5}
    .fil1 {fill:white;fill-rule:nonzero}
   ]]>
  </style>
 </defs>
 <g id="Layer_x0020_1">
  <metadata id="CorelCorpID_0Corel-Layer"/>
  <path id="PEEB1F6007" class="fil0" d="M33 67c19,0 34,-15 34,-34 0,-18 -15,-33 -34,-33 -18,0 -33,15 -33,33 0,19 15,34 33,34z"/>
  <path class="fil1" d="M33 16l0 0c-9,0 -17,8 -17,17 0,10 8,18 17,18 10,0 18,-8 18,-18 0,-9 -8,-17 -18,-17zm0 37c-11,0 -20,-9 -20,-20 0,-11 9,-20 20,-20 11,0 20,9 20,20 0,11 -9,20 -20,20zm-3 -32l0 0 0 2 10 0 0 21 -10 0 0 2 12 0 0 -25 -12 0zm-4 2l0 0 -1 1 8 8 -15 0 0 2 15 0 -8 8 1 1 11 -10 -11 -10z"/>
 </g>
</svg>
