<?xml version="1.0" encoding="UTF-8"?>
<!DOCTYPE svg PUBLIC "-//W3C//DTD SVG 1.0//EN" "http://www.w3.org/TR/2001/REC-SVG-20010904/DTD/svg10.dtd">
<!-- Creator: CorelDRAW X7 -->
<svg xmlns="http://www.w3.org/2000/svg" xml:space="preserve" width="8mm" height="8mm" version="1.0" style="shape-rendering:geometricPrecision; text-rendering:geometricPrecision; image-rendering:optimizeQuality; fill-rule:evenodd; clip-rule:evenodd"
viewBox="0 0 56 56"
 xmlns:xlink="http://www.w3.org/1999/xlink">
 <defs>
  <style type="text/css">
   <![CDATA[
    .fil1 {fill:#FEFEFE}
    .fil0 {fill:#0CB6B5}
   ]]>
  </style>
 </defs>
 <g id="Layer_x0020_1">
  <metadata id="CorelCorpID_0Corel-Layer"/>
  <path id="PNNB1F6003" class="fil0" d="M56 28c0,-16 -13,-28 -28,-28 -16,0 -28,12 -28,28 0,15 12,28 28,28 15,0 28,-13 28,-28z"/>
  <path class="fil1" d="M28 27l-2 0 0 -5 2 0c2,0 3,1 3,3 0,1 -1,2 -3,2l0 0zm1 -8l-5 0c-1,0 -2,1 -2,2l0 14c0,1 1,2 2,2 1,0 2,-1 2,-2l0 -4 3 0c3,0 6,-3 6,-6 0,-4 -3,-6 -6,-6zm8 22l-19 0c-2,0 -4,-1 -4,-4l0 -19c0,-2 2,-4 4,-4l19 0c3,0 4,2 4,4l0 19c0,3 -1,4 -4,4l0 0zm2 2l-22 0c-3,0 -5,-2 -5,-4l0 -22c0,-3 2,-5 5,-5l22 0c2,0 4,2 4,5l0 22c0,2 -2,4 -4,4l0 0z"/>
 </g>
</svg>
