<?xml version="1.0" encoding="UTF-8"?>
<!DOCTYPE svg PUBLIC "-//W3C//DTD SVG 1.0//EN" "http://www.w3.org/TR/2001/REC-SVG-20010904/DTD/svg10.dtd">
<!-- Creator: CorelDRAW X7 -->
<svg xmlns="http://www.w3.org/2000/svg" xml:space="preserve" width="12mm" height="12mm" version="1.0" style="shape-rendering:geometricPrecision; text-rendering:geometricPrecision; image-rendering:optimizeQuality; fill-rule:evenodd; clip-rule:evenodd"
viewBox="0 0 50 50"
 xmlns:xlink="http://www.w3.org/1999/xlink">
 <defs>
  <style type="text/css">
   <![CDATA[
    .str0 {stroke:white;stroke-width:0.831516}
    .fil0 {fill:#0CB6B5}
    .fil1 {fill:white;fill-rule:nonzero}
   ]]>
  </style>
 </defs>
 <g id="Icons">
  <metadata id="CorelCorpID_0Corel-Layer"/>
  <path id="PWRB1F1007" class="fil0" d="M25 50c14,0 25,-11 25,-25 0,-14 -11,-25 -25,-25 -14,0 -25,11 -25,25 0,14 11,25 25,25z"/>
  <path class="fil1 str0" d="M17 18c2,1 5,3 6,3 0,0 0,0 0,0 0,0 0,0 0,0 0,0 0,0 0,0 0,0 0,-1 0,-1 0,-2 1,-3 2,-4 0,0 2,3 2,3 0,1 -1,1 -2,2 0,0 0,0 0,0 0,0 0,0 0,0l7 1c0,0 0,0 0,0 0,0 0,0 0,0l3 -6c0,0 0,0 0,0 0,0 -1,0 -1,0l-1 1c0,-1 -2,-3 -3,-4 0,0 0,0 0,0 0,0 0,0 0,0l-4 0 -5 0c0,0 0,0 0,0 -2,1 -4,4 -4,5 0,0 0,0 0,0zm16 -1l0 0c0,0 0,0 0,0l1 0 -2 4 -6 0c2,-1 2,-1 2,-1 0,0 0,0 0,0 0,-1 -2,-4 -3,-4 2,-2 4,-2 5,-2 1,0 3,3 3,3zm-12 -3l0 0 5 0 2 0c-1,0 -2,0 -3,1 -1,0 -1,0 -1,1 0,0 0,0 0,0 -1,1 -2,2 -2,4 0,0 0,0 0,0 -1,0 -1,-1 -2,-1 -1,-1 -2,-1 -3,-1 1,-1 2,-4 4,-4zm15 8c0,0 0,0 0,0 -2,1 -5,3 -5,3 -1,0 -1,0 -1,0 0,0 0,0 0,0 0,0 1,0 1,0 1,1 2,3 2,4 0,1 -3,1 -4,0 0,0 0,-1 0,-2 0,0 0,0 0,0 0,0 -1,0 -1,0l-3 5c0,0 0,0 0,0l3 5c0,0 0,1 0,1 0,0 0,-1 0,-1 0,0 0,0 0,0l0 -1c1,0 4,0 5,-1 0,0 0,0 0,0 0,0 0,0 0,0 0,0 0,0 0,0 0,0 0,0 0,0 0,0 0,0 0,0l2 -3c0,0 0,0 0,0 1,-2 3,-4 3,-4 0,-1 0,-1 0,-1 0,-2 -2,-5 -2,-5zm-8 13l0 0c0,0 0,0 0,1l0 0 -3 -4 3 -4c0,2 0,2 1,2 0,0 0,0 0,0 0,0 3,0 4,0 1,2 0,4 0,5 -2,0 -5,0 -5,0zm10 -8l0 0c-1,1 -3,4 -4,6 0,-1 0,-2 0,-3 0,0 0,-1 0,-1 0,0 0,0 0,0 0,-1 -1,-3 -3,-4 0,0 0,0 1,0 0,-1 1,-1 2,-1 1,-1 2,-1 2,-2 0,1 2,4 2,5zm-15 2c0,0 0,0 0,1 -2,0 -4,0 -5,0 0,-1 1,-3 2,-4 0,0 1,1 2,1 0,0 0,0 0,0 0,0 0,0 0,0l-2 -6c0,0 0,0 0,0l-6 -1c0,0 0,1 0,1 0,0 0,0 0,0l1 1c0,0 -2,3 -2,4 0,0 0,0 0,0 0,0 0,0 0,0 0,0 0,0 0,0l0 1c1,1 4,7 4,7 0,1 0,1 0,1 1,1 5,1 5,1 0,0 0,0 0,0 1,0 1,0 1,0 0,-2 0,-6 0,-6 0,0 0,0 0,0 0,0 0,-1 0,-1zm-7 -7l0 0 -1 -1 5 0 2 5c-2,-1 -2,-1 -2,-1 0,0 0,0 0,0 -1,1 -3,3 -3,4 -2,-1 -3,-2 -3,-3 0,-2 2,-4 2,-4 0,0 0,0 0,0zm6 9l0 0c0,0 0,1 0,2 0,1 0,2 0,3 -1,0 -4,-1 -5,-2 0,0 -1,-3 -2,-5 0,0 0,0 0,0l-1 -1c1,1 2,1 3,2 0,0 0,0 0,0 0,0 0,0 0,0 2,1 4,1 6,0 -1,0 -1,0 -1,1z"/>
 </g>
</svg>
