<?xml version="1.0" encoding="UTF-8"?>
<!DOCTYPE svg PUBLIC "-//W3C//DTD SVG 1.1//EN" "http://www.w3.org/Graphics/SVG/1.1/DTD/svg11.dtd">
<!-- Creator: CorelDRAW X7 -->
<svg xmlns="http://www.w3.org/2000/svg" xml:space="preserve" width="17mm" height="17mm" version="1.1" style="shape-rendering:geometricPrecision; text-rendering:geometricPrecision; image-rendering:optimizeQuality; fill-rule:evenodd; clip-rule:evenodd"
viewBox="0 0 31 31"
 xmlns:xlink="http://www.w3.org/1999/xlink">
 <defs>
  <style type="text/css">
   <![CDATA[
    .str0r {stroke:#FEFEFE;stroke-width:0.54433}
    .fil1r {fill:none}
    .fil0r {fill:#0CB6B5}
   ]]>
  </style>
 </defs>
 <g id="SITE">
  <metadata id="CorelCorpID_0Corel-Layer"/>
  <circle class="fil0r" cx="15" cy="15" r="15"/>
 </g>
 <g id="LOGOS">
  <metadata id="CorelCorpID_1Corel-Layer"/>
  <g id="_1372961338448">
   <path class="fil1r str0r" d="M18 17l7 6c1,1 -1,3 -2,2l-6 -7"/>
   <path class="fil1r str0r" d="M19 14l-9 10c-1,2 -3,0 -2,-1l9 -9c1,-1 1,-1 1,-1 0,-1 0,-2 0,-3 0,0 1,-1 1,-1 1,-1 1,-2 2,-2 1,-1 2,-1 3,-1 0,0 1,0 1,1 0,1 0,2 0,2 -1,1 -1,2 -2,3 0,1 -1,1 -2,1 0,0 -1,0 -2,1l0 0z"/>
   <path class="fil1r str0r" d="M7 9c1,1 2,2 3,3 0,0 0,0 0,0l2 -2c0,0 0,0 0,-1l-3 -2c-1,-1 0,-1 0,-1 2,1 3,2 4,3 1,1 1,1 1,2l0 1c0,0 0,1 0,1l1 1"/>
   <line class="fil1r str0r" x1="7" y1="8" x2="11" y2= "11" />
   <line class="fil1r str0r" x1="8" y1="7" x2="11" y2= "11" />
   <path class="fil1r str0r" d="M7 9c-1,-1 -1,-1 -1,0l3 4c1,0 1,1 2,1 0,0 0,0 1,0 0,0 1,0 1,0l1 1"/>
  </g>
 </g>
</svg>
