<svg xmlns="http://www.w3.org/2000/svg" viewBox="0 0 200.27 200.26"><defs><style>.cls-1{fill:#00b6b6;}.cls-2{fill:#fff;}</style></defs><g id="Layer_2" data-name="Layer 2"><g id="Layer_1-2" data-name="Layer 1"><circle class="cls-1" cx="100.27" cy="100.26" r="100"/><circle class="cls-1" cx="100.27" cy="100" r="100"/><circle class="cls-1" cx="100" cy="100" r="100"/><rect class="cls-2" x="99.45" y="47.47" width="4.32" height="107.94"/><path class="cls-2" d="M113.74,69.52v44.11h7.87v41.78H144V113.63h7.86V69.52Zm33.8,39.79h-7.87v41.78H125.93V109.31h-7.87V73.85h29.48Z"/><path class="cls-2" d="M132.8,67a11.2,11.2,0,1,0-11.19-11.2A11.31,11.31,0,0,0,132.8,67Zm0-18.07a6.87,6.87,0,1,1-6.87,6.87A6.91,6.91,0,0,1,132.8,48.91Z"/><path class="cls-2" d="M54.34,69.52l-6.2,58.63H59.22v27.26H81.6V128.15H92.69L86.48,69.52Zm27.15,54.31H77.17v27.26H63.54V123.83H53L58.33,74h24l5.32,49.87Z"/><path class="cls-2" d="M70.3,67a11.2,11.2,0,1,0-11.19-11.2A11.31,11.31,0,0,0,70.3,67Zm0-18.07a6.87,6.87,0,1,1-6.87,6.87A7,7,0,0,1,70.3,48.91Z"/></g></g></svg>