<?xml version="1.0" encoding="UTF-8"?>
<!DOCTYPE svg PUBLIC "-//W3C//DTD SVG 1.0//EN" "http://www.w3.org/TR/2001/REC-SVG-20010904/DTD/svg10.dtd">
<!-- Creator: CorelDRAW X7 -->
<svg xmlns="http://www.w3.org/2000/svg" xml:space="preserve" width="8mm" height="8mm" version="1.0" style="shape-rendering:geometricPrecision; text-rendering:geometricPrecision; image-rendering:optimizeQuality; fill-rule:evenodd; clip-rule:evenodd"
viewBox="0 0 102 102"
 xmlns:xlink="http://www.w3.org/1999/xlink">
 <defs>
  <style type="text/css">
   <![CDATA[
    .fil0 {fill:#0CB6B5}
    .fil1 {fill:white;fill-rule:nonzero}
   ]]>
  </style>
 </defs>
 <g id="Layer_x0020_1">
  <metadata id="CorelCorpID_0Corel-Layer"/>
  <path id="PFFB1F3001" class="fil0" d="M51 102c28,0 51,-23 51,-51 0,-28 -23,-51 -51,-51 -28,0 -51,23 -51,51 0,28 23,51 51,51z"/>
  <path class="fil1" d="M28 50c1,0 1,0 1,0l19 -19 0 10c0,1 1,2 2,2 1,0 2,-1 2,-2l0 -14c0,-1 0,-1 0,-1 0,0 0,0 0,0 0,0 0,0 0,0 0,0 0,0 0,0 0,0 0,0 0,0 -1,-1 -1,-1 -1,-1 0,0 0,0 0,0 0,0 0,0 0,0 0,0 0,0 0,0 0,0 0,0 -1,0 0,0 0,0 0,0l-15 0c-1,0 -1,1 -1,2 0,1 0,2 1,2l11 0 -19 18c-1,1 -1,2 0,3 0,0 1,0 1,0z"/>
  <path class="fil1" d="M68 47l0 -4 0 -7 9 0 2 0c1,0 1,-1 1,-1 0,-1 0,-2 -1,-2l-12 0c-1,0 -2,1 -2,2l0 10 0 0 0 0 -11 0c-1,0 -1,1 -1,2l0 7 0 3 -5 0 -6 0c-1,0 -1,1 -1,2l0 4 0 7 -9 0 -2 0c-1,0 -2,0 -2,1 0,1 1,2 2,2l12 0c1,0 2,-1 2,-2l0 -10 0 -1 0 0 10 0c1,0 2,0 2,-1l0 -7 0 -4 4 0 7 0c0,0 1,0 1,-1z"/>
 </g>
</svg>
