<svg xmlns="http://www.w3.org/2000/svg" viewBox="0 0 200 200"><defs><style>.cls-1{fill:#00b6b6;}.cls-2{fill:#fff;stroke:#fff;stroke-miterlimit:10;stroke-width:0.59px;}</style></defs><g id="Layer_2" data-name="Layer 2"><g id="Layer_1-2" data-name="Layer 1"><circle class="cls-1" cx="100" cy="100" r="100"/><path class="cls-2" d="M71.28,111.9A7.08,7.08,0,1,0,78.35,119,7.08,7.08,0,0,0,71.28,111.9Zm0,11.38a4.31,4.31,0,1,1,4.3-4.31A4.31,4.31,0,0,1,71.28,123.28Z"/><path class="cls-2" d="M128.39,111.9a7.08,7.08,0,1,0,7.08,7.07A7.08,7.08,0,0,0,128.39,111.9Zm0,11.38A4.31,4.31,0,1,1,132.7,119,4.31,4.31,0,0,1,128.39,123.28Z"/><path class="cls-2" d="M70.46,96.69h58.92a3.32,3.32,0,0,0,3.25-3.38v-.92A58.7,58.7,0,0,0,132,83.8l-2.5-17.11a3.27,3.27,0,0,0-3.22-2.87H73.55a3.27,3.27,0,0,0-3.22,2.87L67.83,83.8a58.7,58.7,0,0,0-.63,8.59v.92A3.33,3.33,0,0,0,70.46,96.69ZM70,92.39a56.11,56.11,0,0,1,.6-8.19l2.5-17.11a.53.53,0,0,1,.48-.5h52.74a.53.53,0,0,1,.48.5h0l2.5,17.11a57.53,57.53,0,0,1,.59,8.19v.92a.57.57,0,0,1-.48.61H70.46a.57.57,0,0,1-.49-.61Z"/><path class="cls-2" d="M147.21,82.31h-7.3c-.85-6.14-1.86-13.56-3-22.65a7.77,7.77,0,0,0-7.68-6.76H117.6V48.65a4.06,4.06,0,0,0-4-4.06H84.83a4.06,4.06,0,0,0-4,4.06V52.9H70.5a7.78,7.78,0,0,0-7.69,6.76c-1.19,9.09-2.19,16.51-3.05,22.65h-7A4.74,4.74,0,0,0,48.05,87V98.33a4.75,4.75,0,0,0,4.74,4.74h4a80.57,80.57,0,0,0-1.16,11.09v17.57H54.11a1.38,1.38,0,0,0-1.38,1.39V141a1.38,1.38,0,0,0,1.38,1.39H60v6.39a6.62,6.62,0,0,0,13.23,0v-6.39h53.22v6.39a6.62,6.62,0,0,0,13.23,0v-6.39h5.88A1.39,1.39,0,0,0,147,141v-7.9a1.39,1.39,0,0,0-1.39-1.39H144V114.16a73.75,73.75,0,0,0-1-10v0a.7.7,0,0,0,0-.14c0-.3-.08-.59-.12-.9h4.33A4.75,4.75,0,0,0,152,98.33V87A4.74,4.74,0,0,0,147.21,82.31ZM83.55,48.65a1.29,1.29,0,0,1,1.28-1.29h28.72a1.28,1.28,0,0,1,1.28,1.29V52.9H83.55ZM65.56,60a5,5,0,0,1,4.94-4.35h58.68A5,5,0,0,1,134.12,60c2.52,19.29,4.23,31.1,5.36,38.93.2,1.39.38,2.64.55,3.78H59.65c.16-1.15.34-2.39.54-3.78C61.32,91.12,63,79.31,65.56,60ZM52.79,100.3a2,2,0,0,1-2-2V87a2,2,0,0,1,2-2h6.59C58.6,90.61,58,95,57.45,98.55c-.09.61-.17,1.19-.25,1.75Zm17.67,48.5a3.85,3.85,0,0,1-7.69,0v-6.39h7.69Zm66.45,0a3.85,3.85,0,0,1-7.69,0v-6.39h7.69Zm7.27-9.16H55.5V134.5h88.68Zm-85.77-7.91V114.16a64.44,64.44,0,0,1,.84-8.66h81.17a64.92,64.92,0,0,1,.85,8.66v17.57Zm90.77-33.4a2,2,0,0,1-2,2h-4.73c-.08-.56-.17-1.14-.26-1.75-.51-3.56-1.15-7.94-1.92-13.47h6.91a2,2,0,0,1,2,2V98.33Z"/><path class="cls-2" d="M90,110.16a1.38,1.38,0,0,0-1.38,1.38V126.4a1.39,1.39,0,1,0,2.77,0V111.54A1.38,1.38,0,0,0,90,110.16Z"/><path class="cls-2" d="M96.78,110.16a1.38,1.38,0,0,0-1.39,1.38V126.4a1.39,1.39,0,1,0,2.77,0V111.54A1.38,1.38,0,0,0,96.78,110.16Z"/><path class="cls-2" d="M103.59,110.16a1.38,1.38,0,0,0-1.39,1.38V126.4a1.39,1.39,0,1,0,2.77,0V111.54A1.38,1.38,0,0,0,103.59,110.16Z"/><path class="cls-2" d="M110.4,110.16a1.38,1.38,0,0,0-1.39,1.38V126.4a1.39,1.39,0,1,0,2.77,0V111.54A1.38,1.38,0,0,0,110.4,110.16Z"/></g></g></svg>